{
.appVersion = "3401";
.formatVersion = 3;
axes = (
{
name = Weight;
tag = wght;
},
{
name = Width;
tag = wdth;
}
);
classes = (
{
automatic = 1;
code = "A Aacute Abreve Acircumflex Adieresis Agrave Amacron Aogonek Aring Atilde AE B C Cacute Ccaron Ccedilla Cdotaccent D Dcaron Dcroat Eth E Eacute Ecaron Ecircumflex Edieresis Edotaccent Egrave Emacron Eogonek F G Gbreve Gcommaaccent Gdotaccent H Hbar I IJ Iacute_J.loclNLD Iacute Icircumflex Idieresis Idotaccent Igrave Imacron Iogonek J Jacute K Kcommaaccent L Lacute Lcaron Lcommaaccent Ldot Lslash M N Nacute Ncaron Ncommaaccent Ntilde Eng O Oacute Ocircumflex Odieresis Ograve Ohungarumlaut Omacron Oslash Otilde OE P Thorn Q R Racute Rcaron Rcommaaccent S Sacute Scaron Scedilla Scommaaccent Germandbls T Tcaron Tcommaaccent U Uacute Ubreve Ucircumflex Udieresis Ugrave Uhungarumlaut Umacron Uogonek Uring V W Wacute Wcircumflex Wdieresis Wgrave X Y Yacute Ycircumflex Ydieresis Ygrave Z Zacute Zcaron Zdotaccent A.ss03 Aacute.ss03 Abreve.ss03 Acircumflex.ss03 Adieresis.ss03 Agrave.ss03 Amacron.ss03 Aogonek.ss03 Aring.ss03 Atilde.ss03 AE.ss03 B.ss03 D.ss03 Dcaron.ss03 Dcroat.ss03 Eth.ss03 E.ss03 Eacute.ss03 Ecaron.ss03 Ecircumflex.ss03 Edieresis.ss03 Edotaccent.ss03 Egrave.ss03 Emacron.ss03 Eogonek.ss03 F.ss03 H.ss03 K.ss03 Kcommaaccent.ss03 L.ss03 Lacute.ss03 Lcaron.ss03 Lcommaaccent.ss03 Ldot.ss03 Lslash.ss03 N.ss03 Nacute.ss03 Ncaron.ss03 Ncommaaccent.ss03 Ntilde.ss03 Eng.ss03 P.ss03 Thorn.ss03 R.ss03 Racute.ss03 Rcaron.ss03 Rcommaaccent.ss03 Germandbls.ss03 U.ss03 Uacute.ss03 Ubreve.ss03 Ucircumflex.ss03 Udieresis.ss03 Ugrave.ss03 Uhungarumlaut.ss03 Umacron.ss03 Uogonek.ss03 Uring.ss03 M.ss04";
name = Uppercase;
}
);
customParameters = (
{
name = fsType;
value = (
);
},
{
name = "Use Typo Metrics";
value = 1;
},
{
name = "Use Extension Kerning";
value = 1;
},
{
name = "Export Folder";
value = "Mozilla/Mozilla Headline";
},
{
name = "Variable Font Origin";
value = "160EFA77-7C0F-4DC0-BCB1-F97DA92D519B";
},
{

glyphs = (
{
color = 4;
glyphname = A;
kernLeft = A.ss03;
kernRight = A.ss03;
lastChange = "2025-05-27 20:12:02 +0000";
layers = (
{
anchors = (
{
name = ogonek;
pos = (410,0);
},
{
name = top;
pos = (218,690);
}
);
layerId = "F0CEC32E-C9EC-4613-8DDA-69A48990CD60";
shapes = (
{
closed = 1;
nodes = (
(91,0,l),
(211,635,l),
(229,635,l),
(348,0,l),
(410,0,l),
(277,690,l),
(164,690,l),
(31,0,l)
);
},
{
closed = 1;
nodes = (
(343,189,l),
(339,237,l),
(101,237,l),
(96,189,l)
);
},
{
closed = 1;
nodes = (
(193,639,l),
(193,690,l),
(94,690,l),
(94,639,l)
);
}
);
width = 438;
},
{
anchors = (
{
name = ogonek;
pos = (424,0);
},
{
name = top;
pos = (217,690);
}
);
layerId = "FC0B0A46-298E-459F-AF16-26E3878B41A7";
shapes = (
{
closed = 1;
nodes = (
(138,0,l),
(207,577,l),
(231,577,l),
(300,0,l),
(424,0,l),
(331,690,l),
(112,690,l),
(19,0,l)
);
},
{
closed = 1;
nodes = (
(345,158,l),
(344,250,l),
(93,250,l),
(92,158,l)
);
},
{
closed = 1;
nodes = (
(183,592,l),
(183,690,l),
(58,690,l),
(58,592,l)
);
}
);
width = 438;
},
{
anchors = (
{
name = ogonek;
pos = (718,0);
},
{
name = top;
pos = (377,690);
}
);
layerId = m005;
shapes = (
{
closed = 1;
nodes = (
(112,0,l),
(367,632,l),
(391,632,l),
(646,0,l),
(718,0,l),
(438,690,l),
(322,690,l),
(42,0,l)
);
},
{
closed = 1;
nodes = (
(600,187,l),
(580,239,l),
(181,239,l),
(161,187,l)
);
},
{
closed = 1;
nodes = (
(347,636,l),
(347,690,l),
(188,690,l),
(188,636,l)
);
}
);
width = 754;
},
{
anchors = (
{
name = ogonek;
pos = (742,0);
},
{
name = top;
pos = (375,690);
}
);
layerId = "EBD6C0FC-C5AB-4FD7-AC9E-8019678F82E3";
shapes = (
{
closed = 1;
nodes = (
(182,0,l),
(358,563,l),
(396,563,l),
(572,0,l),
(742,0,l),
(528,690,l),
(234,690,l),
(20,0,l)
);
},
{
closed = 1;
nodes = (
(565,150,l),
(562,258,l),
(183,258,l),
(180,150,l)
);
},
{
closed = 1;
nodes = (
(350,578,l),
(350,690,l),
(124,690,l),
(124,578,l)
);
}
);
width = 754;
},
{
anchors = (
{
name = ogonek;
pos = (599,0);
},
{
name = top;
pos = (315,690);
}
);
layerId = "160EFA77-7C0F-4DC0-BCB1-F97DA92D519B";
shapes = (
{
closed = 1;
nodes = (
(104,0,l),
(306,633,l),
(328,633,l),
(530,0,l),
(599,0,l),
(376,690,l),
(261,690,l),
(38,0,l)
);
},
{
closed = 1;
nodes = (
(500,188,l),
(487,238,l),
(150,238,l),
(136,188,l)
);
},
{
closed = 1;
nodes = (
(287,637,l),
(287,690,l),
(152,690,l),
(152,637,l)
);
}
);
width = 631.41379;
},
{
anchors = (
{
name = ogonek;
pos = (619,0);
},
{
name = top;
pos = (314,690);
}
);
layerId = "F0C7097F-19D1-44A8-AB3C-28AAB548B4C8";
shapes = (
{
closed = 1;
nodes = (
(165,0,l),
(299,568,l),
(332,568,l),
(466,0,l),
(619,0,l),
(452,690,l),
(187,690,l),
(20,0,l)
);
},
{
closed = 1;
nodes = (
(480,153,l),
(477,255,l),
(148,255,l),
(146,153,l)
);
},
{
closed = 1;
nodes = (
(285,583,l),
(285,690,l),
(98,690,l),
(98,583,l)
);
}
);
width = 631.41379;
}
);
unicode = 65;
userData = {
KernOnName = A;
};
},
{
color = 4;
glyphname = Aogonek;
kernLeft = A.ss03;
kernRight = A.ss03;
lastChange = "2025-02-11 14:17:34 +0000";
layers = (
{
anchors = (
{
name = ogonek;
pos = (410,0);
},
{
name = top;
pos = (218,690);
}
);
layerId = "F0CEC32E-C9EC-4613-8DDA-69A48990CD60";
shapes = (
{
closed = 1;
nodes = (
(91,0,l),
(211,635,l),
(229,635,l),
(348,0,l),
(410,0,l),
(277,690,l),
(164,690,l),
(31,0,l)
);
},
{
closed = 1;
nodes = (
(343,189,l),
(339,237,l),
(101,237,l),
(96,189,l)
);
},
{
closed = 1;
nodes = (
(193,639,l),
(193,690,l),
(94,690,l),
(94,639,l)
);
},
{
closed = 1;
nodes = (
(415,-136,l),
(415,-95,l),
(371,-95,ls),
(349,-95,o),
(338,-85,o),
(338,-68,cs),
(338,-48,o),
(354,-28,o),
(410,0,c),
(355,17,l),
(355,-13,l),
(312,-28,o),
(293,-48,o),
(293,-80,cs),
(293,-116,o),
(318,-136,o),
(365,-136,cs)
);
}
);
width = 438;
},
{
anchors = (
{
name = ogonek;
pos = (424,0);
},
{
name = top;
pos = (217,690);
}
);
layerId = "FC0B0A46-298E-459F-AF16-26E3878B41A7";
shapes = (
{
closed = 1;
nodes = (
(138,0,l),
(207,577,l),
(231,577,l),
(300,0,l),
(424,0,l),
(331,690,l),
(112,690,l),
(19,0,l)
);
},
{
closed = 1;
nodes = (
(345,158,l),
(344,250,l),
(93,250,l),
(92,158,l)
);
},
{
closed = 1;
nodes = (
(183,592,l),
(183,690,l),
(58,690,l),
(58,592,l)
);
},
{
closed = 1;
nodes = (
(429,-136,l),
(429,-65,l),
(393,-65,ls),
(376,-65,o),
(367,-58,o),
(367,-45,cs),
(367,-29,o),
(384,-15,o),
(424,0,c),
(354,20,l),
(354,-17,l),
(305,-24,o),
(281,-44,o),
(281,-77,cs),
(281,-115,o),
(309,-136,o),
(362,-136,cs)
);
}
);
width = 438;
},
{
anchors = (
{
name = ogonek;
pos = (718,0);
},
{
name = top;
pos = (377,690);
}
);
layerId = m005;
shapes = (
{
closed = 1;
nodes = (
(112,0,l),
(367,632,l),
(391,632,l),
(646,0,l),
(718,0,l),
(438,690,l),
(322,690,l),
(42,0,l)
);
},
{
closed = 1;
nodes = (
(600,187,l),
(580,239,l),
(181,239,l),
(161,187,l)
);
},
{
closed = 1;
nodes = (
(347,636,l),
(347,690,l),
(188,690,l),
(188,636,l)
);
},
{
closed = 1;
nodes = (
(726,-148,l),
(726,-104,l),
(620,-104,ls),
(600,-104,o),
(590,-96,o),
(590,-80,cs),
(590,-56,o),
(620,-37,o),
(718,0,c),
(646,9,l),
(646,-10,l),
(567,-30,o),
(542,-49,o),
(542,-92,cs),
(542,-128,o),
(567,-148,o),
(613,-148,cs)
);
}
);
width = 754;
},
{
anchors = (
{
name = ogonek;
pos = (742,0);
},
{
name = top;
pos = (375,690);
}
);
layerId = "EBD6C0FC-C5AB-4FD7-AC9E-8019678F82E3";
shapes = (
{
closed = 1;
nodes = (
(182,0,l),
(358,563,l),
(396,563,l),
(572,0,l),
(742,0,l),
(528,690,l),
(234,690,l),
(20,0,l)
);
},
{
closed = 1;
nodes = (
(565,150,l),
(562,258,l),
(183,258,l),
(180,150,l)
);
},
{
closed = 1;
nodes = (
(350,578,l),
(350,690,l),
(124,690,l),
(124,578,l)
);
},
{
closed = 1;
nodes = (
(750,-148,l),
(750,-64,l),
(660,-64,ls),
(642,-64,o),
(635,-57,o),
(635,-45,cs),
(635,-26,o),
(660,-15,o),
(742,0,c),
(615,16,l),
(615,-22,l),
(551,-30,o),
(524,-50,o),
(524,-88,cs),
(524,-127,o),
(552,-148,o),
(605,-148,cs)
);
}
);
width = 754;
},
{
anchors = (
{
name = ogonek;
pos = (599,0);
},
{
name = top;
pos = (315,690);
}
);
layerId = "160EFA77-7C0F-4DC0-BCB1-F97DA92D519B";
shapes = (
{
closed = 1;
nodes = (
(104,0,l),
(306,633,l),
(328,633,l),
(530,0,l),
(599,0,l),
(376,690,l),
(261,690,l),
(38,0,l)
);
},
{
closed = 1;
nodes = (
(500,188,l),
(487,238,l),
(150,238,l),
(136,188,l)
);
},
{
closed = 1;
nodes = (
(287,637,l),
(287,690,l),
(152,690,l),
(152,637,l)
);
},
{
closed = 1;
nodes = (
(605,-143,l),
(605,-101,l),
(523,-101,ls),
(503,-101,o),
(492,-92,o),
(492,-75,cs),
(492,-53,o),
(517,-34,o),
(599,0,c),
(533,12,l),
(533,-11,l),
(468,-29,o),
(445,-49,o),
(445,-87,cs),
(445,-123,o),
(470,-143,o),
(517,-143,cs)
);
}
);
width = 631.41379;
},
{
anchors = (
{
name = ogonek;
pos = (619,0);
},
{
name = top;
pos = (314,690);
}
);
layerId = "F0C7097F-19D1-44A8-AB3C-28AAB548B4C8";
shapes = (
{
closed = 1;
nodes = (
(165,0,l),
(299,568,l),
(332,568,l),
(466,0,l),
(619,0,l),
(452,690,l),
(187,690,l),
(20,0,l)
);
},
{
closed = 1;
nodes = (
(480,153,l),
(477,255,l),
(148,255,l),
(146,153,l)
);
},
{
closed = 1;
nodes = (
(285,583,l),
(285,690,l),
(98,690,l),
(98,583,l)
);
},
{
closed = 1;
nodes = (
(625,-143,l),
(625,-64,l),
(556,-64,ls),
(539,-64,o),
(531,-57,o),
(531,-45,cs),
(531,-27,o),
(553,-15,o),
(619,0,c),
(514,18,l),
(514,-20,l),
(456,-28,o),
(430,-48,o),
(430,-84,cs),
(430,-122,o),
(458,-143,o),
(511,-143,cs)
);
}
);
width = 631.41379;
}
);
unicode = 260;
},
{
color = 4;
glyphname = AE;
kernLeft = AE.ss03;
kernRight = E.ss03;
lastChange = "2025-02-11 14:17:34 +0000";
layers = (
{
anchors = (
{
name = ogonek;
pos = (577,0);
},
{
name = top;
pos = (416,690);
}
);
layerId = "F0CEC32E-C9EC-4613-8DDA-69A48990CD60";
shapes = (
{
closed = 1;
nodes = (
(73,0,l),
(257,635,l),
(274,635,l),
(323,690,l),
(214,690,l),
(11,0,l)
);
},
{
closed = 1;
nodes = (
(312,189,l),
(312,237,l),
(98,237,l),
(94,189,l)
);
},
{
closed = 1;
nodes = (
(239,639,l),
(239,690,l),
(139,690,l),
(139,639,l)
);
},
{
closed = 1;
nodes = (
(573,494,l),
(573,690,l),
(274,690,l),
(274,0,l),
(577,0,l),
(577,200,l),
(526,200,l),
(526,51,l),
(334,51,l),
(334,328,l),
(502,328,l),
(502,376,l),
(334,376,l),
(334,639,l),
(522,639,l),
(522,494,l)
);
}
);
userData = {
assembly = "NPUSHB[ ]	/* 47 values pushed */
4 3 11 6 27 4 27 5 42 4 43 5 59 6 74 4 74 5 77 6 77 18 11 18 19 3 4 20 5 5 6 117 5 124 6 2 10 16 14 6 12 12 2 85 14 20 1
PUSHW[ ]	/* 1 value pushed */
-10
PUSHB[ ]	/* 5 values pushed */
11 11 2 85 1
PUSHW[ ]	/* 1 value pushed */
-12
PUSHB[ ]	/* 5 values pushed */
15 15 6 85 1
PUSHW[ ]	/* 1 value pushed */
-22
NPUSHB[ ]	/* 11 values pushed */
13 13 6 85 1 10 12 12 6 85 1
PUSHW[ ]	/* 1 value pushed */
-20
NPUSHB[ ]	/* 13 values pushed */
9 9 6 85 1 21 115 6 1 8 11 4 0
PUSHW[ ]	/* 1 value pushed */
-28
NPUSHB[ ]	/* 11 values pushed */
9 9 2 85 0 20 12 12 2 85 0
PUSHW[ ]	/* 1 value pushed */
-42
PUSHB[ ]	/* 5 values pushed */
13 13 2 85 0
PUSHW[ ]	/* 1 value pushed */
-25
NPUSHB[ ]	/* 27 values pushed */
15 15 2 85 0 28 16 16 2 85 64 0 1 0 0 15 5 1 5 100 20 3 52 19 13 53 10
PUSHW[ ]	/* 1 value pushed */
-64
NPUSHB[ ]	/* 19 values pushed */
15 15 2 85 10 10 19 5 8 53 18 52 6 3 14 53 1 5 8
SVTCA[0]	/* SetFreedomAndProjectionVectorToAxis */
MIAP[1]	/* MoveIndirectAbsPt */
ALIGNRP[ ]	/* AlignRelativePt */
MIRP[01101]	/* MoveIndirectRelPt */
MIAP[1]	/* MoveIndirectAbsPt */
MIRP[01101]	/* MoveIndirectRelPt */
MIRP[01101]	/* MoveIndirectRelPt */
SRP2[ ]	/* SetRefPoint2 */
IP[ ]	/* InterpolatePts */
IP[ ]	/* InterpolatePts */
MDAP[1]	/* MoveDirectAbsPt */
CALL[ ]	/* CallFunction */
MIRP[01101]	/* MoveIndirectRelPt */
MDAP[1]	/* MoveDirectAbsPt */
MIRP[01101]	/* MoveIndirectRelPt */
IUP[0]	/* InterpolateUntPts */
SVTCA[1]	/* SetFreedomAndProjectionVectorToAxis */
SRP0[ ]	/* SetRefPoint0 */
MIRP[10110]	/* MoveIndirectRelPt */
DELTAP1[ ]	/* DeltaExceptionP1 */
SHP[0]	/* ShiftPointByLastPoint */
MDAP[1]	/* MoveDirectAbsPt */
DELTAP1[ ]	/* DeltaExceptionP1 */
CALL[ ]	/* CallFunction */
CALL[ ]	/* CallFunction */
CALL[ ]	/* CallFunction */
CALL[ ]	/* CallFunction */
CALL[ ]	/* CallFunction */
SLOOP[ ]	/* SetLoopVariable */
IP[ ]	/* InterpolatePts */
MIRP[00110]	/* MoveIndirectRelPt */
MDAP[1]	/* MoveDirectAbsPt */
CALL[ ]	/* CallFunction */
CALL[ ]	/* CallFunction */
CALL[ ]	/* CallFunction */
CALL[ ]	/* CallFunction */
CALL[ ]	/* CallFunction */
MIRP[01101]	/* MoveIndirectRelPt */
CALL[ ]	/* CallFunction */
IP[ ]	/* InterpolatePts */
IP[ ]	/* InterpolatePts */
IUP[1]	/* InterpolateUntPts */
IUP[0]	/* InterpolateUntPts */
DELTAP1[ ]	/* DeltaExceptionP1 */
SDPVTL[1]	/* SetDualPVectorToLine */
SRP0[ ]	/* SetRefPoint0 */
MIRP[11101]	/* MoveIndirectRelPt */
MDRP[00000]	/* MoveDirectRelPt */
MDRP[00000]	/* MoveDirectRelPt */
MDRP[00000]	/* MoveDirectRelPt */
SVTCA[1]	/* SetFreedomAndProjectionVectorToAxis */
DELTAP1[ ]	/* DeltaExceptionP1 */";
};
width = 627;
},
{
anchors = (
{
name = ogonek;
pos = (598,0);
},
{
name = top;
pos = (417,690);
}
);
layerId = "FC0B0A46-298E-459F-AF16-26E3878B41A7";
shapes = (
{
closed = 1;
nodes = (
(123,0,l),
(231,577,l),
(255,577,l),
(355,690,l),
(142,690,l),
(1,0,l)
);
},
{
closed = 1;
nodes = (
(332,158,l),
(332,250,l),
(80,250,l),
(80,158,l)
);
},
{
closed = 1;
nodes = (
(207,592,l),
(207,690,l),
(80,690,l),
(80,592,l)
);
},
{
closed = 1;
nodes = (
(594,483,l),
(594,690,l),
(255,690,l),
(255,0,l),
(598,0,l),
(598,211,l),
(495,211,l),
(495,98,l),
(376,98,l),
(376,307,l),
(515,307,l),
(515,397,l),
(376,397,l),
(376,592,l),
(491,592,l),
(491,483,l)
);
}
);
userData = {
assembly = "NPUSHB[ ]	/* 47 values pushed */
4 3 11 6 27 4 27 5 42 4 43 5 59 6 74 4 74 5 77 6 77 18 11 18 19 3 4 20 5 5 6 117 5 124 6 2 10 16 14 6 12 12 2 85 14 20 1
PUSHW[ ]	/* 1 value pushed */
-10
PUSHB[ ]	/* 5 values pushed */
11 11 2 85 1
PUSHW[ ]	/* 1 value pushed */
-12
PUSHB[ ]	/* 5 values pushed */
15 15 6 85 1
PUSHW[ ]	/* 1 value pushed */
-22
NPUSHB[ ]	/* 11 values pushed */
13 13 6 85 1 10 12 12 6 85 1
PUSHW[ ]	/* 1 value pushed */
-20
NPUSHB[ ]	/* 13 values pushed */
9 9 6 85 1 21 115 6 1 8 11 4 0
PUSHW[ ]	/* 1 value pushed */
-28
NPUSHB[ ]	/* 11 values pushed */
9 9 2 85 0 20 12 12 2 85 0
PUSHW[ ]	/* 1 value pushed */
-42
PUSHB[ ]	/* 5 values pushed */
13 13 2 85 0
PUSHW[ ]	/* 1 value pushed */
-25
NPUSHB[ ]	/* 27 values pushed */
15 15 2 85 0 28 16 16 2 85 64 0 1 0 0 15 5 1 5 100 20 3 52 19 13 53 10
PUSHW[ ]	/* 1 value pushed */
-64
NPUSHB[ ]	/* 19 values pushed */
15 15 2 85 10 10 19 5 8 53 18 52 6 3 14 53 1 5 8
SVTCA[0]	/* SetFreedomAndProjectionVectorToAxis */
MIAP[1]	/* MoveIndirectAbsPt */
ALIGNRP[ ]	/* AlignRelativePt */
MIRP[01101]	/* MoveIndirectRelPt */
MIAP[1]	/* MoveIndirectAbsPt */
MIRP[01101]	/* MoveIndirectRelPt */
MIRP[01101]	/* MoveIndirectRelPt */
SRP2[ ]	/* SetRefPoint2 */
IP[ ]	/* InterpolatePts */
IP[ ]	/* InterpolatePts */
MDAP[1]	/* MoveDirectAbsPt */
CALL[ ]	/* CallFunction */
MIRP[01101]	/* MoveIndirectRelPt */
MDAP[1]	/* MoveDirectAbsPt */
MIRP[01101]	/* MoveIndirectRelPt */
IUP[0]	/* InterpolateUntPts */
SVTCA[1]	/* SetFreedomAndProjectionVectorToAxis */
SRP0[ ]	/* SetRefPoint0 */
MIRP[10110]	/* MoveIndirectRelPt */
DELTAP1[ ]	/* DeltaExceptionP1 */
SHP[0]	/* ShiftPointByLastPoint */
MDAP[1]	/* MoveDirectAbsPt */
DELTAP1[ ]	/* DeltaExceptionP1 */
CALL[ ]	/* CallFunction */
CALL[ ]	/* CallFunction */
CALL[ ]	/* CallFunction */
CALL[ ]	/* CallFunction */
CALL[ ]	/* CallFunction */
SLOOP[ ]	/* SetLoopVariable */
IP[ ]	/* InterpolatePts */
MIRP[00110]	/* MoveIndirectRelPt */
MDAP[1]	/* MoveDirectAbsPt */
CALL[ ]	/* CallFunction */
CALL[ ]	/* CallFunction */
CALL[ ]	/* CallFunction */
CALL[ ]	/* CallFunction */
CALL[ ]	/* CallFunction */
MIRP[01101]	/* MoveIndirectRelPt */
CALL[ ]	/* CallFunction */
IP[ ]	/* InterpolatePts */
IP[ ]	/* InterpolatePts */
IUP[1]	/* InterpolateUntPts */
IUP[0]	/* InterpolateUntPts */
DELTAP1[ ]	/* DeltaExceptionP1 */
SDPVTL[1]	/* SetDualPVectorToLine */
SRP0[ ]	/* SetRefPoint0 */
MIRP[11101]	/* MoveIndirectRelPt */
MDRP[00000]	/* MoveDirectRelPt */
MDRP[00000]	/* MoveDirectRelPt */
MDRP[00000]	/* MoveDirectRelPt */
SVTCA[1]	/* SetFreedomAndProjectionVectorToAxis */
DELTAP1[ ]	/* DeltaExceptionP1 */";
};
width = 627;
},
{
anchors = (
{
name = ogonek;
pos = (1026,0);
},
{
name = top;
pos = (766,690);
}
);
layerId = m005;
shapes = (
{
closed = 1;
nodes = (
(85,0,l),
(484,632,l),
(508,632,l),
(555,690,l),
(446,690,l),
(8,0,l)
);
},
{
closed = 1;
nodes = (
(547,187,l),
(547,239,l),
(192,239,l),
(172,187,l)
);
},
{
closed = 1;
nodes = (
(464,636,l),
(464,690,l),
(299,690,l),
(299,636,l)
);
},
{
closed = 1;
nodes = (
(1022,494,l),
(1022,690,l),
(508,690,l),
(508,0,l),
(1026,0,l),
(1026,200,l),
(968,200,l),
(968,54,l),
(574,54,l),
(574,326,l),
(910,326,l),
(910,378,l),
(574,378,l),
(574,636,l),
(964,636,l),
(964,494,l)
);
}
);
width = 1100;
},
{
anchors = (
{
name = ogonek;
pos = (1048,0);
},
{
name = top;
pos = (760,690);
}
);
layerId = "EBD6C0FC-C5AB-4FD7-AC9E-8019678F82E3";
shapes = (
{
closed = 1;
nodes = (
(162,0,l),
(436,563,l),
(474,563,l),
(605,690,l),
(325,690,l),
(-10,0,l)
);
},
{
closed = 1;
nodes = (
(560,150,l),
(560,258,l),
(172,258,l),
(169,150,l)
);
},
{
closed = 1;
nodes = (
(427,578,l),
(427,690,l),
(193,690,l),
(193,578,l)
);
},
{
closed = 1;
nodes = (
(1044,483,l),
(1044,690,l),
(474,690,l),
(474,0,l),
(1048,0,l),
(1048,211,l),
(914,211,l),
(914,112,l),
(636,112,l),
(636,300,l),
(925,300,l),
(925,404,l),
(636,404,l),
(636,578,l),
(910,578,l),
(910,483,l)
);
}
);
width = 1100;
},
{
anchors = (
{
name = ogonek;
pos = (852,0);
},
{
name = top;
pos = (630,690);
}
);
layerId = "160EFA77-7C0F-4DC0-BCB1-F97DA92D519B";
shapes = (
{
closed = 1;
nodes = (
(80,0,l),
(396,633,l),
(417,633,l),
(465,690,l),
(356,690,l),
(9,0,l)
);
},
{
closed = 1;
nodes = (
(456,188,l),
(456,238,l),
(156,238,l),
(142,188,l)
);
},
{
closed = 1;
nodes = (
(377,637,l),
(377,690,l),
(237,690,l),
(237,637,l)
);
},
{
closed = 1;
nodes = (
(848,494,l),
(848,690,l),
(417,690,l),
(417,0,l),
(852,0,l),
(852,200,l),
(797,200,l),
(797,53,l),
(481,53,l),
(481,327,l),
(752,327,l),
(752,377,l),
(481,377,l),
(481,637,l),
(793,637,l),
(793,494,l)
);
}
);
userData = {
assembly = "NPUSHB[ ]	/* 47 values pushed */
4 3 11 6 27 4 27 5 42 4 43 5 59 6 74 4 74 5 77 6 77 18 11 18 19 3 4 20 5 5 6 117 5 124 6 2 10 16 14 6 12 12 2 85 14 20 1
PUSHW[ ]	/* 1 value pushed */
-10
PUSHB[ ]	/* 5 values pushed */
11 11 2 85 1
PUSHW[ ]	/* 1 value pushed */
-12
PUSHB[ ]	/* 5 values pushed */
15 15 6 85 1
PUSHW[ ]	/* 1 value pushed */
-22
NPUSHB[ ]	/* 11 values pushed */
13 13 6 85 1 10 12 12 6 85 1
PUSHW[ ]	/* 1 value pushed */
-20
NPUSHB[ ]	/* 13 values pushed */
9 9 6 85 1 21 115 6 1 8 11 4 0
PUSHW[ ]	/* 1 value pushed */
-28
NPUSHB[ ]	/* 11 values pushed */
9 9 2 85 0 20 12 12 2 85 0
PUSHW[ ]	/* 1 value pushed */
-42
PUSHB[ ]	/* 5 values pushed */
13 13 2 85 0
PUSHW[ ]	/* 1 value pushed */
-25
NPUSHB[ ]	/* 27 values pushed */
15 15 2 85 0 28 16 16 2 85 64 0 1 0 0 15 5 1 5 100 20 3 52 19 13 53 10
PUSHW[ ]	/* 1 value pushed */
-64
NPUSHB[ ]	/* 19 values pushed */
15 15 2 85 10 10 19 5 8 53 18 52 6 3 14 53 1 5 8
SVTCA[0]	/* SetFreedomAndProjectionVectorToAxis */
MIAP[1]	/* MoveIndirectAbsPt */
ALIGNRP[ ]	/* AlignRelativePt */
MIRP[01101]	/* MoveIndirectRelPt */
MIAP[1]	/* MoveIndirectAbsPt */
MIRP[01101]	/* MoveIndirectRelPt */
MIRP[01101]	/* MoveIndirectRelPt */
SRP2[ ]	/* SetRefPoint2 */
IP[ ]	/* InterpolatePts */
IP[ ]	/* InterpolatePts */
MDAP[1]	/* MoveDirectAbsPt */
CALL[ ]	/* CallFunction */
MIRP[01101]	/* MoveIndirectRelPt */
MDAP[1]	/* MoveDirectAbsPt */
MIRP[01101]	/* MoveIndirectRelPt */
IUP[0]	/* InterpolateUntPts */
SVTCA[1]	/* SetFreedomAndProjectionVectorToAxis */
SRP0[ ]	/* SetRefPoint0 */
MIRP[10110]	/* MoveIndirectRelPt */
DELTAP1[ ]	/* DeltaExceptionP1 */
SHP[0]	/* ShiftPointByLastPoint */
MDAP[1]	/* MoveDirectAbsPt */
DELTAP1[ ]	/* DeltaExceptionP1 */
CALL[ ]	/* CallFunction */
CALL[ ]	/* CallFunction */
CALL[ ]	/* CallFunction */
CALL[ ]	/* CallFunction */
CALL[ ]	/* CallFunction */
SLOOP[ ]	/* SetLoopVariable */
IP[ ]	/* InterpolatePts */
MIRP[00110]	/* MoveIndirectRelPt */
MDAP[1]	/* MoveDirectAbsPt */
CALL[ ]	/* CallFunction */
CALL[ ]	/* CallFunction */
CALL[ ]	/* CallFunction */
CALL[ ]	/* CallFunction */
CALL[ ]	/* CallFunction */
MIRP[01101]	/* MoveIndirectRelPt */
CALL[ ]	/* CallFunction */
IP[ ]	/* InterpolatePts */
IP[ ]	/* InterpolatePts */
IUP[1]	/* InterpolateUntPts */
IUP[0]	/* InterpolateUntPts */
DELTAP1[ ]	/* DeltaExceptionP1 */
SDPVTL[1]	/* SetDualPVectorToLine */
SRP0[ ]	/* SetRefPoint0 */
MIRP[11101]	/* MoveIndirectRelPt */
MDRP[00000]	/* MoveDirectRelPt */
MDRP[00000]	/* MoveDirectRelPt */
MDRP[00000]	/* MoveDirectRelPt */
SVTCA[1]	/* SetFreedomAndProjectionVectorToAxis */
DELTAP1[ ]	/* DeltaExceptionP1 */";
};
width = 916.50862;
},
{
anchors = (
{
name = ogonek;
pos = (873,0);
},
{
name = top;
pos = (627,690);
}
);
layerId = "F0C7097F-19D1-44A8-AB3C-28AAB548B4C8";
shapes = (
{
closed = 1;
nodes = (
(147,0,l),
(356,568,l),
(389,568,l),
(508,690,l),
(254.009,690,l),
(-6,0,l)
);
},
{
closed = 1;
nodes = (
(472,153,l),
(472,255,l),
(136,255,l),
(134,153,l)
);
},
{
closed = 1;
nodes = (
(342,583,l),
(342,690,l),
(149,690,l),
(149,583,l)
);
},
{
closed = 1;
nodes = (
(869,483,l),
(869,690,l),
(389,690,l),
(389,0,l),
(873,0,l),
(873,211,l),
(751,211,l),
(751,107,l),
(535,107,l),
(535,303,l),
(766,303,l),
(766,401,l),
(535,401,l),
(535,583,l),
(747,583,l),
(747,483,l)
);
}
);
userData = {
assembly = "NPUSHB[ ]	/* 47 values pushed */
4 3 11 6 27 4 27 5 42 4 43 5 59 6 74 4 74 5 77 6 77 18 11 18 19 3 4 20 5 5 6 117 5 124 6 2 10 16 14 6 12 12 2 85 14 20 1
PUSHW[ ]	/* 1 value pushed */
-10
PUSHB[ ]	/* 5 values pushed */
11 11 2 85 1
PUSHW[ ]	/* 1 value pushed */
-12
PUSHB[ ]	/* 5 values pushed */
15 15 6 85 1
PUSHW[ ]	/* 1 value pushed */
-22
NPUSHB[ ]	/* 11 values pushed */
13 13 6 85 1 10 12 12 6 85 1
PUSHW[ ]	/* 1 value pushed */
-20
NPUSHB[ ]	/* 13 values pushed */
9 9 6 85 1 21 115 6 1 8 11 4 0
PUSHW[ ]	/* 1 value pushed */
-28
NPUSHB[ ]	/* 11 values pushed */
9 9 2 85 0 20 12 12 2 85 0
PUSHW[ ]	/* 1 value pushed */
-42
PUSHB[ ]	/* 5 values pushed */
13 13 2 85 0
PUSHW[ ]	/* 1 value pushed */
-25
NPUSHB[ ]	/* 27 values pushed */
15 15 2 85 0 28 16 16 2 85 64 0 1 0 0 15 5 1 5 100 20 3 52 19 13 53 10
PUSHW[ ]	/* 1 value pushed */
-64
NPUSHB[ ]	/* 19 values pushed */
15 15 2 85 10 10 19 5 8 53 18 52 6 3 14 53 1 5 8
SVTCA[0]	/* SetFreedomAndProjectionVectorToAxis */
MIAP[1]	/* MoveIndirectAbsPt */
ALIGNRP[ ]	/* AlignRelativePt */
MIRP[01101]	/* MoveIndirectRelPt */
MIAP[1]	/* MoveIndirectAbsPt */
MIRP[01101]	/* MoveIndirectRelPt */
MIRP[01101]	/* MoveIndirectRelPt */
SRP2[ ]	/* SetRefPoint2 */
IP[ ]	/* InterpolatePts */
IP[ ]	/* InterpolatePts */
MDAP[1]	/* MoveDirectAbsPt */
CALL[ ]	/* CallFunction */
MIRP[01101]	/* MoveIndirectRelPt */
MDAP[1]	/* MoveDirectAbsPt */
MIRP[01101]	/* MoveIndirectRelPt */
IUP[0]	/* InterpolateUntPts */
SVTCA[1]	/* SetFreedomAndProjectionVectorToAxis */
SRP0[ ]	/* SetRefPoint0 */
MIRP[10110]	/* MoveIndirectRelPt */
DELTAP1[ ]	/* DeltaExceptionP1 */
SHP[0]	/* ShiftPointByLastPoint */
MDAP[1]	/* MoveDirectAbsPt */
DELTAP1[ ]	/* DeltaExceptionP1 */
CALL[ ]	/* CallFunction */
CALL[ ]	/* CallFunction */
CALL[ ]	/* CallFunction */
CALL[ ]	/* CallFunction */
CALL[ ]	/* CallFunction */
SLOOP[ ]	/* SetLoopVariable */
IP[ ]	/* InterpolatePts */
MIRP[00110]	/* MoveIndirectRelPt */
MDAP[1]	/* MoveDirectAbsPt */
CALL[ ]	/* CallFunction */
CALL[ ]	/* CallFunction */
CALL[ ]	/* CallFunction */
CALL[ ]	/* CallFunction */
CALL[ ]	/* CallFunction */
MIRP[01101]	/* MoveIndirectRelPt */
CALL[ ]	/* CallFunction */
IP[ ]	/* InterpolatePts */
IP[ ]	/* InterpolatePts */
IUP[1]	/* InterpolateUntPts */
IUP[0]	/* InterpolateUntPts */
DELTAP1[ ]	/* DeltaExceptionP1 */
SDPVTL[1]	/* SetDualPVectorToLine */
SRP0[ ]	/* SetRefPoint0 */
MIRP[11101]	/* MoveIndirectRelPt */
MDRP[00000]	/* MoveDirectRelPt */
MDRP[00000]	/* MoveDirectRelPt */
MDRP[00000]	/* MoveDirectRelPt */
SVTCA[1]	/* SetFreedomAndProjectionVectorToAxis */
DELTAP1[ ]	/* DeltaExceptionP1 */";
};
width = 916.50862;
}
);
note = AE;
unicode = 198;
},
{
color = 4;
glyphname = B;
kernLeft = H.ss03;
kernRight = B.ss03;
lastChange = "2025-02-11 14:17:34 +0000";
layers = (
{
layerId = "F0CEC32E-C9EC-4613-8DDA-69A48990CD60";
shapes = (
{
closed = 1;
nodes = (
(260,0,ls),
(360,0,o),
(409,63,o),
(409,189,cs),
(409,289,o),
(380,335,o),
(315,343,c),
(315,361,l),
(377,369,o),
(404,410,o),
(404,508,cs),
(404,633,o),
(356,690,o),
(256,690,cs),
(17,690,l),
(17,639,l),
(77,639,l),
(77,0,l)
);
},
{
closed = 1;
nodes = (
(137,51,l),
(137,328,l),
(255,328,ls),
(317,328,o),
(347,294,o),
(347,223,cs),
(347,155,ls),
(347,85,o),
(317,51,o),
(255,51,cs)
);
},
{
closed = 1;
nodes = (
(137,376,l),
(137,639,l),
(252,639,ls),
(313,639,o),
(342,606,o),
(342,537,cs),
(342,479,ls),
(342,410,o),
(313,376,o),
(252,376,cs)
);
}
);
width = 456;
},
{
layerId = "FC0B0A46-298E-459F-AF16-26E3878B41A7";
shapes = (
{
closed = 1;
nodes = (
(258,0,ls),
(372,0,o),
(427,61,o),
(427,193,cs),
(427,294,o),
(388,338,o),
(311,340,c),
(311,364,l),
(381,366,o),
(420,407,o),
(420,504,cs),
(420,632,o),
(366,690,o),
(254,690,cs),
(13,690,l),
(13,592,l),
(54,592,l),
(54,0,l)
);
},
{
closed = 1;
nodes = (
(175,98,l),
(175,307,l),
(249,307,ls),
(285,307,o),
(302,288,o),
(302,247,cs),
(302,158,ls),
(302,117,o),
(285,98,o),
(249,98,cs)
);
},
{
closed = 1;
nodes = (
(175,397,l),
(175,592,l),
(246,592,ls),
(281,592,o),
(297,573,o),
(297,534,cs),
(297,456,ls),
(297,416,o),
(281,397,o),
(246,397,cs)
);
}
);
width = 456;
},
{
layerId = m005;
shapes = (
{
closed = 1;
nodes = (
(474,0,ls),
(596,0,o),
(673,73,o),
(673,190,cs),
(673,277,o),
(629,329,o),
(547,340,c),
(547,364,l),
(624,375,o),
(665,425,o),
(665,507,cs),
(665,619,o),
(591,690,o),
(472,690,cs),
(19,690,l),
(19,636,l),
(131,636,l),
(131,0,l)
);
},
{
closed = 1;
nodes = (
(197,54,l),
(197,326,l),
(468,326,ls),
(557,326,o),
(605,279,o),
(605,191,cs),
(605,189,ls),
(605,101,o),
(557,54,o),
(468,54,cs)
);
},
{
closed = 1;
nodes = (
(197,378,l),
(197,636,l),
(466,636,ls),
(551,636,o),
(597,591,o),
(597,508,cs),
(597,506,ls),
(597,423,o),
(551,378,o),
(466,378,cs)
);
}
);
width = 748;
},
{
layerId = "EBD6C0FC-C5AB-4FD7-AC9E-8019678F82E3";
shapes = (
{
closed = 1;
nodes = (
(456,0,ls),
(607,0,o),
(702,73,o),
(702,190,cs),
(702,276,o),
(654,325,o),
(562,333,c),
(562,371,l),
(648,379,o),
(694,426,o),
(694,507,cs),
(694,619,o),
(602,690,o),
(454,690,cs),
(15,690,l),
(15,578,l),
(91,578,l),
(91,0,l)
);
},
{
closed = 1;
nodes = (
(254,112,l),
(254,300,l),
(445,300,ls),
(507,300,o),
(535,270,o),
(535,207,cs),
(535,205,ls),
(535,141,o),
(507,112,o),
(445,112,cs)
);
},
{
closed = 1;
nodes = (
(254,404,l),
(254,578,l),
(443,578,ls),
(501,578,o),
(527,551,o),
(527,492,cs),
(527,490,ls),
(527,432,o),
(501,404,o),
(443,404,cs)
);
}
);
width = 748;
},
{
layerId = "160EFA77-7C0F-4DC0-BCB1-F97DA92D519B";
shapes = (
{
closed = 1;
nodes = (
(391,0,ls),
(504,0,o),
(571,69,o),
(571,190,cs),
(571,282,o),
(532,331,o),
(457,341,c),
(457,363,l),
(528,373,o),
(564,419,o),
(564,507,cs),
(564,624,o),
(500,690,o),
(388,690,cs),
(18,690,l),
(18,637,l),
(110,637,l),
(110,0,l)
);
},
{
closed = 1;
nodes = (
(174,53,l),
(174,327,l),
(385,327,ls),
(464,327,o),
(505,285,o),
(505,203,cs),
(505,176,ls),
(505,95,o),
(464,53,o),
(385,53,cs)
);
},
{
closed = 1;
nodes = (
(174,377,l),
(174,637,l),
(383,637,ls),
(459,637,o),
(498,597,o),
(498,519,cs),
(498,496,ls),
(498,418,o),
(459,377,o),
(383,377,cs)
);
}
);
width = 634.72414;
},
{
layerId = "F0C7097F-19D1-44A8-AB3C-28AAB548B4C8";
shapes = (
{
closed = 1;
nodes = (
(379,0,ls),
(516,0,o),
(595,68,o),
(595,191,cs),
(595,283,o),
(551,330,o),
(465,336,c),
(465,368,l),
(544,374,o),
(588,419,o),
(588,506,cs),
(588,624,o),
(510,690,o),
(376,690,cs),
(14,690,l),
(14,583,l),
(77,583,l),
(77,0,l)
);
},
{
closed = 1;
nodes = (
(223,107,l),
(223,303,l),
(369,303,ls),
(421,303,o),
(445,277,o),
(445,223,cs),
(445,187,ls),
(445,132,o),
(421,107,o),
(369,107,cs)
);
},
{
closed = 1;
nodes = (
(223,401,l),
(223,583,l),
(367,583,ls),
(416,583,o),
(438,560,o),
(438,508,cs),
(438,477,ls),
(438,426,o),
(416,401,o),
(367,401,cs)
);
}
);
width = 634.72414;
}
);
unicode = 66;
},
{
color = 4;
glyphname = C;
kernLeft = O;
kernRight = C;
lastChange = "2025-02-11 14:17:34 +0000";
layers = (
{
anchors = (
{
name = bottom;
pos = (233,0);
},
{
name = top;
pos = (233,690);
}
);
layerId = "F0CEC32E-C9EC-4613-8DDA-69A48990CD60";
shapes = (
{
closed = 1;
nodes = (
(361,-10,o),
(414,76,o),
(414,310,c),
(440,245,l),
(352,245,l),
(352,213,ls),
(352,101,o),
(317,45,o),
(233,45,cs),
(148,45,o),
(112,101,o),
(112,236,cs),
(112,454,ls),
(112,589,o),
(148,645,o),
(233,645,cs),
(317,645,o),
(352,590,o),
(352,479,cs),
(352,453,l),
(440,453,l),
(414,380,l),
(414,614,o),
(361,700,o),
(233,700,cs),
(102,700,o),
(48,611,o),
(48,345,cs),
(48,79,o),
(102,-10,o),
(233,-10,cs)
);
}
);
width = 459;
},
{
anchors = (
{
name = bottom;
pos = (235,0);
},
{
name = top;
pos = (235,690);
}
);
layerId = "FC0B0A46-298E-459F-AF16-26E3878B41A7";
shapes = (
{
closed = 1;
nodes = (
(371.997,-10,o),
(430,77,o),
(430,307,c),
(453,256,l),
(307,256,l),
(307,172,ls),
(307,126,o),
(286,96,o),
(235,96,cs),
(183,96,o),
(160,125,o),
(160,192,cs),
(160,498,ls),
(160,565,o),
(183,594,o),
(235,594,cs),
(286,594,o),
(307,565,o),
(307,520,cs),
(307,442,l),
(459,442,l),
(430,380,l),
(430,613,o),
(371.997,700,o),
(235,700,cs),
(91,700,o),
(31,610,o),
(31,345,cs),
(31,80,o),
(91,-10,o),
(235,-10,cs)
);
}
);
width = 459;
},
{
anchors = (
{
name = bottom;
pos = (407,0);
},
{
name = top;
pos = (407,690);
}
);
layerId = m005;
shapes = (
{
closed = 1;
nodes = (
(614,-10,o),
(741,118,o),
(741,325,c),
(766,245,l),
(664,245,l),
(664,245,l),
(664,146,o),
(585,48,o),
(407,48,cs),
(226,48,o),
(139,144,o),
(139,344,cs),
(139,346,ls),
(139,546,o),
(226,642,o),
(407,642,cs),
(585,642,o),
(664,547,o),
(664,453,c),
(664,453,l),
(766,453,l),
(741,365,l),
(741,572,o),
(614,700,o),
(407,700,cs),
(199,700,o),
(69,564,o),
(69,345,cs),
(69,126,o),
(199,-10,o),
(407,-10,cs)
);
}
);
width = 802;
},
{
anchors = (
{
name = bottom;
pos = (408,0);
},
{
name = top;
pos = (408,690);
}
);
layerId = "EBD6C0FC-C5AB-4FD7-AC9E-8019678F82E3";
shapes = (
{
closed = 1;
nodes = (
(629,-10,o),
(765,118,o),
(765,325,c),
(790,256,l),
(592,256,l),
(592,256,l),
(592,185,o),
(541,110,o),
(408,110,cs),
(274,110,o),
(214,183,o),
(214,342,cs),
(214,348,ls),
(214,507,o),
(274,580,o),
(408,580,cs),
(541,580,o),
(592,506,o),
(592,442,c),
(592,442,l),
(790,442,l),
(765,365,l),
(765,572,o),
(629,700,o),
(408,700,cs),
(183,700,o),
(43,564,o),
(43,345,cs),
(43,126,o),
(183,-10,o),
(408,-10,cs)
);
}
);
width = 802;
},
{
anchors = (
{
name = bottom;
pos = (340,0);
},
{
name = top;
pos = (340,690);
}
);
layerId = "160EFA77-7C0F-4DC0-BCB1-F97DA92D519B";
shapes = (
{
closed = 1;
nodes = (
(516,-10,o),
(614,102,o),
(614,319,c),
(640,245,l),
(543,245,l),
(543,233,ls),
(543,129,o),
(481,47,o),
(340,47,cs),
(196,47,o),
(129,127,o),
(129,302,cs),
(129,388,ls),
(129,563,o),
(196,643,o),
(340,643,cs),
(481,643,o),
(543,564,o),
(543,463,cs),
(543,453,l),
(640,453,l),
(614,371,l),
(614,588,o),
(516,700,o),
(340,700,cs),
(161,700,o),
(61,582,o),
(61,345,cs),
(61,108,o),
(161,-10,o),
(340,-10,cs)
);
}
);
width = 668.93966;
},
{
anchors = (
{
name = bottom;
pos = (341,0);
},
{
name = top;
pos = (341,690);
}
);
layerId = "F0C7097F-19D1-44A8-AB3C-28AAB548B4C8";
shapes = (
{
closed = 1;
nodes = (
(529,-10,o),
(635,102,o),
(635,318,c),
(659,256,l),
(481,256,l),
(481,223,ls),
(481,162,o),
(442,105,o),
(341,105,cs),
(239,105,o),
(193,161,o),
(193,284,cs),
(193,406,ls),
(193,530,o),
(239,585,o),
(341,585,cs),
(442,585,o),
(481,529,o),
(481,472,cs),
(481,442,l),
(662,442,l),
(635,371,l),
(635,588,o),
(529,700,o),
(341,700,cs),
(147,700,o),
(38,582,o),
(38,345,cs),
(38,108,o),
(147,-10,o),
(341,-10,cs)
);
}
);
width = 668.93966;
}
);
unicode = 67;
},
{
color = 4;
glyphname = D;
kernLeft = H.ss03;
kernRight = D.ss03;
lastChange = "2025-05-21 20:18:30 +0000";
layers = (
{
anchors = (
{
name = top;
pos = (227,690);
}
);
layerId = "F0CEC32E-C9EC-4613-8DDA-69A48990CD60";
shapes = (
{
closed = 1;
nodes = (
(243,0,ls),
(379,0,o),
(428,76,o),
(428,345,cs),
(428,614,o),
(379,690,o),
(243,690,cs),
(17,690,l),
(17,639,l),
(77,639,l),
(77,0,l)
);
},
{
closed = 1;
nodes = (
(136,639,l),
(239,639,ls),
(327,639,o),
(364,592,o),
(364,454,cs),
(364,236,ls),
(364,98,o),
(327,51,o),
(239,51,cs),
(136,51,l)
);
}
);
width = 477;
},
{
anchors = (
{
name = top;
pos = (227,690);
}
);
layerId = "FC0B0A46-298E-459F-AF16-26E3878B41A7";
shapes = (
{
closed = 1;
nodes = (
(247,0,ls),
(393,0,o),
(444,76,o),
(444,345,cs),
(444,612,o),
(392,690,o),
(247,690,cs),
(14,690,l),
(14,592,l),
(54,592,l),
(54,0,l)
);
},
{
closed = 1;
nodes = (
(175,592,l),
(239,592,ls),
(292,592,o),
(315,563,o),
(315,495,cs),
(315,195,ls),
(315,127,o),
(292,98,o),
(239,98,cs),
(175,98,l)
);
}
);
width = 477;
},
{
anchors = (
{
name = top;
pos = (400,690);
}
);
layerId = m005;
shapes = (
{
closed = 1;
nodes = (
(414,0,ls),
(631,0,o),
(750,122,o),
(750,345,cs),
(750,568,o),
(631,690,o),
(414,690,cs),
(18,690,l),
(18,636,l),
(130,636,l),
(130,0,l)
);
},
{
closed = 1;
nodes = (
(196,636,l),
(408,636,ls),
(591,636,o),
(680,546,o),
(680,346,cs),
(680,344,ls),
(680,144,o),
(591,54,o),
(408,54,cs),
(196,54,l)
);
}
);
width = 820;
},
{
anchors = (
{
name = top;
pos = (400,690);
}
);
layerId = "EBD6C0FC-C5AB-4FD7-AC9E-8019678F82E3";
shapes = (
{
closed = 1;
nodes = (
(419,0,ls),
(649,0,o),
(775,122,o),
(775,345,cs),
(775,568,o),
(649,690,o),
(419,690,cs),
(14,690,l),
(14,578,l),
(91,578,l),
(91,0,l)
);
},
{
closed = 1;
nodes = (
(254,578,l),
(408,578,ls),
(543,578,o),
(604,506,o),
(604,348,cs),
(604,342,ls),
(604,184,o),
(543,112,o),
(408,112,cs),
(254,112,l)
);
}
);
width = 820;
},
{
anchors = (
{
name = top;
pos = (334,690);
}
);
layerId = "160EFA77-7C0F-4DC0-BCB1-F97DA92D519B";
shapes = (
{
closed = 1;
nodes = (
(348,0,ls),
(533,0,o),
(625,104,o),
(625,345,cs),
(625,586,o),
(533,690,o),
(348,690,cs),
(18,690,l),
(18,637,l),
(109,637,l),
(109,0,l)
);
},
{
closed = 1;
nodes = (
(173,637,l),
(342,637,ls),
(489,637,o),
(557,564,o),
(557,388,cs),
(557,302,ls),
(557,126,o),
(489,53,o),
(342,53,cs),
(173,53,l)
);
}
);
width = 686.93966;
},
{
anchors = (
{
name = top;
pos = (334,690);
}
);
layerId = "F0C7097F-19D1-44A8-AB3C-28AAB548B4C8";
shapes = (
{
closed = 1;
nodes = (
(352,0,ls),
(550,0,o),
(647,104,o),
(647,345,cs),
(647,585,o),
(549,690,o),
(352,690,cs),
(14,690,l),
(14,583,l),
(77,583,l),
(77,0,l)
);
},
{
closed = 1;
nodes = (
(223,583,l),
(342,583,ls),
(446,583,o),
(492,528,o),
(492,405,cs),
(492,285,ls),
(492,162,o),
(446,107,o),
(342,107,cs),
(223,107,l)
);
}
);
width = 686.93966;
}
);
unicode = 68;
userData = {
KernOnName = D;
};
},
{
color = 4;
glyphname = Eth;
kernLeft = H.ss03;
kernRight = D.ss03;
lastChange = "2025-02-11 14:17:34 +0000";
layers = (
{
layerId = "F0CEC32E-C9EC-4613-8DDA-69A48990CD60";
shapes = (
{
closed = 1;
nodes = (
(252,328,l),
(252,376,l),
(19,376,l),
(19,328,l)
);
},
{
closed = 1;
nodes = (
(245,0,ls),
(381,0,o),
(429,76,o),
(429,345,cs),
(429,614,o),
(381,690,o),
(245,690,cs),
(19,690,l),
(19,639,l),
(78,639,l),
(78,0,l)
);
},
{
closed = 1;
nodes = (
(138,639,l),
(240,639,ls),
(328,639,o),
(366,592,o),
(366,454,cs),
(366,236,ls),
(366,98,o),
(328,51,o),
(240,51,cs),
(138,51,l)
);
}
);
userData = {
assembly = "NPUSHB[ ]	/* 39 values pushed */
56 22 72 22 102 2 104 17 4 27 30 8 60 11 11 7 26 52 12 3 31 52 7 8 118 0 1 29 29 7 19 21 0 2 11 11 2 85 0
PUSHW[ ]	/* 1 value pushed */
-34
PUSHB[ ]	/* 5 values pushed */
15 15 2 85 0
PUSHW[ ]	/* 1 value pushed */
-16
PUSHB[ ]	/* 5 values pushed */
9 9 2 85 0
PUSHW[ ]	/* 1 value pushed */
-26
PUSHB[ ]	/* 5 values pushed */
12 12 2 85 0
PUSHW[ ]	/* 1 value pushed */
-4
NPUSHB[ ]	/* 39 values pushed */
13 13 2 85 0 116 39 15 39 64 39 96 39 3 9 27 30 4 12 12 2 85 30 8 9 9 2 85 30 20 11 9 7 10 16 16 2 85 7
PUSHW[ ]	/* 1 value pushed */
-38
PUSHB[ ]	/* 5 values pushed */
15 15 2 85 7
PUSHW[ ]	/* 1 value pushed */
-22
PUSHB[ ]	/* 5 values pushed */
13 13 2 85 7
PUSHW[ ]	/* 1 value pushed */
-18
PUSHB[ ]	/* 5 values pushed */
12 12 2 85 7
PUSHW[ ]	/* 1 value pushed */
-4
NPUSHB[ ]	/* 11 values pushed */
11 11 2 85 7 8 9 9 2 85 7
PUSHW[ ]	/* 1 value pushed */
-24
PUSHB[ ]	/* 5 values pushed */
15 15 6 85 7
PUSHW[ ]	/* 1 value pushed */
-10
PUSHB[ ]	/* 5 values pushed */
13 13 6 85 7
PUSHW[ ]	/* 1 value pushed */
-15
PUSHB[ ]	/* 5 values pushed */
12 12 6 85 7
PUSHW[ ]	/* 1 value pushed */
-3
PUSHB[ ]	/* 7 values pushed */
9 9 6 85 7 108 38
SRP0[ ]	/* SetRefPoint0 */
MIRP[10110]	/* MoveIndirectRelPt */
CALL[ ]	/* CallFunction */
CALL[ ]	/* CallFunction */
CALL[ ]	/* CallFunction */
CALL[ ]	/* CallFunction */
CALL[ ]	/* CallFunction */
CALL[ ]	/* CallFunction */
CALL[ ]	/* CallFunction */
CALL[ ]	/* CallFunction */
CALL[ ]	/* CallFunction */
CALL[ ]	/* CallFunction */
SHP[0]	/* ShiftPointByLastPoint */
SHP[0]	/* ShiftPointByLastPoint */
MIRP[11101]	/* MoveIndirectRelPt */
CALL[ ]	/* CallFunction */
CALL[ ]	/* CallFunction */
SHP[0]	/* ShiftPointByLastPoint */
MDAP[1]	/* MoveDirectAbsPt */
DELTAP1[ ]	/* DeltaExceptionP1 */
SRP0[ ]	/* SetRefPoint0 */
MIRP[10110]	/* MoveIndirectRelPt */
CALL[ ]	/* CallFunction */
CALL[ ]	/* CallFunction */
CALL[ ]	/* CallFunction */
CALL[ ]	/* CallFunction */
CALL[ ]	/* CallFunction */
MIRP[01101]	/* MoveIndirectRelPt */
SRP2[ ]	/* SetRefPoint2 */
IP[ ]	/* InterpolatePts */
MDAP[1]	/* MoveDirectAbsPt */
DELTAP1[ ]	/* DeltaExceptionP1 */
SVTCA[0]	/* SetFreedomAndProjectionVectorToAxis */
MIAP[1]	/* MoveIndirectAbsPt */
MIRP[01101]	/* MoveIndirectRelPt */
MIAP[1]	/* MoveIndirectAbsPt */
MIRP[01101]	/* MoveIndirectRelPt */
SRP2[ ]	/* SetRefPoint2 */
IP[ ]	/* InterpolatePts */
MDAP[1]	/* MoveDirectAbsPt */
MIRP[11101]	/* MoveIndirectRelPt */
IP[ ]	/* InterpolatePts */
IP[ ]	/* InterpolatePts */
IUP[1]	/* InterpolateUntPts */
IUP[0]	/* InterpolateUntPts */
DELTAP1[ ]	/* DeltaExceptionP1 */";
};
width = 482;
},
{
layerId = "FC0B0A46-298E-459F-AF16-26E3878B41A7";
shapes = (
{
closed = 1;
nodes = (
(249,307,l),
(249,397,l),
(17,397,l),
(17,307,l)
);
},
{
closed = 1;
nodes = (
(255,0,ls),
(401,0,o),
(452,76,o),
(452,345,cs),
(452,612,o),
(400,690,o),
(255,690,cs),
(21,690,l),
(21,592,l),
(62,592,l),
(62,0,l)
);
},
{
closed = 1;
nodes = (
(183,592,l),
(246,592,ls),
(299,592,o),
(323,563,o),
(323,495,cs),
(323,195,ls),
(323,127,o),
(299,98,o),
(246,98,cs),
(183,98,l)
);
}
);
userData = {
assembly = "NPUSHB[ ]	/* 39 values pushed */
56 22 72 22 102 2 104 17 4 27 30 8 60 11 11 7 26 52 12 3 31 52 7 8 118 0 1 29 29 7 19 21 0 2 11 11 2 85 0
PUSHW[ ]	/* 1 value pushed */
-34
PUSHB[ ]	/* 5 values pushed */
15 15 2 85 0
PUSHW[ ]	/* 1 value pushed */
-16
PUSHB[ ]	/* 5 values pushed */
9 9 2 85 0
PUSHW[ ]	/* 1 value pushed */
-26
PUSHB[ ]	/* 5 values pushed */
12 12 2 85 0
PUSHW[ ]	/* 1 value pushed */
-4
NPUSHB[ ]	/* 39 values pushed */
13 13 2 85 0 116 39 15 39 64 39 96 39 3 9 27 30 4 12 12 2 85 30 8 9 9 2 85 30 20 11 9 7 10 16 16 2 85 7
PUSHW[ ]	/* 1 value pushed */
-38
PUSHB[ ]	/* 5 values pushed */
15 15 2 85 7
PUSHW[ ]	/* 1 value pushed */
-22
PUSHB[ ]	/* 5 values pushed */
13 13 2 85 7
PUSHW[ ]	/* 1 value pushed */
-18
PUSHB[ ]	/* 5 values pushed */
12 12 2 85 7
PUSHW[ ]	/* 1 value pushed */
-4
NPUSHB[ ]	/* 11 values pushed */
11 11 2 85 7 8 9 9 2 85 7
PUSHW[ ]	/* 1 value pushed */
-24
PUSHB[ ]	/* 5 values pushed */
15 15 6 85 7
PUSHW[ ]	/* 1 value pushed */
-10
PUSHB[ ]	/* 5 values pushed */
13 13 6 85 7
PUSHW[ ]	/* 1 value pushed */
-15
PUSHB[ ]	/* 5 values pushed */
12 12 6 85 7
PUSHW[ ]	/* 1 value pushed */
-3
PUSHB[ ]	/* 7 values pushed */
9 9 6 85 7 108 38
SRP0[ ]	/* SetRefPoint0 */
MIRP[10110]	/* MoveIndirectRelPt */
CALL[ ]	/* CallFunction */
CALL[ ]	/* CallFunction */
CALL[ ]	/* CallFunction */
CALL[ ]	/* CallFunction */
CALL[ ]	/* CallFunction */
CALL[ ]	/* CallFunction */
CALL[ ]	/* CallFunction */
CALL[ ]	/* CallFunction */
CALL[ ]	/* CallFunction */
CALL[ ]	/* CallFunction */
SHP[0]	/* ShiftPointByLastPoint */
SHP[0]	/* ShiftPointByLastPoint */
MIRP[11101]	/* MoveIndirectRelPt */
CALL[ ]	/* CallFunction */
CALL[ ]	/* CallFunction */
SHP[0]	/* ShiftPointByLastPoint */
MDAP[1]	/* MoveDirectAbsPt */
DELTAP1[ ]	/* DeltaExceptionP1 */
SRP0[ ]	/* SetRefPoint0 */
MIRP[10110]	/* MoveIndirectRelPt */
CALL[ ]	/* CallFunction */
CALL[ ]	/* CallFunction */
CALL[ ]	/* CallFunction */
CALL[ ]	/* CallFunction */
CALL[ ]	/* CallFunction */
MIRP[01101]	/* MoveIndirectRelPt */
SRP2[ ]	/* SetRefPoint2 */
IP[ ]	/* InterpolatePts */
MDAP[1]	/* MoveDirectAbsPt */
DELTAP1[ ]	/* DeltaExceptionP1 */
SVTCA[0]	/* SetFreedomAndProjectionVectorToAxis */
MIAP[1]	/* MoveIndirectAbsPt */
MIRP[01101]	/* MoveIndirectRelPt */
MIAP[1]	/* MoveIndirectAbsPt */
MIRP[01101]	/* MoveIndirectRelPt */
SRP2[ ]	/* SetRefPoint2 */
IP[ ]	/* InterpolatePts */
MDAP[1]	/* MoveDirectAbsPt */
MIRP[11101]	/* MoveIndirectRelPt */
IP[ ]	/* InterpolatePts */
IP[ ]	/* InterpolatePts */
IUP[1]	/* InterpolateUntPts */
IUP[0]	/* InterpolateUntPts */
DELTAP1[ ]	/* DeltaExceptionP1 */";
};
width = 482;
},
{
layerId = m005;
shapes = (
{
closed = 1;
nodes = (
(446,326,l),
(446,378,l),
(26,378,l),
(26,326,l)
);
},
{
closed = 1;
nodes = (
(422,0,ls),
(639,0,o),
(758,122,o),
(758,345,cs),
(758,568,o),
(639,690,o),
(422,690,cs),
(26,690,l),
(26,636,l),
(138,636,l),
(138,0,l)
);
},
{
closed = 1;
nodes = (
(204,636,l),
(416,636,ls),
(599,636,o),
(688,546,o),
(688,346,cs),
(688,344,ls),
(688,144,o),
(599,54,o),
(416,54,cs),
(204,54,l)
);
}
);
width = 842;
},
{
layerId = "EBD6C0FC-C5AB-4FD7-AC9E-8019678F82E3";
shapes = (
{
closed = 1;
nodes = (
(445,300,l),
(445,404,l),
(30,404,l),
(30,300,l)
);
},
{
closed = 1;
nodes = (
(453,0,ls),
(682,0,o),
(808,122,o),
(808,345,cs),
(808,568,o),
(682,690,o),
(453,690,cs),
(48,690,l),
(48,578,l),
(125,578,l),
(125,0,l)
);
},
{
closed = 1;
nodes = (
(288,578,l),
(442,578,ls),
(576,578,o),
(638,506,o),
(638,348,cs),
(638,342,ls),
(638,184,o),
(576,112,o),
(442,112,cs),
(288,112,l)
);
}
);
width = 842;
},
{
layerId = "160EFA77-7C0F-4DC0-BCB1-F97DA92D519B";
shapes = (
{
closed = 1;
nodes = (
(371,327,l),
(371,377,l),
(23,377,l),
(23,327,l)
);
},
{
closed = 1;
nodes = (
(353,0,ls),
(539,0,o),
(630,104,o),
(630,345,cs),
(630,586,o),
(539,690,o),
(353,690,cs),
(23,690,l),
(23,637,l),
(115,637,l),
(115,0,l)
);
},
{
closed = 1;
nodes = (
(178,637,l),
(348,637,ls),
(494,637,o),
(563,564,o),
(563,388,cs),
(563,302,ls),
(563,126,o),
(494,53,o),
(348,53,cs),
(178,53,l)
);
}
);
userData = {
assembly = "NPUSHB[ ]	/* 39 values pushed */
56 22 72 22 102 2 104 17 4 27 30 8 60 11 11 7 26 52 12 3 31 52 7 8 118 0 1 29 29 7 19 21 0 2 11 11 2 85 0
PUSHW[ ]	/* 1 value pushed */
-34
PUSHB[ ]	/* 5 values pushed */
15 15 2 85 0
PUSHW[ ]	/* 1 value pushed */
-16
PUSHB[ ]	/* 5 values pushed */
9 9 2 85 0
PUSHW[ ]	/* 1 value pushed */
-26
PUSHB[ ]	/* 5 values pushed */
12 12 2 85 0
PUSHW[ ]	/* 1 value pushed */
-4
NPUSHB[ ]	/* 39 values pushed */
13 13 2 85 0 116 39 15 39 64 39 96 39 3 9 27 30 4 12 12 2 85 30 8 9 9 2 85 30 20 11 9 7 10 16 16 2 85 7
PUSHW[ ]	/* 1 value pushed */
-38
PUSHB[ ]	/* 5 values pushed */
15 15 2 85 7
PUSHW[ ]	/* 1 value pushed */
-22
PUSHB[ ]	/* 5 values pushed */
13 13 2 85 7
PUSHW[ ]	/* 1 value pushed */
-18
PUSHB[ ]	/* 5 values pushed */
12 12 2 85 7
PUSHW[ ]	/* 1 value pushed */
-4
NPUSHB[ ]	/* 11 values pushed */
11 11 2 85 7 8 9 9 2 85 7
PUSHW[ ]	/* 1 value pushed */
-24
PUSHB[ ]	/* 5 values pushed */
15 15 6 85 7
PUSHW[ ]	/* 1 value pushed */
-10
PUSHB[ ]	/* 5 values pushed */
13 13 6 85 7
PUSHW[ ]	/* 1 value pushed */
-15
PUSHB[ ]	/* 5 values pushed */
12 12 6 85 7
PUSHW[ ]	/* 1 value pushed */
-3
PUSHB[ ]	/* 7 values pushed */
9 9 6 85 7 108 38
SRP0[ ]	/* SetRefPoint0 */
MIRP[10110]	/* MoveIndirectRelPt */
CALL[ ]	/* CallFunction */
CALL[ ]	/* CallFunction */
CALL[ ]	/* CallFunction */
CALL[ ]	/* CallFunction */
CALL[ ]	/* CallFunction */
CALL[ ]	/* CallFunction */
CALL[ ]	/* CallFunction */
CALL[ ]	/* CallFunction */
CALL[ ]	/* CallFunction */
CALL[ ]	/* CallFunction */
SHP[0]	/* ShiftPointByLastPoint */
SHP[0]	/* ShiftPointByLastPoint */
MIRP[11101]	/* MoveIndirectRelPt */
CALL[ ]	/* CallFunction */
CALL[ ]	/* CallFunction */
SHP[0]	/* ShiftPointByLastPoint */
MDAP[1]	/* MoveDirectAbsPt */
DELTAP1[ ]	/* DeltaExceptionP1 */
SRP0[ ]	/* SetRefPoint0 */
MIRP[10110]	/* MoveIndirectRelPt */
CALL[ ]	/* CallFunction */
CALL[ ]	/* CallFunction */
CALL[ ]	/* CallFunction */
CALL[ ]	/* CallFunction */
CALL[ ]	/* CallFunction */
MIRP[01101]	/* MoveIndirectRelPt */
SRP2[ ]	/* SetRefPoint2 */
IP[ ]	/* InterpolatePts */
MDAP[1]	/* MoveDirectAbsPt */
DELTAP1[ ]	/* DeltaExceptionP1 */
SVTCA[0]	/* SetFreedomAndProjectionVectorToAxis */
MIAP[1]	/* MoveIndirectAbsPt */
MIRP[01101]	/* MoveIndirectRelPt */
MIAP[1]	/* MoveIndirectAbsPt */
MIRP[01101]	/* MoveIndirectRelPt */
SRP2[ ]	/* SetRefPoint2 */
IP[ ]	/* InterpolatePts */
MDAP[1]	/* MoveDirectAbsPt */
MIRP[11101]	/* MoveIndirectRelPt */
IP[ ]	/* InterpolatePts */
IP[ ]	/* InterpolatePts */
IUP[1]	/* InterpolateUntPts */
IUP[0]	/* InterpolateUntPts */
DELTAP1[ ]	/* DeltaExceptionP1 */";
};
width = 702.34483;
},
{
layerId = "F0C7097F-19D1-44A8-AB3C-28AAB548B4C8";
shapes = (
{
closed = 1;
nodes = (
(369,303,l),
(369,401,l),
(25,401,l),
(25,303,l)
);
},
{
closed = 1;
nodes = (
(376,0,ls),
(572.991,0,o),
(670,104,o),
(670,345,cs),
(670,585,o),
(573,690,o),
(376,690,cs),
(38,690,l),
(38,583,l),
(101,583,l),
(101,0,l)
);
},
{
closed = 1;
nodes = (
(247,583,l),
(366,583,ls),
(469,583,o),
(516,528,o),
(516,405,cs),
(516,285,ls),
(516,162,o),
(469,107,o),
(366,107,cs),
(247,107,l)
);
}
);
userData = {
assembly = "NPUSHB[ ]	/* 39 values pushed */
56 22 72 22 102 2 104 17 4 27 30 8 60 11 11 7 26 52 12 3 31 52 7 8 118 0 1 29 29 7 19 21 0 2 11 11 2 85 0
PUSHW[ ]	/* 1 value pushed */
-34
PUSHB[ ]	/* 5 values pushed */
15 15 2 85 0
PUSHW[ ]	/* 1 value pushed */
-16
PUSHB[ ]	/* 5 values pushed */
9 9 2 85 0
PUSHW[ ]	/* 1 value pushed */
-26
PUSHB[ ]	/* 5 values pushed */
12 12 2 85 0
PUSHW[ ]	/* 1 value pushed */
-4
NPUSHB[ ]	/* 39 values pushed */
13 13 2 85 0 116 39 15 39 64 39 96 39 3 9 27 30 4 12 12 2 85 30 8 9 9 2 85 30 20 11 9 7 10 16 16 2 85 7
PUSHW[ ]	/* 1 value pushed */
-38
PUSHB[ ]	/* 5 values pushed */
15 15 2 85 7
PUSHW[ ]	/* 1 value pushed */
-22
PUSHB[ ]	/* 5 values pushed */
13 13 2 85 7
PUSHW[ ]	/* 1 value pushed */
-18
PUSHB[ ]	/* 5 values pushed */
12 12 2 85 7
PUSHW[ ]	/* 1 value pushed */
-4
NPUSHB[ ]	/* 11 values pushed */
11 11 2 85 7 8 9 9 2 85 7
PUSHW[ ]	/* 1 value pushed */
-24
PUSHB[ ]	/* 5 values pushed */
15 15 6 85 7
PUSHW[ ]	/* 1 value pushed */
-10
PUSHB[ ]	/* 5 values pushed */
13 13 6 85 7
PUSHW[ ]	/* 1 value pushed */
-15
PUSHB[ ]	/* 5 values pushed */
12 12 6 85 7
PUSHW[ ]	/* 1 value pushed */
-3
PUSHB[ ]	/* 7 values pushed */
9 9 6 85 7 108 38
SRP0[ ]	/* SetRefPoint0 */
MIRP[10110]	/* MoveIndirectRelPt */
CALL[ ]	/* CallFunction */
CALL[ ]	/* CallFunction */
CALL[ ]	/* CallFunction */
CALL[ ]	/* CallFunction */
CALL[ ]	/* CallFunction */
CALL[ ]	/* CallFunction */
CALL[ ]	/* CallFunction */
CALL[ ]	/* CallFunction */
CALL[ ]	/* CallFunction */
CALL[ ]	/* CallFunction */
SHP[0]	/* ShiftPointByLastPoint */
SHP[0]	/* ShiftPointByLastPoint */
MIRP[11101]	/* MoveIndirectRelPt */
CALL[ ]	/* CallFunction */
CALL[ ]	/* CallFunction */
SHP[0]	/* ShiftPointByLastPoint */
MDAP[1]	/* MoveDirectAbsPt */
DELTAP1[ ]	/* DeltaExceptionP1 */
SRP0[ ]	/* SetRefPoint0 */
MIRP[10110]	/* MoveIndirectRelPt */
CALL[ ]	/* CallFunction */
CALL[ ]	/* CallFunction */
CALL[ ]	/* CallFunction */
CALL[ ]	/* CallFunction */
CALL[ ]	/* CallFunction */
MIRP[01101]	/* MoveIndirectRelPt */
SRP2[ ]	/* SetRefPoint2 */
IP[ ]	/* InterpolatePts */
MDAP[1]	/* MoveDirectAbsPt */
DELTAP1[ ]	/* DeltaExceptionP1 */
SVTCA[0]	/* SetFreedomAndProjectionVectorToAxis */
MIAP[1]	/* MoveIndirectAbsPt */
MIRP[01101]	/* MoveIndirectRelPt */
MIAP[1]	/* MoveIndirectAbsPt */
MIRP[01101]	/* MoveIndirectRelPt */
SRP2[ ]	/* SetRefPoint2 */
IP[ ]	/* InterpolatePts */
MDAP[1]	/* MoveDirectAbsPt */
MIRP[11101]	/* MoveIndirectRelPt */
IP[ ]	/* InterpolatePts */
IP[ ]	/* InterpolatePts */
IUP[1]	/* InterpolateUntPts */
IUP[0]	/* InterpolateUntPts */
DELTAP1[ ]	/* DeltaExceptionP1 */";
};
width = 702.34483;
}
);
note = Eth;
unicode = 208;
},
{
color = 4;
glyphname = E;
kernLeft = H.ss03;
kernRight = E.ss03;
lastChange = "2025-02-11 14:17:34 +0000";
layers = (
{
anchors = (
{
name = ogonek;
pos = (379,0);
},
{
name = top;
pos = (213,690);
}
);
layerId = "F0CEC32E-C9EC-4613-8DDA-69A48990CD60";
shapes = (
{
closed = 1;
nodes = (
(375,494,l),
(375,690,l),
(17,690,l),
(17,639,l),
(76,639,l),
(76,0,l),
(379,0,l),
(379,200,l),
(328,200,l),
(328,51,l),
(136,51,l),
(136,328,l),
(304,328,l),
(304,376,l),
(136,376,l),
(136,639,l),
(324,639,l),
(324,494,l)
);
}
);
width = 427;
},
{
anchors = (
{
name = ogonek;
pos = (397,0);
},
{
name = top;
pos = (213,690);
}
);
layerId = "FC0B0A46-298E-459F-AF16-26E3878B41A7";
shapes = (
{
closed = 1;
nodes = (
(393,483,l),
(393,690,l),
(14,690,l),
(14,592,l),
(54,592,l),
(54,0,l),
(397,0,l),
(397,211,l),
(294,211,l),
(294,98,l),
(176,98,l),
(176,307,l),
(315,307,l),
(315,397,l),
(176,397,l),
(176,592,l),
(290,592,l),
(290,483,l)
);
}
);
width = 427;
},
{
anchors = (
{
name = ogonek;
pos = (647,0);
},
{
name = top;
pos = (363,690);
}
);
layerId = m005;
shapes = (
{
closed = 1;
nodes = (
(643,494,l),
(643,690,l),
(17,690,l),
(17,636,l),
(129,636,l),
(129,0,l),
(647,0,l),
(647,200,l),
(589,200,l),
(589,54,l),
(195,54,l),
(195,326,l),
(531,326,l),
(531,378,l),
(195,378,l),
(195,636,l),
(585,636,l),
(585,494,l)
);
}
);
width = 720;
},
{
anchors = (
{
name = ogonek;
pos = (666,0);
},
{
name = top;
pos = (365,690);
}
);
layerId = "EBD6C0FC-C5AB-4FD7-AC9E-8019678F82E3";
shapes = (
{
closed = 1;
nodes = (
(662,483,l),
(662,690,l),
(15,690,l),
(15,578,l),
(92,578,l),
(92,0,l),
(666,0,l),
(666,211,l),
(533,211,l),
(533,112,l),
(255,112,l),
(255,300,l),
(543,300,l),
(543,404,l),
(255,404,l),
(255,578,l),
(529,578,l),
(529,483,l)
);
}
);
width = 720;
},
{
anchors = (
{
name = ogonek;
pos = (543,0);
},
{
name = top;
pos = (305,690);
}
);
layerId = "160EFA77-7C0F-4DC0-BCB1-F97DA92D519B";
shapes = (
{
closed = 1;
nodes = (
(539,494,l),
(539,690,l),
(17,690,l),
(17,637,l),
(108,637,l),
(108,0,l),
(543,0,l),
(543,200,l),
(488,200,l),
(488,53,l),
(172,53,l),
(172,327,l),
(443,327,l),
(443,377,l),
(172,377,l),
(172,637,l),
(484,637,l),
(484,494,l)
);
}
);
width = 606.33621;
},
{
anchors = (
{
name = ogonek;
pos = (562,0);
},
{
name = top;
pos = (306,690);
}
);
layerId = "F0C7097F-19D1-44A8-AB3C-28AAB548B4C8";
shapes = (
{
closed = 1;
nodes = (
(558,483,l),
(558,690,l),
(15,690,l),
(15,583,l),
(77,583,l),
(77,0,l),
(562,0,l),
(562,211,l),
(440,211,l),
(440,107,l),
(224,107,l),
(224,303,l),
(455,303,l),
(455,401,l),
(224,401,l),
(224,583,l),
(436,583,l),
(436,483,l)
);
}
);
width = 606.33621;
}
);
unicode = 69;
userData = {
KernOnName = E;
};
},
{
color = 4;
glyphname = F;
kernLeft = H.ss03;
kernRight = F.ss03;
lastChange = "2025-02-11 14:17:34 +0000";
layers = (
{
layerId = "F0CEC32E-C9EC-4613-8DDA-69A48990CD60";
shapes = (
{
closed = 1;
nodes = (
(137,0,l),
(137,328,l),
(304,328,l),
(304,376,l),
(137,376,l),
(137,639,l),
(324,639,l),
(324,494,l),
(376,494,l),
(376,690,l),
(18,690,l),
(18,639,l),
(77,639,l),
(77,0,l)
);
}
);
width = 413;
},
{
layerId = "FC0B0A46-298E-459F-AF16-26E3878B41A7";
shapes = (
{
closed = 1;
nodes = (
(175,0,l),
(175,307,l),
(314,307,l),
(314,397,l),
(175,397,l),
(175,592,l),
(290,592,l),
(290,483,l),
(393,483,l),
(393,690,l),
(13,690,l),
(13,592,l),
(54,592,l),
(54.01,0,l)
);
}
);
width = 413;
},
{
layerId = m005;
shapes = (
{
closed = 1;
nodes = (
(194,0,l),
(194,326,l),
(528,326,l),
(528,378,l),
(194,378,l),
(194,636,l),
(584,636,l),
(584,494,l),
(642,494,l),
(642,690,l),
(16,690,l),
(16,636,l),
(128,636,l),
(128,0,l)
);
}
);
width = 696;
},
{
layerId = "EBD6C0FC-C5AB-4FD7-AC9E-8019678F82E3";
shapes = (
{
closed = 1;
nodes = (
(256,0,l),
(256,300,l),
(544,300,l),
(544,404,l),
(256,404,l),
(256,578,l),
(529,578,l),
(529,483,l),
(663,483,l),
(663,690,l),
(16,690,l),
(16,578,l),
(93,578,l),
(93,0,l)
);
}
);
width = 696;
},
{
layerId = "160EFA77-7C0F-4DC0-BCB1-F97DA92D519B";
shapes = (
{
closed = 1;
nodes = (
(172,0,l),
(172,327,l),
(441,327,l),
(441,377,l),
(172,377,l),
(172,637,l),
(483,637,l),
(483,494,l),
(539,494,l),
(539,690,l),
(17,690,l),
(17,637,l),
(108,637,l),
(108,0,l)
);
}
);
width = 586.21552;
},
{
layerId = "F0C7097F-19D1-44A8-AB3C-28AAB548B4C8";
shapes = (
{
closed = 1;
nodes = (
(225,0,l),
(225,303,l),
(455,303,l),
(455,401,l),
(225,401,l),
(225,583,l),
(436,583,l),
(436,483,l),
(558,483,l),
(558,690,l),
(15,690,l),
(15,583,l),
(78,583,l),
(78,0,l)
);
}
);
width = 586.21552;
}
);
unicode = 70;
userData = {
KernOnName = F;
};
},
{
color = 4;
glyphname = G;
kernLeft = O;
kernRight = G;
lastChange = "2025-05-27 20:32:17 +0000";
layers = (
{
anchors = (
{
name = bottom;
pos = (233,0);
},
{
name = top;
pos = (232,690);
}
);
layerId = "F0CEC32E-C9EC-4613-8DDA-69A48990CD60";
shapes = (
{
closed = 1;
nodes = (
(285,-10,o),
(327,20,o),
(349,83,c),
(367,83,l),
(367,0,l),
(413,0,l),
(413,349,l),
(236,349,l),
(236,300,l),
(365,300,l),
(355,315,l),
(355,226,ls),
(355,101,o),
(319,45,o),
(233,45,cs),
(148,45,o),
(111,101,o),
(111,237,cs),
(111,454,ls),
(111,589,o),
(147,645,o),
(232,645,cs),
(317,645,o),
(349,589,o),
(349,484,cs),
(349,477,l),
(439,477,l),
(413,380,l),
(413,614,o),
(360,700,o),
(232,700,cs),
(102,700,o),
(47,611,o),
(47,345,cs),
(47,83,o),
(102,-10,o),
(219,-10,cs)
);
}
);
width = 472;
},
{
anchors = (
{
name = bottom;
pos = (237,0);
},
{
name = top;
pos = (235,690);
}
);
layerId = "FC0B0A46-298E-459F-AF16-26E3878B41A7";
shapes = (
{
closed = 1;
nodes = (
(261,-10,o),
(300,30,o),
(308,108,c),
(332,108,l),
(332,0,l),
(430,0,l),
(430,351,l),
(239,350.995,l),
(239,260,l),
(325,260,l),
(313,312,l),
(313,185,ls),
(313,126,o),
(289,95,o),
(237,95,cs),
(184,95,o),
(160,125,o),
(160,193,cs),
(160,498,ls),
(160,565,o),
(183,594,o),
(235,594,cs),
(286,594,o),
(306,564,o),
(306,525,cs),
(306,466,l),
(459,466,l),
(430,380,l),
(430,613,o),
(372,700,o),
(235,700,cs),
(91,700,o),
(32,610,o),
(32,345,cs),
(32,83,o),
(87,-10,o),
(193,-10,cs)
);
}
);
width = 472;
},
{
anchors = (
{
name = bottom;
pos = (408,0);
},
{
name = top;
pos = (407,690);
}
);
layerId = m005;
shapes = (
{
closed = 1;
nodes = (
(526,-10,o),
(615,37,o),
(665,128,c),
(689,128,l),
(689,0,l),
(741,0,l),
(741,349,l),
(412,349,l),
(412,297,l),
(687,297,l),
(677,308,l),
(677,298,ls),
(677,144,o),
(590,48,o),
(408,48,cs),
(226,48,o),
(139,143,o),
(139,344,cs),
(139,346,ls),
(139,546,o),
(226,642,o),
(407,642,cs),
(587,642,o),
(658,545,o),
(658,477,c),
(658,477,l),
(766,477,l),
(741,365,l),
(741,572,o),
(614,700,o),
(407,700,cs),
(199,700,o),
(69,564,o),
(69,345,cs),
(69,126,o),
(195,-10,o),
(404,-10,cs)
);
}
);
width = 832;
},
{
anchors = (
{
name = bottom;
pos = (411,0);
},
{
name = top;
pos = (409,690);
}
);
layerId = "EBD6C0FC-C5AB-4FD7-AC9E-8019678F82E3";
shapes = (
{
closed = 1;
nodes = (
(486,-10,o),
(560,42,o),
(588,146,c),
(626,146,l),
(626,0,l),
(766,0,l),
(766,358,l),
(415,358,l),
(415,253,l),
(625,253,l),
(607,320,l),
(607,308,ls),
(607,183,o),
(545,106,o),
(411,106,cs),
(276,106,o),
(215,180,o),
(215,342,cs),
(215,348,ls),
(215,507,o),
(275,580,o),
(409,580,cs),
(542,580,o),
(588,502,o),
(588,466,c),
(588,466,l),
(791,466,l),
(766,365,l),
(766,572,o),
(630,700,o),
(409,700,cs),
(184,700,o),
(44,564,o),
(44,345,cs),
(44,126,o),
(186,-10,o),
(371,-10,cs)
);
}
);
width = 832;
},
{
anchors = (
{
name = bottom;
pos = (340,0);
},
{
name = top;
pos = (339,690);
}
);
layerId = "160EFA77-7C0F-4DC0-BCB1-F97DA92D519B";
shapes = (
{
closed = 1;
nodes = (
(433,-10,o),
(503,30,o),
(542,111,c),
(564,111,l),
(564,0,l),
(614,0,l),
(614,349,l),
(344,349,l),
(344,298,l),
(562,298,l),
(552,311,l),
(552,270,ls),
(552,127,o),
(485,47,o),
(340,47,cs),
(196,47,o),
(128,127,o),
(128,302,cs),
(128,388,ls),
(128,563,o),
(195,643,o),
(339,643,cs),
(482,643,o),
(538,562,o),
(538,480,cs),
(538,477,l),
(639,477,l),
(614,371,l),
(614,588,o),
(515,700,o),
(339,700,cs),
(161,700,o),
(60,582,o),
(60,345,cs),
(60,109,o),
(159,-10,o),
(332,-10,cs)
);
}
);
width = 692.34483;
},
{
anchors = (
{
name = bottom;
pos = (344,0);
},
{
name = top;
pos = (342,690);
}
);
layerId = "F0C7097F-19D1-44A8-AB3C-28AAB548B4C8";
shapes = (
{
closed = 1;
nodes = (
(399,-10,o),
(459,37,o),
(479,131,c),
(512,131,l),
(512,0,l),
(636,0,l),
(636,355,l),
(347,355,l),
(347,256,l),
(509,256,l),
(493,317,l),
(493,260,ls),
(493,161,o),
(446,102,o),
(344,102,cs),
(240,102,o),
(194,159,o),
(194,284,cs),
(194,406,ls),
(194,530,o),
(239,585,o),
(342,585,cs),
(443,585,o),
(479,526,o),
(479,489,cs),
(479,466,l),
(662,466,l),
(636,371,l),
(636,588,o),
(530,700,o),
(342,700,cs),
(148,700,o),
(39,582,o),
(39,345,cs),
(39,109,o),
(148,-10,o),
(302,-10,cs)
);
}
);
width = 692.34483;
}
);
unicode = 71;
},
{
color = 4;
glyphname = H;
kernLeft = H.ss03;
kernRight = H.ss03;
lastChange = "2025-02-11 14:17:34 +0000";
layers = (
{
layerId = "F0CEC32E-C9EC-4613-8DDA-69A48990CD60";
shapes = (
{
closed = 1;
nodes = (
(407,0,l),
(407,690,l),
(347,690,l),
(347,0,l)
);
},
{
closed = 1;
nodes = (
(136,0,l),
(136,690,l),
(17,690,l),
(17,639,l),
(77,639,l),
(77,0,l)
);
},
{
closed = 1;
nodes = (
(377,328,l),
(377,376,l),
(103,376,l),
(103,328,l)
);
}
);
width = 478;
},
{
layerId = "FC0B0A46-298E-459F-AF16-26E3878B41A7";
shapes = (
{
closed = 1;
nodes = (
(429,0,l),
(429,690,l),
(308,690,l),
(308,0,l)
);
},
{
closed = 1;
nodes = (
(175,0,l),
(175,690,l),
(14,690,l),
(14,592,l),
(54,592,l),
(54,0,l)
);
},
{
closed = 1;
nodes = (
(369,305,l),
(369,399,l),
(105,399,l),
(105,305,l)
);
}
);
width = 478;
},
{
layerId = m005;
shapes = (
{
closed = 1;
nodes = (
(686,0,l),
(686,690,l),
(620,690,l),
(620,0,l)
);
},
{
closed = 1;
nodes = (
(196,0,l),
(196,690,l),
(18,690,l),
(18,636,l),
(130,636,l),
(130,0,l)
);
},
{
closed = 1;
nodes = (
(652,326,l),
(652,378,l),
(163,378,l),
(163,326,l)
);
}
);
width = 806;
},
{
layerId = "EBD6C0FC-C5AB-4FD7-AC9E-8019678F82E3";
shapes = (
{
closed = 1;
nodes = (
(725,0,l),
(725,690,l),
(562,690,l),
(562,0,l)
);
},
{
closed = 1;
nodes = (
(254,0,l),
(254,690,l),
(14,690,l),
(14,578,l),
(91,578,l),
(91,0,l)
);
},
{
closed = 1;
nodes = (
(607,298,l),
(607,406,l),
(208,406,l),
(208,298,l)
);
}
);
width = 806;
},
{
layerId = "160EFA77-7C0F-4DC0-BCB1-F97DA92D519B";
shapes = (
{
closed = 1;
nodes = (
(578,0,l),
(578,690,l),
(514,690,l),
(514,0,l)
);
},
{
closed = 1;
nodes = (
(173,0,l),
(173,690,l),
(18,690,l),
(18,637,l),
(109,637,l),
(109,0,l)
);
},
{
closed = 1;
nodes = (
(545,327,l),
(545,377,l),
(140,377,l),
(140,327,l)
);
}
);
width = 678.75862;
},
{
layerId = "F0C7097F-19D1-44A8-AB3C-28AAB548B4C8";
shapes = (
{
closed = 1;
nodes = (
(610,0,l),
(610,690,l),
(463,690,l),
(463,0,l)
);
},
{
closed = 1;
nodes = (
(223,0,l),
(223,690,l),
(14,690,l),
(14,583,l),
(77,583,l),
(77,0,l)
);
},
{
closed = 1;
nodes = (
(515,301,l),
(515,403,l),
(168,403,l),
(168,301,l)
);
}
);
width = 678.75862;
}
);
unicode = 72;
userData = {
KernOnName = H;
};
},
{
color = 4;
glyphname = Hbar;
kernLeft = H.ss03;
kernRight = H.ss03;
lastChange = "2025-05-29 19:09:01 +0000";
layers = (
{
layerId = "F0CEC32E-C9EC-4613-8DDA-69A48990CD60";
shapes = (
{
closed = 1;
nodes = (
(409,0,l),
(409,690,l),
(349,690,l),
(349,0,l)
);
},
{
closed = 1;
nodes = (
(138,0,l),
(138,690,l),
(78,690,l),
(78,0,l)
);
},
{
closed = 1;
nodes = (
(379,328,l),
(379,376,l),
(105,376,l),
(105,328,l)
);
},
{
closed = 1;
nodes = (
(468,515,l),
(468,561,l),
(19,561,l),
(19,515,l)
);
}
);
width = 487;
},
{
layerId = "FC0B0A46-298E-459F-AF16-26E3878B41A7";
shapes = (
{
closed = 1;
nodes = (
(431,0,l),
(431,690,l),
(310,690,l),
(310,0,l)
);
},
{
closed = 1;
nodes = (
(177,0,l),
(177,690,l),
(56,690,l),
(56,0,l)
);
},
{
closed = 1;
nodes = (
(371,305,l),
(371,399,l),
(107,399,l),
(107,305,l)
);
},
{
closed = 1;
nodes = (
(476,507,l),
(476,593,l),
(11,593,l),
(11,507,l)
);
}
);
width = 487;
},
{
background = {
shapes = (
{
pos = (14,0);
ref = H.ss03;
}
);
};
layerId = "160EFA77-7C0F-4DC0-BCB1-F97DA92D519B";
shapes = (
{
closed = 1;
nodes = (
(583,0,l),
(583,690,l),
(519,690,l),
(519,0,l)
);
},
{
closed = 1;
nodes = (
(179,0,l),
(179,690,l),
(115,690,l),
(115,0,l)
);
},
{
closed = 1;
nodes = (
(550,327,l),
(550,377,l),
(146,377,l),
(146,327,l)
);
},
{
closed = 1;
nodes = (
(675,514,l),
(675,562,l),
(23,562,l),
(23,514,l)
);
}
);
width = 698;
},
{
layerId = "F0C7097F-19D1-44A8-AB3C-28AAB548B4C8";
shapes = (
{
closed = 1;
nodes = (
(615,0,l),
(615,690,l),
(469,690,l),
(469,0,l)
);
},
{
closed = 1;
nodes = (
(229,0,l),
(229,690,l),
(83,690,l),
(83,0,l)
);
},
{
closed = 1;
nodes = (
(521,301,l),
(521,403,l),
(174,403,l),
(174,301,l)
);
},
{
closed = 1;
nodes = (
(691,503,l),
(691,597,l),
(7,597,l),
(7,503,l)
);
}
);
width = 698;
},
{
layerId = m005;
shapes = (
{
closed = 1;
nodes = (
(694,0,l),
(694,690,l),
(628,690,l),
(628,0,l)
);
},
{
closed = 1;
nodes = (
(204,0,l),
(204,690,l),
(138,690,l),
(138,0,l)
);
},
{
closed = 1;
nodes = (
(660,326,l),
(660,378,l),
(171,378,l),
(171,326,l)
);
},
{
closed = 1;
nodes = (
(806,513,l),
(806,563,l),
(26,563,l),
(26,513,l)
);
}
);
width = 832;
},
{
layerId = "EBD6C0FC-C5AB-4FD7-AC9E-8019678F82E3";
shapes = (
{
closed = 1;
nodes = (
(733,0,l),
(733,690,l),
(570,690,l),
(570,0,l)
);
},
{
closed = 1;
nodes = (
(262,0,l),
(262,690,l),
(99,690,l),
(99,0,l)
);
},
{
closed = 1;
nodes = (
(615,298,l),
(615,406,l),
(216,406,l),
(216,298,l)
);
},
{
closed = 1;
nodes = (
(828,500,l),
(828,600,l),
(4,600,l),
(4,500,l)
);
}
);
width = 832;
},
{
associatedMasterId = "F0C7097F-19D1-44A8-AB3C-28AAB548B4C8";
background = {
shapes = (
{
ref = H.ss03;
}
);
};
layerId = "BEF2A151-073F-453D-B046-AF7996723B2C";
name = "15 May 25 at 18:22";
shapes = (
{
closed = 1;
nodes = (
(607,0,l),
(607,690,l),
(460,690,l),
(460,0,l)
);
},
{
closed = 1;
nodes = (
(220,0,l),
(220,690,l),
(74,690,l),
(74,0,l)
);
},
{
closed = 1;
nodes = (
(512,301,l),
(512,403,l),
(165,403,l),
(165,301,l)
);
},
{
closed = 1;
nodes = (
(681,495,l),
(681,557,l),
(0,557,l),
(0,495,l)
);
}
);
width = 681;
},
{
associatedMasterId = "160EFA77-7C0F-4DC0-BCB1-F97DA92D519B";
background = {
shapes = (
{
pos = (7,0);
ref = H.ss03;
}
);
};
layerId = "27CDE99C-61CB-409D-898F-F4AFE41178CF";
name = "15 May 25 at 18:29";
shapes = (
{
closed = 1;
nodes = (
(578,0,l),
(578,690,l),
(514,690,l),
(514,0,l)
);
},
{
closed = 1;
nodes = (
(173,0,l),
(173,690,l),
(109,690,l),
(109,0,l)
);
},
{
closed = 1;
nodes = (
(545,327,l),
(545,377,l),
(140,377,l),
(140,327,l)
);
},
{
closed = 1;
nodes = (
(651,498,l),
(651,539,l),
(36,539,l),
(36,498,l)
);
}
);
width = 679;
},
{
associatedMasterId = "FC0B0A46-298E-459F-AF16-26E3878B41A7";
layerId = "1944A577-F3E7-4B21-9F84-6D790BEE9596";
name = "15 May 25 at 18:29";
shapes = (
{
closed = 1;
nodes = (
(429,0,l),
(429,690,l),
(308,690,l),
(308,0,l)
);
},
{
closed = 1;
nodes = (
(175,0,l),
(175,690,l),
(54,690,l),
(54,0,l)
);
},
{
closed = 1;
nodes = (
(369,305,l),
(369,399,l),
(105,399,l),
(105,305,l)
);
},
{
closed = 1;
nodes = (
(478,495,l),
(478,555,l),
(5,555,l),
(5,495,l)
);
}
);
width = 478;
},
{
associatedMasterId = "F0CEC32E-C9EC-4613-8DDA-69A48990CD60";
layerId = "DED56DBF-711C-42D2-8631-F9D302C0111F";
name = "15 May 25 at 18:29";
shapes = (
{
closed = 1;
nodes = (
(405,0,l),
(405,690,l),
(345,690,l),
(345,0,l)
);
},
{
closed = 1;
nodes = (
(134,0,l),
(134,690,l),
(75,690,l),
(75,0,l)
);
},
{
closed = 1;
nodes = (
(375,328,l),
(375,376,l),
(101,376,l),
(101,328,l)
);
},
{
closed = 1;
nodes = (
(470,497,l),
(470,537,l),
(10,537,l),
(10,497,l)
);
}
);
width = 480;
},
{
associatedMasterId = m005;
layerId = "5F5C8653-A413-420C-A9A7-DDEDFF23ED22";
name = "15 May 25 at 18:37";
shapes = (
{
closed = 1;
nodes = (
(686,0,l),
(686,690,l),
(620,690,l),
(620,0,l)
);
},
{
closed = 1;
nodes = (
(196,0,l),
(196,690,l),
(130,690,l),
(130,0,l)
);
},
{
closed = 1;
nodes = (
(652,326,l),
(652,378,l),
(163,378,l),
(163,326,l)
);
},
{
closed = 1;
nodes = (
(761,485,l),
(761,532,l),
(55,532,l),
(55,485,l)
);
}
);
width = 806;
},
{
associatedMasterId = "EBD6C0FC-C5AB-4FD7-AC9E-8019678F82E3";
layerId = "86578DB5-2BE4-491C-B176-D0ED72FE03BC";
name = "15 May 25 at 18:37";
shapes = (
{
closed = 1;
nodes = (
(724,0,l),
(724,690,l),
(561,690,l),
(561,0,l)
);
},
{
closed = 1;
nodes = (
(253,0,l),
(253,690,l),
(90,690,l),
(90,0,l)
);
},
{
closed = 1;
nodes = (
(606,298,l),
(606,406,l),
(207,406,l),
(207,298,l)
);
},
{
closed = 1;
nodes = (
(806,495,l),
(806,558,l),
(8,558,l),
(8,495,l)
);
}
);
width = 806;
}
);
unicode = 294;
},
{
color = 4;
glyphname = I;
kernLeft = I;
kernRight = I;
lastChange = "2025-05-21 20:45:15 +0000";
layers = (
{
anchors = (
{
name = ogonek;
pos = (232,0);
},
{
name = top;
pos = (133,690);
}
);
layerId = "F0CEC32E-C9EC-4613-8DDA-69A48990CD60";
shapes = (
{
closed = 1;
nodes = (
(232,0,l),
(232,51,l),
(163,51,l),
(163,639,l),
(232,639,l),
(232,690,l),
(34,690,l),
(34,639,l),
(103,639,l),
(103,51,l),
(34,51,l),
(34,0,l)
);
}
);
width = 266;
},
{
anchors = (
{
name = ogonek;
pos = (235,0);
},
{
name = top;
pos = (133,690);
}
);
layerId = "FC0B0A46-298E-459F-AF16-26E3878B41A7";
shapes = (
{
closed = 1;
nodes = (
(235,0,l),
(235,98,l),
(194,98,l),
(194,592,l),
(235,592,l),
(235,690,l),
(31,690,l),
(31,592,l),
(73,592,l),
(73,98,l),
(31,98,l),
(31,0,l)
);
}
);
width = 266;
},
{
anchors = (
{
name = ogonek;
pos = (364,0);
},
{
name = top;
pos = (208,690);
}
);
layerId = m005;
shapes = (
{
closed = 1;
nodes = (
(364,0,l),
(364,54,l),
(241,54,l),
(241,636,l),
(364,636,l),
(364,690,l),
(52,690,l),
(52,636,l),
(175,636,l),
(175,54,l),
(52,54,l),
(52,0,l)
);
}
);
width = 417;
},
{
anchors = (
{
name = ogonek;
pos = (368,0);
},
{
name = top;
pos = (209,690);
}
);
layerId = "EBD6C0FC-C5AB-4FD7-AC9E-8019678F82E3";
shapes = (
{
closed = 1;
nodes = (
(368,0,l),
(368,112,l),
(290,112,l),
(290,578,l),
(368,578,l),
(368,690,l),
(49,690,l),
(49,578,l),
(127,578,l),
(127,112,l),
(49,112,l),
(49,0,l)
);
}
);
width = 417;
},
{
anchors = (
{
name = ogonek;
pos = (313,0);
},
{
name = top;
pos = (179,690);
}
);
layerId = "160EFA77-7C0F-4DC0-BCB1-F97DA92D519B";
shapes = (
{
closed = 1;
nodes = (
(313,0,l),
(313,53,l),
(211,53,l),
(211,637,l),
(313,637,l),
(313,690,l),
(45,690,l),
(45,637,l),
(147,637,l),
(147,53,l),
(45,53,l),
(45,0,l)
);
}
);
width = 358.42241;
},
{
anchors = (
{
name = ogonek;
pos = (316,0);
},
{
name = top;
pos = (180,690);
}
);
layerId = "F0C7097F-19D1-44A8-AB3C-28AAB548B4C8";
shapes = (
{
closed = 1;
nodes = (
(316,0,l),
(316,107,l),
(253,107,l),
(253,583,l),
(316,583,l),
(316,690,l),
(42,690,l),
(42,583,l),
(106,583,l),
(106,107,l),
(42,107,l),
(42,0,l)
);
}
);
width = 358.42241;
}
);
unicode = 73;
userData = {
KernOnName = I;
};
},
{
color = 4;
glyphname = IJ;
kernRight = J;
lastChange = "2025-02-11 14:17:34 +0000";
layers = (
{
layerId = "F0CEC32E-C9EC-4613-8DDA-69A48990CD60";
shapes = (
{
closed = 1;
nodes = (
(384,-10,o),
(427,66,o),
(427,284,cs),
(427,690,l),
(367,690,l),
(367,212,ls),
(367,92,o),
(339,45,o),
(259,45,cs),
(181,45,o),
(151,92,o),
(151,210,cs),
(151,277,l),
(91,277,l),
(91,268,ls),
(91,66,o),
(136,-10,o),
(259,-10,cs)
);
},
{
closed = 1;
nodes = (
(208,333,l),
(208,382,l),
(149,382,l),
(149,639,l),
(208,639,l),
(208,690,l),
(34,690,l),
(34,639,l),
(93,639,l),
(93,382,l),
(34,382,l),
(34,333,l)
);
},
{
closed = 1;
nodes = (
(388,639,l),
(388,690,l),
(260,690,l),
(260,639,l)
);
}
);
width = 490;
},
{
layerId = "FC0B0A46-298E-459F-AF16-26E3878B41A7";
shapes = (
{
closed = 1;
nodes = (
(390,-10,o),
(443,63,o),
(443,264,cs),
(443,690,l),
(321,690,l),
(321,179,ls),
(321,121,o),
(300,96,o),
(255,96,cs),
(209,96,o),
(188,121,o),
(188,179,cs),
(188,288,l),
(67,288,l),
(67,262,ls),
(67,63,o),
(120,-10,o),
(255,-10,cs)
);
},
{
closed = 1;
nodes = (
(216,322,l),
(216,417,l),
(183,417,l),
(183,592,l),
(216,592,l),
(216,690,l),
(39,690,l),
(39,592,l),
(72,592,l),
(72,417,l),
(39,417,l),
(39,322,l)
);
},
{
closed = 1;
nodes = (
(408,592,l),
(408,690,l),
(266,690,l),
(266,592,l)
);
}
);
width = 490;
},
{
layerId = m005;
shapes = (
{
closed = 1;
nodes = (
(645,-10,o),
(736,91,o),
(736,280,cs),
(736,690,l),
(670,690,l),
(670,280,ls),
(670,120,o),
(610,48,o),
(446,48,cs),
(292,48,o),
(222,120,o),
(222,273,cs),
(222,277,l),
(156,277,l),
(156,273,ls),
(156,91,o),
(257,-10,o),
(446,-10,cs)
);
},
{
closed = 1;
nodes = (
(327,333,l),
(327,385,l),
(220,385,l),
(220,636,l),
(327,636,l),
(327,690,l),
(51,690,l),
(51,636,l),
(158,636,l),
(158,385,l),
(51,385,l),
(51,333,l)
);
},
{
closed = 1;
nodes = (
(698,636,l),
(698,690,l),
(452,690,l),
(452,636,l)
);
}
);
width = 838;
},
{
layerId = "EBD6C0FC-C5AB-4FD7-AC9E-8019678F82E3";
shapes = (
{
closed = 1;
nodes = (
(648,-10,o),
(758,94,o),
(758,284,cs),
(758,690,l),
(595,690,l),
(595,284,ls),
(595,165,o),
(547,110,o),
(440,110,cs),
(334,110,o),
(284,165,o),
(284,283,cs),
(284,288,l),
(122,288,l),
(122,283,ls),
(122,94,o),
(233,-10,o),
(440,-10,cs)
);
},
{
closed = 1;
nodes = (
(343,322,l),
(343,431,l),
(279,431,l),
(279,578,l),
(343,578,l),
(343,690,l),
(63,690,l),
(63,578,l),
(127,578,l),
(127,431,l),
(63,431,l),
(63,322,l)
);
},
{
closed = 1;
nodes = (
(646,578,l),
(646,690,l),
(463,690,l),
(463,578,l)
);
}
);
width = 838;
},
{
layerId = "160EFA77-7C0F-4DC0-BCB1-F97DA92D519B";
shapes = (
{
closed = 1;
nodes = (
(544,-10,o),
(616,81,o),
(616,282,cs),
(616,690,l),
(552,690,l),
(552,254,ls),
(552,109,o),
(505,47,o),
(373,47,cs),
(249,47,o),
(194,109,o),
(194,249,cs),
(194,277,l),
(131,277,l),
(131,271,ls),
(131,81,o),
(210,-10,o),
(373,-10,cs)
);
},
{
closed = 1;
nodes = (
(281,333,l),
(281,384,l),
(192,384,l),
(192,637,l),
(281,637,l),
(281,690,l),
(44,690,l),
(44,637,l),
(133,637,l),
(133,384,l),
(44,384,l),
(44,333,l)
);
},
{
closed = 1;
nodes = (
(578,637,l),
(578,690,l),
(378,690,l),
(378,637,l)
);
}
);
width = 703;
},
{
layerId = "F0C7097F-19D1-44A8-AB3C-28AAB548B4C8";
shapes = (
{
closed = 1;
nodes = (
(548,-10,o),
(636,82,o),
(636,276,cs),
(636,690,l),
(489,690,l),
(489,243,ls),
(489,148,o),
(451,105,o),
(368,105,cs),
(286,105,o),
(247,148,o),
(247,243,cs),
(247,288,l),
(101,288,l),
(101,275,ls),
(101,82,o),
(189,-10,o),
(368,-10,cs)
);
},
{
closed = 1;
nodes = (
(294,322,l),
(294,426,l),
(242,426,l),
(242,583,l),
(294,583,l),
(294,690,l),
(54,690,l),
(54,583,l),
(106,583,l),
(106,426,l),
(54,426,l),
(54,322,l)
);
},
{
closed = 1;
nodes = (
(554,583,l),
(554,690,l),
(387,690,l),
(387,583,l)
);
}
);
width = 703;
}
);
unicode = 306;
},
{
color = 4;
glyphname = J;
kernLeft = J;
kernRight = J;
lastChange = "2025-05-21 20:19:01 +0000";
layers = (
{
anchors = (
{
name = top;
pos = (249,690);
}
);
layerId = "F0CEC32E-C9EC-4613-8DDA-69A48990CD60";
shapes = (
{
closed = 1;
nodes = (
(312,-10,o),
(354,64,o),
(354,281,cs),
(354,690,l),
(128,690,l),
(128,639,l),
(295,639,l),
(295,209,ls),
(295,90,o),
(267,45,o),
(193,45,cs),
(118,45,o),
(91,90,o),
(91,207,cs),
(91,285,l),
(31,285,l),
(31,265,ls),
(31,64,o),
(73,-10,o),
(193,-10,cs)
);
}
);
width = 423;
},
{
anchors = (
{
name = top;
pos = (262,690);
}
);
layerId = "FC0B0A46-298E-459F-AF16-26E3878B41A7";
shapes = (
{
closed = 1;
nodes = (
(328,-10,o),
(379,62,o),
(379,262,cs),
(379,690,l),
(131,690,l),
(131,592,l),
(258,592,l),
(258,175,ls),
(258,120,o),
(239,96,o),
(197,96,cs),
(155,96,o),
(137,120,o),
(137,175,cs),
(137,296,l),
(15,296,l),
(15,260,ls),
(15,62,o),
(66,-10,o),
(197,-10,cs)
);
}
);
width = 423;
},
{
anchors = (
{
name = top;
pos = (412,690);
}
);
layerId = m005;
shapes = (
{
closed = 1;
nodes = (
(495,-10,o),
(584,83,o),
(584,272,cs),
(584,690,l),
(200,690,l),
(200,636,l),
(518,636,l),
(518,272,ls),
(518,112,o),
(460,48,o),
(314,48,cs),
(168,48,o),
(110,112,o),
(110,265,cs),
(110,285,l),
(44,285,l),
(44,265,ls),
(44,83,o),
(133,-10,o),
(314,-10,cs)
);
}
);
width = 694;
},
{
anchors = (
{
name = top;
pos = (432,690);
}
);
layerId = "EBD6C0FC-C5AB-4FD7-AC9E-8019678F82E3";
shapes = (
{
closed = 1;
nodes = (
(517,-10,o),
(620,89,o),
(620,276,cs),
(620,690,l),
(215,690,l),
(215,578,l),
(457,578,l),
(457,276,ls),
(457,160,o),
(416,110,o),
(322,110,cs),
(228,110,o),
(187,160,o),
(187,275,cs),
(187,296,l),
(24,296,l),
(24,275,ls),
(24,89,o),
(127,-10,o),
(322,-10,cs)
);
}
);
width = 694;
},
{
anchors = (
{
name = top;
pos = (349,690);
}
);
layerId = "160EFA77-7C0F-4DC0-BCB1-F97DA92D519B";
shapes = (
{
closed = 1;
nodes = (
(424,-10,o),
(495,76,o),
(495,275,cs),
(495,690,l),
(172,690,l),
(172,637,l),
(431,637,l),
(431,248,ls),
(431,103,o),
(385,47,o),
(267,47,cs),
(149,47,o),
(103,103,o),
(103,243,cs),
(103,285,l),
(39,285,l),
(39,265,ls),
(39,76,o),
(110,-10,o),
(267,-10,cs)
);
}
);
width = 588.87069;
},
{
anchors = (
{
name = top;
pos = (366,690);
}
);
layerId = "F0C7097F-19D1-44A8-AB3C-28AAB548B4C8";
shapes = (
{
closed = 1;
nodes = (
(444,-10,o),
(527,79,o),
(527,271,cs),
(527,690,l),
(182,690,l),
(182,583,l),
(380,583,l),
(380,237,ls),
(380,144,o),
(347,105,o),
(274,105,cs),
(200,105,o),
(168,144,o),
(168,236,cs),
(168,296,l),
(21,296,l),
(21,269,ls),
(21,79,o),
(103,-10,o),
(274,-10,cs)
);
}
);
width = 588.87069;
}
);
unicode = 74;
userData = {
KernOnName = J;
};
},
{
color = 4;
glyphname = K;
kernLeft = H.ss03;
kernRight = K.ss03;
lastChange = "2025-05-21 20:19:51 +0000";
layers = (
{
anchors = (
{
name = bottom;
pos = (246,0);
}
);
layerId = "F0CEC32E-C9EC-4613-8DDA-69A48990CD60";
shapes = (
{
closed = 1;
nodes = (
(138,0,l),
(138,330,l),
(198,330,l),
(355,0,l),
(456,0,l),
(456,51,l),
(397,51,l),
(236,386,l),
(238,335,l),
(437,690,l),
(369,690,l),
(198,378,l),
(138,378,l),
(138,690,l),
(19,690,l),
(19,639,l),
(79,639,l),
(79,0,l)
);
}
);
width = 464;
},
{
anchors = (
{
name = bottom;
pos = (246,0);
}
);
layerId = "FC0B0A46-298E-459F-AF16-26E3878B41A7";
shapes = (
{
closed = 1;
nodes = (
(174,0,l),
(174,307,l),
(217,307,l),
(321,0,l),
(458,0,l),
(458,97,l),
(417,97,l),
(315,388,l),
(310,333,l),
(451,690,l),
(325,690,l),
(217,401,l),
(174,401,l),
(174,690,l),
(12,690,l),
(12,592,l),
(53,592,l),
(53,0,l)
);
}
);
width = 464;
},
{
anchors = (
{
name = bottom;
pos = (392,0);
}
);
layerId = m005;
shapes = (
{
closed = 1;
nodes = (
(198,0,l),
(198,328,l),
(310,328,l),
(587,0,l),
(740,0,l),
(740,54,l),
(628,54,l),
(349,382,l),
(356,337,l),
(708,690,l),
(617,690,l),
(310,380,l),
(198,380,l),
(198,690,l),
(20,690,l),
(20,636,l),
(132,636,l),
(132,0,l)
);
}
);
width = 752;
},
{
anchors = (
{
name = bottom;
pos = (392,0);
}
);
layerId = "EBD6C0FC-C5AB-4FD7-AC9E-8019678F82E3";
shapes = (
{
closed = 1;
nodes = (
(253,0,l),
(253,300,l),
(330,300,l),
(544,0,l),
(741,0,l),
(741,109,l),
(664,109,l),
(458,392,l),
(457,329,l),
(730,690,l),
(540,690,l),
(330,408,l),
(253,408,l),
(253,690,l),
(14,690,l),
(14,578,l),
(91,578,l),
(91,0,l)
);
}
);
width = 752;
},
{
anchors = (
{
name = bottom;
pos = (336,0);
}
);
layerId = "160EFA77-7C0F-4DC0-BCB1-F97DA92D519B";
shapes = (
{
closed = 1;
nodes = (
(175,0,l),
(175,329,l),
(267,329,l),
(497,0,l),
(630,0,l),
(630,53,l),
(538,53,l),
(305,384,l),
(310,336,l),
(603,690,l),
(521,690,l),
(267,379,l),
(175,379,l),
(175,690,l),
(20,690,l),
(20,637,l),
(111,637,l),
(111,0,l)
);
}
);
width = 640.27586;
},
{
anchors = (
{
name = bottom;
pos = (336,0);
}
);
layerId = "F0C7097F-19D1-44A8-AB3C-28AAB548B4C8";
shapes = (
{
closed = 1;
nodes = (
(222,0,l),
(222,303,l),
(286,303,l),
(457,0,l),
(631,0,l),
(631,104,l),
(568,104,l),
(403,390,l),
(400,331,l),
(622,690,l),
(457,690,l),
(286,405,l),
(222,405,l),
(222,690,l),
(13,690,l),
(13,583,l),
(76,583,l),
(76,0,l)
);
}
);
width = 640.27586;
}
);
unicode = 75;
},
{
color = 4;
glyphname = L;
kernLeft = H.ss03;
kernRight = L.ss03;
lastChange = "2025-05-27 21:23:33 +0000";
layers = (
{
anchors = (
{
name = bottom;
pos = (223,0);
},
{
name = top;
pos = (123,690);
},
{
name = topright;
pos = (196,690);
}
);
layerId = "F0CEC32E-C9EC-4613-8DDA-69A48990CD60";
shapes = (
{
closed = 1;
nodes = (
(370,0,l),
(370,200,l),
(318,200,l),
(318,51,l),
(137,51,l),
(137,639,l),
(196,639,l),
(196,690,l),
(18,690,l),
(18,639,l),
(77,639,l),
(77,0,l)
);
}
);
width = 407;
},
{
anchors = (
{
name = bottom;
pos = (220,0);
},
{
name = top;
pos = (126,690);
},
{
name = topright;
pos = (216,690);
}
);
layerId = "FC0B0A46-298E-459F-AF16-26E3878B41A7";
shapes = (
{
closed = 1;
nodes = (
(387,0,l),
(387,211,l),
(284,211,l),
(284,98,l),
(175,98,l),
(175,592,l),
(216,592,l),
(216,690,l),
(13,690,l),
(13,592,l),
(54,592,l),
(54,0,l)
);
}
);
width = 407;
},
{
anchors = (
{
name = bottom;
pos = (379,0);
},
{
name = top;
pos = (188,690);
},
{
name = topright;
pos = (306,690);
}
);
layerId = m005;
shapes = (
{
closed = 1;
nodes = (
(630,0,l),
(630,200,l),
(572,200,l),
(572,54,l),
(194,54,l),
(194,636,l),
(306,636,l),
(306,690,l),
(16,690,l),
(16,636,l),
(128,636,l),
(128,0,l)
);
}
);
width = 684;
},
{
anchors = (
{
name = bottom;
pos = (372,0);
},
{
name = top;
pos = (195,690);
},
{
name = topright;
pos = (332,690);
}
);
layerId = "EBD6C0FC-C5AB-4FD7-AC9E-8019678F82E3";
shapes = (
{
closed = 1;
nodes = (
(651,0,l),
(651,211,l),
(517,211,l),
(517,112,l),
(256,112,l),
(256,578,l),
(332,578,l),
(332,690,l),
(16,690,l),
(16,578,l),
(93,578,l),
(93,0,l)
);
}
);
width = 684;
},
{
anchors = (
{
name = bottom;
pos = (318,0);
},
{
name = top;
pos = (160,690);
},
{
name = topright;
pos = (263,690);
}
);
layerId = "160EFA77-7C0F-4DC0-BCB1-F97DA92D519B";
shapes = (
{
closed = 1;
nodes = (
(529,0,l),
(529,200,l),
(473,200,l),
(473,53,l),
(172,53,l),
(172,637,l),
(263,637,l),
(263,690,l),
(17,690,l),
(17,637,l),
(108,637,l),
(108,0,l)
);
}
);
width = 576.5431;
},
{
anchors = (
{
name = bottom;
pos = (313,0);
},
{
name = top;
pos = (166,690);
},
{
name = topright;
pos = (287,690);
}
);
layerId = "F0C7097F-19D1-44A8-AB3C-28AAB548B4C8";
shapes = (
{
closed = 1;
nodes = (
(549,0,l),
(549,211,l),
(427,211,l),
(427,107,l),
(225,107,l),
(225,583,l),
(287,583,l),
(287,690,l),
(15,690,l),
(15,583,l),
(78,583,l),
(78,0,l)
);
}
);
width = 576.5431;
}
);
unicode = 76;
userData = {
KernOnName = L;
};
},
{
color = 4;
glyphname = Lslash;
kernRight = L.ss03;
lastChange = "2025-02-11 14:17:34 +0000";
layers = (
{
layerId = "F0CEC32E-C9EC-4613-8DDA-69A48990CD60";
shapes = (
{
closed = 1;
nodes = (
(281,368,l),
(281,419,l),
(28,282,l),
(28,231,l)
);
},
{
closed = 1;
nodes = (
(381,0,l),
(381,200,l),
(329,200,l),
(329,51,l),
(148,51,l),
(148,639,l),
(207,639,l),
(207,690,l),
(28,690,l),
(28,639,l),
(88,639,l),
(88,0,l)
);
}
);
userData = {
assembly = "NPUSHB[ ]	/* 46 values pushed */
59 11 75 10 90 10 122 10 4 2 11 5 8 4 9 3 9 9 1 6 3 12 53 1 8 10 3 10 0 0 15 15 15 1 8 11 20 5 3 2 10 16 16 2 85 2
PUSHW[ ]	/* 1 value pushed */
-4
PUSHB[ ]	/* 5 values pushed */
11 11 2 85 2
PUSHW[ ]	/* 1 value pushed */
-38
NPUSHB[ ]	/* 11 values pushed */
15 15 2 85 2 8 9 9 2 85 2
PUSHW[ ]	/* 1 value pushed */
-18
PUSHB[ ]	/* 5 values pushed */
12 12 2 85 2
PUSHW[ ]	/* 1 value pushed */
-22
PUSHB[ ]	/* 5 values pushed */
13 13 2 85 2
PUSHW[ ]	/* 1 value pushed */
-24
PUSHB[ ]	/* 5 values pushed */
15 15 6 85 2
PUSHW[ ]	/* 1 value pushed */
-20
PUSHB[ ]	/* 5 values pushed */
13 13 6 85 2
PUSHW[ ]	/* 1 value pushed */
-22
PUSHB[ ]	/* 5 values pushed */
12 12 6 85 2
PUSHW[ ]	/* 1 value pushed */
-6
PUSHB[ ]	/* 7 values pushed */
9 9 6 85 2 108 14
SRP0[ ]	/* SetRefPoint0 */
MIRP[10110]	/* MoveIndirectRelPt */
CALL[ ]	/* CallFunction */
CALL[ ]	/* CallFunction */
CALL[ ]	/* CallFunction */
CALL[ ]	/* CallFunction */
CALL[ ]	/* CallFunction */
CALL[ ]	/* CallFunction */
CALL[ ]	/* CallFunction */
CALL[ ]	/* CallFunction */
CALL[ ]	/* CallFunction */
CALL[ ]	/* CallFunction */
SHP[0]	/* ShiftPointByLastPoint */
SHP[0]	/* ShiftPointByLastPoint */
MIRP[11101]	/* MoveIndirectRelPt */
SHP[0]	/* ShiftPointByLastPoint */
DELTAP1[ ]	/* DeltaExceptionP1 */
SRP1[ ]	/* SetRefPoint1 */
SHP[1]	/* ShiftPointByLastPoint */
MDAP[1]	/* MoveDirectAbsPt */
IP[ ]	/* InterpolatePts */
MDAP[1]	/* MoveDirectAbsPt */
MDAP[1]	/* MoveDirectAbsPt */
SVTCA[0]	/* SetFreedomAndProjectionVectorToAxis */
MIAP[1]	/* MoveIndirectAbsPt */
MIRP[01101]	/* MoveIndirectRelPt */
MIAP[1]	/* MoveIndirectAbsPt */
SRP2[ ]	/* SetRefPoint2 */
IP[ ]	/* InterpolatePts */
MDAP[1]	/* MoveDirectAbsPt */
MDAP[1]	/* MoveDirectAbsPt */
SRP2[ ]	/* SetRefPoint2 */
SLOOP[ ]	/* SetLoopVariable */
IP[ ]	/* InterpolatePts */
IUP[1]	/* InterpolateUntPts */
IUP[0]	/* InterpolateUntPts */
DELTAP1[ ]	/* DeltaExceptionP1 */";
};
width = 418;
},
{
layerId = "FC0B0A46-298E-459F-AF16-26E3878B41A7";
shapes = (
{
closed = 1;
nodes = (
(284,345,l),
(284,443,l),
(24,303,l),
(24,205,l)
);
},
{
closed = 1;
nodes = (
(397,0,l),
(397,211,l),
(294,211,l),
(294,98,l),
(185,98,l),
(185,592,l),
(226,592,l),
(226,690,l),
(24,690,l),
(24,592,l),
(64,592,l),
(64,0,l)
);
}
);
userData = {
assembly = "NPUSHB[ ]	/* 46 values pushed */
59 11 75 10 90 10 122 10 4 2 11 5 8 4 9 3 9 9 1 6 3 12 53 1 8 10 3 10 0 0 15 15 15 1 8 11 20 5 3 2 10 16 16 2 85 2
PUSHW[ ]	/* 1 value pushed */
-4
PUSHB[ ]	/* 5 values pushed */
11 11 2 85 2
PUSHW[ ]	/* 1 value pushed */
-38
NPUSHB[ ]	/* 11 values pushed */
15 15 2 85 2 8 9 9 2 85 2
PUSHW[ ]	/* 1 value pushed */
-18
PUSHB[ ]	/* 5 values pushed */
12 12 2 85 2
PUSHW[ ]	/* 1 value pushed */
-22
PUSHB[ ]	/* 5 values pushed */
13 13 2 85 2
PUSHW[ ]	/* 1 value pushed */
-24
PUSHB[ ]	/* 5 values pushed */
15 15 6 85 2
PUSHW[ ]	/* 1 value pushed */
-20
PUSHB[ ]	/* 5 values pushed */
13 13 6 85 2
PUSHW[ ]	/* 1 value pushed */
-22
PUSHB[ ]	/* 5 values pushed */
12 12 6 85 2
PUSHW[ ]	/* 1 value pushed */
-6
PUSHB[ ]	/* 7 values pushed */
9 9 6 85 2 108 14
SRP0[ ]	/* SetRefPoint0 */
MIRP[10110]	/* MoveIndirectRelPt */
CALL[ ]	/* CallFunction */
CALL[ ]	/* CallFunction */
CALL[ ]	/* CallFunction */
CALL[ ]	/* CallFunction */
CALL[ ]	/* CallFunction */
CALL[ ]	/* CallFunction */
CALL[ ]	/* CallFunction */
CALL[ ]	/* CallFunction */
CALL[ ]	/* CallFunction */
CALL[ ]	/* CallFunction */
SHP[0]	/* ShiftPointByLastPoint */
SHP[0]	/* ShiftPointByLastPoint */
MIRP[11101]	/* MoveIndirectRelPt */
SHP[0]	/* ShiftPointByLastPoint */
DELTAP1[ ]	/* DeltaExceptionP1 */
SRP1[ ]	/* SetRefPoint1 */
SHP[1]	/* ShiftPointByLastPoint */
MDAP[1]	/* MoveDirectAbsPt */
IP[ ]	/* InterpolatePts */
MDAP[1]	/* MoveDirectAbsPt */
MDAP[1]	/* MoveDirectAbsPt */
SVTCA[0]	/* SetFreedomAndProjectionVectorToAxis */
MIAP[1]	/* MoveIndirectAbsPt */
MIRP[01101]	/* MoveIndirectRelPt */
MIAP[1]	/* MoveIndirectAbsPt */
SRP2[ ]	/* SetRefPoint2 */
IP[ ]	/* InterpolatePts */
MDAP[1]	/* MoveDirectAbsPt */
MDAP[1]	/* MoveDirectAbsPt */
SRP2[ ]	/* SetRefPoint2 */
SLOOP[ ]	/* SetLoopVariable */
IP[ ]	/* InterpolatePts */
IUP[1]	/* InterpolateUntPts */
IUP[0]	/* InterpolateUntPts */
DELTAP1[ ]	/* DeltaExceptionP1 */";
};
width = 418;
},
{
layerId = m005;
shapes = (
{
closed = 1;
nodes = (
(443,382,l),
(443,436,l),
(43,236,l),
(43,182,l)
);
},
{
closed = 1;
nodes = (
(657,0,l),
(657,200,l),
(599,200,l),
(599,54,l),
(221,54,l),
(221,636,l),
(333,636,l),
(333,690,l),
(43,690,l),
(43,636,l),
(155,636,l),
(155,0,l)
);
}
);
width = 710;
},
{
layerId = "EBD6C0FC-C5AB-4FD7-AC9E-8019678F82E3";
shapes = (
{
closed = 1;
nodes = (
(447,354,l),
(447,466,l),
(40,262,l),
(40,150,l)
);
},
{
closed = 1;
nodes = (
(675,0,l),
(675,211,l),
(542,211,l),
(542,112,l),
(280,112,l),
(280,578,l),
(357,578,l),
(357,690,l),
(40,690,l),
(40,578,l),
(117,578,l),
(117,0,l)
);
}
);
width = 710;
},
{
layerId = "160EFA77-7C0F-4DC0-BCB1-F97DA92D519B";
shapes = (
{
closed = 1;
nodes = (
(380,377,l),
(380,429,l),
(37,254,l),
(37,201,l)
);
},
{
closed = 1;
nodes = (
(550,0,l),
(550,200,l),
(494,200,l),
(494,53,l),
(193,53,l),
(193,637,l),
(284,637,l),
(284,690,l),
(37,690,l),
(37,637,l),
(129,637,l),
(129.009,0,l)
);
}
);
userData = {
assembly = "NPUSHB[ ]	/* 46 values pushed */
59 11 75 10 90 10 122 10 4 2 11 5 8 4 9 3 9 9 1 6 3 12 53 1 8 10 3 10 0 0 15 15 15 1 8 11 20 5 3 2 10 16 16 2 85 2
PUSHW[ ]	/* 1 value pushed */
-4
PUSHB[ ]	/* 5 values pushed */
11 11 2 85 2
PUSHW[ ]	/* 1 value pushed */
-38
NPUSHB[ ]	/* 11 values pushed */
15 15 2 85 2 8 9 9 2 85 2
PUSHW[ ]	/* 1 value pushed */
-18
PUSHB[ ]	/* 5 values pushed */
12 12 2 85 2
PUSHW[ ]	/* 1 value pushed */
-22
PUSHB[ ]	/* 5 values pushed */
13 13 2 85 2
PUSHW[ ]	/* 1 value pushed */
-24
PUSHB[ ]	/* 5 values pushed */
15 15 6 85 2
PUSHW[ ]	/* 1 value pushed */
-20
PUSHB[ ]	/* 5 values pushed */
13 13 6 85 2
PUSHW[ ]	/* 1 value pushed */
-22
PUSHB[ ]	/* 5 values pushed */
12 12 6 85 2
PUSHW[ ]	/* 1 value pushed */
-6
PUSHB[ ]	/* 7 values pushed */
9 9 6 85 2 108 14
SRP0[ ]	/* SetRefPoint0 */
MIRP[10110]	/* MoveIndirectRelPt */
CALL[ ]	/* CallFunction */
CALL[ ]	/* CallFunction */
CALL[ ]	/* CallFunction */
CALL[ ]	/* CallFunction */
CALL[ ]	/* CallFunction */
CALL[ ]	/* CallFunction */
CALL[ ]	/* CallFunction */
CALL[ ]	/* CallFunction */
CALL[ ]	/* CallFunction */
CALL[ ]	/* CallFunction */
SHP[0]	/* ShiftPointByLastPoint */
SHP[0]	/* ShiftPointByLastPoint */
MIRP[11101]	/* MoveIndirectRelPt */
SHP[0]	/* ShiftPointByLastPoint */
DELTAP1[ ]	/* DeltaExceptionP1 */
SRP1[ ]	/* SetRefPoint1 */
SHP[1]	/* ShiftPointByLastPoint */
MDAP[1]	/* MoveDirectAbsPt */
IP[ ]	/* InterpolatePts */
MDAP[1]	/* MoveDirectAbsPt */
MDAP[1]	/* MoveDirectAbsPt */
SVTCA[0]	/* SetFreedomAndProjectionVectorToAxis */
MIAP[1]	/* MoveIndirectAbsPt */
MIRP[01101]	/* MoveIndirectRelPt */
MIAP[1]	/* MoveIndirectAbsPt */
SRP2[ ]	/* SetRefPoint2 */
IP[ ]	/* InterpolatePts */
MDAP[1]	/* MoveDirectAbsPt */
MDAP[1]	/* MoveDirectAbsPt */
SRP2[ ]	/* SetRefPoint2 */
SLOOP[ ]	/* SetLoopVariable */
IP[ ]	/* InterpolatePts */
IUP[1]	/* InterpolateUntPts */
IUP[0]	/* InterpolateUntPts */
DELTAP1[ ]	/* DeltaExceptionP1 */";
};
width = 596.72414;
},
{
layerId = "F0C7097F-19D1-44A8-AB3C-28AAB548B4C8";
shapes = (
{
closed = 1;
nodes = (
(384,351,l),
(384,457,l),
(34,278,l),
(34,171,l)
);
},
{
closed = 1;
nodes = (
(567,0,l),
(567,211,l),
(446,211,l),
(446,107,l),
(243,107,l),
(243,583,l),
(306,583,l),
(306,690,l),
(34,690,l),
(34,583,l),
(96,583,l),
(96,0,l)
);
}
);
userData = {
assembly = "NPUSHB[ ]	/* 46 values pushed */
59 11 75 10 90 10 122 10 4 2 11 5 8 4 9 3 9 9 1 6 3 12 53 1 8 10 3 10 0 0 15 15 15 1 8 11 20 5 3 2 10 16 16 2 85 2
PUSHW[ ]	/* 1 value pushed */
-4
PUSHB[ ]	/* 5 values pushed */
11 11 2 85 2
PUSHW[ ]	/* 1 value pushed */
-38
NPUSHB[ ]	/* 11 values pushed */
15 15 2 85 2 8 9 9 2 85 2
PUSHW[ ]	/* 1 value pushed */
-18
PUSHB[ ]	/* 5 values pushed */
12 12 2 85 2
PUSHW[ ]	/* 1 value pushed */
-22
PUSHB[ ]	/* 5 values pushed */
13 13 2 85 2
PUSHW[ ]	/* 1 value pushed */
-24
PUSHB[ ]	/* 5 values pushed */
15 15 6 85 2
PUSHW[ ]	/* 1 value pushed */
-20
PUSHB[ ]	/* 5 values pushed */
13 13 6 85 2
PUSHW[ ]	/* 1 value pushed */
-22
PUSHB[ ]	/* 5 values pushed */
12 12 6 85 2
PUSHW[ ]	/* 1 value pushed */
-6
PUSHB[ ]	/* 7 values pushed */
9 9 6 85 2 108 14
SRP0[ ]	/* SetRefPoint0 */
MIRP[10110]	/* MoveIndirectRelPt */
CALL[ ]	/* CallFunction */
CALL[ ]	/* CallFunction */
CALL[ ]	/* CallFunction */
CALL[ ]	/* CallFunction */
CALL[ ]	/* CallFunction */
CALL[ ]	/* CallFunction */
CALL[ ]	/* CallFunction */
CALL[ ]	/* CallFunction */
CALL[ ]	/* CallFunction */
CALL[ ]	/* CallFunction */
SHP[0]	/* ShiftPointByLastPoint */
SHP[0]	/* ShiftPointByLastPoint */
MIRP[11101]	/* MoveIndirectRelPt */
SHP[0]	/* ShiftPointByLastPoint */
DELTAP1[ ]	/* DeltaExceptionP1 */
SRP1[ ]	/* SetRefPoint1 */
SHP[1]	/* ShiftPointByLastPoint */
MDAP[1]	/* MoveDirectAbsPt */
IP[ ]	/* InterpolatePts */
MDAP[1]	/* MoveDirectAbsPt */
MDAP[1]	/* MoveDirectAbsPt */
SVTCA[0]	/* SetFreedomAndProjectionVectorToAxis */
MIAP[1]	/* MoveIndirectAbsPt */
MIRP[01101]	/* MoveIndirectRelPt */
MIAP[1]	/* MoveIndirectAbsPt */
SRP2[ ]	/* SetRefPoint2 */
IP[ ]	/* InterpolatePts */
MDAP[1]	/* MoveDirectAbsPt */
MDAP[1]	/* MoveDirectAbsPt */
SRP2[ ]	/* SetRefPoint2 */
SLOOP[ ]	/* SetLoopVariable */
IP[ ]	/* InterpolatePts */
IUP[1]	/* InterpolateUntPts */
IUP[0]	/* InterpolateUntPts */
DELTAP1[ ]	/* DeltaExceptionP1 */";
};
width = 596.72414;
}
);
note = Lslash;
unicode = 321;
},
{
color = 4;
glyphname = M;
kernLeft = H.ss03;
kernRight = H.ss03;
lastChange = "2025-02-11 14:17:34 +0000";
layers = (
{
layerId = "F0CEC32E-C9EC-4613-8DDA-69A48990CD60";
shapes = (
{
closed = 1;
nodes = (
(129,0,l),
(129,635,l),
(147,635,l),
(308,0,l),
(359,0,l),
(520,635,l),
(537,635,l),
(537,0,l),
(597,0,l),
(597,690,l),
(480,690,l),
(343,155,l),
(325,155,l),
(188,690,l),
(71,690,l),
(71,0,l)
);
}
);
width = 669;
},
{
layerId = "FC0B0A46-298E-459F-AF16-26E3878B41A7";
shapes = (
{
closed = 1;
nodes = (
(166,0,l),
(166,577,l),
(190,577,l),
(280,0,l),
(384,0,l),
(475,577,l),
(498,577,l),
(498,0,l),
(620,0,l),
(620,690,l),
(409,690,l),
(346,284,l),
(322,284,l),
(259,690,l),
(49,690,l),
(49,0,l)
);
}
);
width = 669;
},
{
layerId = m005;
shapes = (
{
closed = 1;
nodes = (
(184,0,l),
(184,632,l),
(208,632,l),
(488,0,l),
(542,0,l),
(822,632,l),
(846,632,l),
(846,0,l),
(912,0,l),
(912,690,l),
(784,690,l),
(528,112,l),
(504,112,l),
(248,690,l),
(120,690,l),
(120,0,l)
);
}
);
width = 1032;
},
{
layerId = "EBD6C0FC-C5AB-4FD7-AC9E-8019678F82E3";
shapes = (
{
closed = 1;
nodes = (
(240,0,l),
(240,563,l),
(278,563,l),
(439,0,l),
(590,0,l),
(750,563,l),
(788,563,l),
(788,0,l),
(951,0,l),
(951,690,l),
(657,690,l),
(535,249,l),
(497,249,l),
(375,690,l),
(81,690,l),
(81,0,l)
);
}
);
width = 1032;
},
{
layerId = "160EFA77-7C0F-4DC0-BCB1-F97DA92D519B";
shapes = (
{
closed = 1;
nodes = (
(163,0,l),
(163,633,l),
(184,633,l),
(418,0,l),
(471.009,0,l),
(705,633,l),
(726,633,l),
(726,0,l),
(790,0,l),
(790,690,l),
(666,690,l),
(456,129,l),
(435,129,l),
(225,690,l),
(100.991,690,l),
(100.991,0,l)
);
}
);
width = 891.18103;
},
{
layerId = "F0C7097F-19D1-44A8-AB3C-28AAB548B4C8";
shapes = (
{
closed = 1;
nodes = (
(211,0,l),
(211,568,l),
(244,568,l),
(377,0,l),
(510,0,l),
(643,568,l),
(676,568,l),
(676,0,l),
(823,0,l),
(823,690,l),
(561,690,l),
(462,263,l),
(429,263,l),
(330,690,l),
(69,690,l),
(69,0,l)
);
}
);
width = 891.18103;
}
);
unicode = 77;
},
{
color = 4;
glyphname = N;
kernLeft = H.ss03;
kernRight = H.ss03;
lastChange = "2025-05-21 20:26:50 +0000";
layers = (
{
anchors = (
{
name = bottom;
pos = (247,0);
},
{
name = top;
pos = (247,690);
}
);
layerId = "F0CEC32E-C9EC-4613-8DDA-69A48990CD60";
shapes = (
{
closed = 1;
nodes = (
(135,0,l),
(135,492,ls),
(135,523,o),
(132,555,o),
(125,618,c),
(143,618,l),
(361,0,l),
(417,0,l),
(417,690,l),
(359,690,l),
(359,326,ls),
(359,295,o),
(362,263,o),
(369,200,c),
(351,200,l),
(171,690,l),
(17,690,l),
(17,639,l),
(77,639,l),
(77,0,l)
);
}
);
width = 488;
},
{
anchors = (
{
name = bottom;
pos = (246,0);
},
{
name = top;
pos = (247,690);
}
);
layerId = "FC0B0A46-298E-459F-AF16-26E3878B41A7";
shapes = (
{
closed = 1;
nodes = (
(171,0,l),
(171,357,ls),
(171,388,o),
(168,420,o),
(161,483,c),
(184,483,l),
(327,0,l),
(439,0,l),
(439,690,l),
(322,690,l),
(322,473,ls),
(322,442,o),
(325,410,o),
(332,347,c),
(308,347,l),
(200,690,l),
(14,690,l),
(14,592,l),
(54,592,l),
(54,0,l)
);
}
);
width = 488;
},
{
anchors = (
{
name = bottom;
pos = (410,0);
},
{
name = top;
pos = (410,690);
}
);
layerId = m005;
shapes = (
{
closed = 1;
nodes = (
(194,0,l),
(194,492,ls),
(194,523,o),
(191,555,o),
(184,618,c),
(208,618,l),
(628,0,l),
(690,0,l),
(690,690,l),
(626,690,l),
(626,256,ls),
(626,225,o),
(629,193,o),
(636,130,c),
(612,130,l),
(232,690,l),
(18,690,l),
(18,636,l),
(130,636,l),
(130,0,l)
);
}
);
width = 810;
},
{
anchors = (
{
name = bottom;
pos = (410,0);
},
{
name = top;
pos = (410,690);
}
);
layerId = "EBD6C0FC-C5AB-4FD7-AC9E-8019678F82E3";
shapes = (
{
closed = 1;
nodes = (
(250,0,l),
(250,341,ls),
(250,372,o),
(247,404,o),
(240,467,c),
(278,467,l),
(575,0,l),
(729,0,l),
(729,690,l),
(570,690,l),
(570,414,ls),
(570,383,o),
(573,351,o),
(580,288,c),
(542,288,l),
(287,690,l),
(14,690,l),
(14,578,l),
(91,578,l),
(91,0,l)
);
}
);
width = 810;
},
{
anchors = (
{
name = bottom;
pos = (346,0);
},
{
name = top;
pos = (347,690);
}
);
layerId = "160EFA77-7C0F-4DC0-BCB1-F97DA92D519B";
shapes = (
{
closed = 1;
nodes = (
(171,0,l),
(171,492,ls),
(171,523,o),
(168,555,o),
(161,618,c),
(182,618,l),
(524,0,l),
(584,0,l),
(584,690,l),
(522,690,l),
(522,283,ls),
(522,252,o),
(525,220,o),
(532,157,c),
(511,157,l),
(208,690,l),
(18,690,l),
(18,637,l),
(109,637,l),
(109,0,l)
);
}
);
width = 685.08621;
},
{
anchors = (
{
name = bottom;
pos = (347,0);
},
{
name = top;
pos = (347,690);
}
);
layerId = "F0C7097F-19D1-44A8-AB3C-28AAB548B4C8";
shapes = (
{
closed = 1;
nodes = (
(220,0,l),
(220,347,ls),
(220,378,o),
(217,410,o),
(210,473,c),
(242,473,l),
(479,0,l),
(617,0,l),
(617,690,l),
(474,690,l),
(474,437,ls),
(474,406,o),
(477,374,o),
(484,311,c),
(451,311,l),
(253,690,l),
(14,690,l),
(14,583,l),
(77,583,l),
(77,0,l)
);
}
);
width = 685.08621;
},
{
anchors = (
{
name = top;
pos = (247,690);
}
);
associatedMasterId = "FC0B0A46-298E-459F-AF16-26E3878B41A7";
layerId = "12BFF13A-FD63-45D2-9CF7-1BF0C9970213";
name = "21 May 25 at 22:25";
shapes = (
{
closed = 1;
nodes = (
(172,0,l),
(172,357,ls),
(172,388,o),
(169,420,o),
(162,483,c),
(185,483,l),
(327,0,l),
(439,0,l),
(439,690,l),
(322,690,l),
(322,473,ls),
(322,442,o),
(325,410,o),
(332,347,c),
(308,347,l),
(200,690,l),
(14,690,l),
(14,592,l),
(54,592,l),
(54,0,l)
);
}
);
width = 488;
},
{
anchors = (
{
name = bottom;
pos = (247,0);
},
{
name = top;
pos = (247,690);
}
);
associatedMasterId = "F0CEC32E-C9EC-4613-8DDA-69A48990CD60";
layerId = "E4795A96-D892-4B40-8E0A-F2B9ABF61664";
name = "21 May 25 at 22:25";
shapes = (
{
closed = 1;
nodes = (
(134,0,l),
(134,492,ls),
(134,523,o),
(131,555,o),
(124,618,c),
(142,618,l),
(361,0,l),
(417,0,l),
(417,690,l),
(359,690,l),
(359,326,ls),
(359,295,o),
(362,263,o),
(369,200,c),
(351,200,l),
(171,690,l),
(17,690,l),
(17,639,l),
(77,639,l),
(77,0,l)
);
}
);
width = 488;
}
);
unicode = 78;
},
{
color = 4;
glyphname = Eng;
kernLeft = H.ss03;
kernRight = H.ss03;
lastChange = "2025-05-29 19:09:01 +0000";
layers = (
{
anchors = (
{
name = top;
pos = (247,690);
}
);
layerId = "F0CEC32E-C9EC-4613-8DDA-69A48990CD60";
shapes = (
{
closed = 1;
nodes = (
(134,0,l),
(134,492,ls),
(134,523,o),
(131,555,o),
(124,618,c),
(142,618,l),
(361,0,l),
(417,0,l),
(417,690,l),
(359,690,l),
(359,321,ls),
(359,290,o),
(362,258,o),
(369,195,c),
(351,195,l),
(171,690,l),
(17,690,l),
(17,639,l),
(77,639,l),
(77,0,l)
);
},
{
closed = 1;
nodes = (
(359,94,l),
(359,-83,l),
(291,-83,l),
(291,-132,l),
(372,-132,ls),
(401,-132,o),
(417,-117,o),
(417,-87,cs),
(417,94,l)
);
}
);
width = 488;
},
{
anchors = (
{
name = top;
pos = (247,690);
}
);
layerId = "FC0B0A46-298E-459F-AF16-26E3878B41A7";
shapes = (
{
closed = 1;
nodes = (
(172,0,l),
(172,357,ls),
(172,388,o),
(169,420,o),
(162,483,c),
(185,483,l),
(327,0,l),
(439,0,l),
(439,690,l),
(322,690,l),
(322,473,ls),
(322,442,o),
(325,410,o),
(332,347,c),
(308,347,l),
(200,690,l),
(14,690,l),
(14,592,l),
(54,592,l),
(54,0,l)
);
},
{
closed = 1;
nodes = (
(321,90,l),
(321,-38,l),
(280,-38,l),
(280,-132,l),
(359,-132,ls),
(411,-132,o),
(439,-104,o),
(439,-52,cs),
(439,90,l)
);
}
);
width = 488;
},
{
anchors = (
{
name = top;
pos = (347,690);
}
);
layerId = "160EFA77-7C0F-4DC0-BCB1-F97DA92D519B";
shapes = (
{
closed = 1;
nodes = (
(171,0,l),
(171,492,ls),
(171,523,o),
(168,555,o),
(161,618,c),
(182,618,l),
(524,0,l),
(584,0,l),
(584,690,l),
(522,690,l),
(522,283,ls),
(522,252,o),
(525,220,o),
(532,157,c),
(511,157,l),
(208,690,l),
(18,690,l),
(18,637,l),
(109,637,l),
(109,0,l)
);
},
{
closed = 1;
nodes = (
(520,103,l),
(520,-80,l),
(398,-80,l),
(398,-132,l),
(536,-132,ls),
(567,-132,o),
(584,-115,o),
(584,-84,c),
(584,103,l)
);
}
);
width = 685;
},
{
anchors = (
{
name = top;
pos = (347,690);
}
);
layerId = "F0C7097F-19D1-44A8-AB3C-28AAB548B4C8";
shapes = (
{
closed = 1;
nodes = (
(220,0,l),
(220,347,ls),
(220,378,o),
(217,410,o),
(210,473,c),
(242,473,l),
(479,0,l),
(617,0,l),
(617,690,l),
(474,690,l),
(474,437,ls),
(474,406,o),
(477,374,o),
(484,311,c),
(451,311,l),
(253,690,l),
(14,690,l),
(14,583,l),
(77,583,l),
(77,0,l)
);
},
{
closed = 1;
nodes = (
(474,100,l),
(474,-29,l),
(410,-29,l),
(410,-132,l),
(529,-132,ls),
(586,-132,o),
(617,-101,o),
(617,-43,cs),
(617,100,l)
);
}
);
width = 685;
},
{
anchors = (
{
name = top;
pos = (410,690);
}
);
layerId = m005;
shapes = (
{
closed = 1;
nodes = (
(194,0,l),
(194,492,ls),
(194,523,o),
(191,555,o),
(184,618,c),
(208,618,l),
(628,0,l),
(690,0,l),
(690,690,l),
(626,690,l),
(626,256,ls),
(626,225,o),
(629,193,o),
(636,130,c),
(612,130,l),
(232,690,l),
(18,690,l),
(18,636,l),
(130,636,l),
(130,0,l)
);
},
{
closed = 1;
nodes = (
(626,87,l),
(626,-80,l),
(504,-80,l),
(504,-132,l),
(642,-132,ls),
(673,-132,o),
(690,-115,o),
(690,-84,cs),
(690,87,l)
);
}
);
width = 810;
},
{
anchors = (
{
name = top;
pos = (410,690);
}
);
layerId = "EBD6C0FC-C5AB-4FD7-AC9E-8019678F82E3";
shapes = (
{
closed = 1;
nodes = (
(250,0,l),
(250,341,ls),
(250,372,o),
(247,404,o),
(240,467,c),
(278,467,l),
(575,0,l),
(729,0,l),
(729,690,l),
(570,690,l),
(570,414,ls),
(570,383,o),
(573,351,o),
(580,288,c),
(542,288,l),
(287,690,l),
(14,690,l),
(14,578,l),
(91,578,l),
(91,0,l)
);
},
{
closed = 1;
nodes = (
(570,97,l),
(570,-24,l),
(492,-24,l),
(492,-132,l),
(635,-132,ls),
(696,-132,o),
(729,-99,o),
(729,-38,cs),
(729,97,l)
);
}
);
width = 810;
}
);
metricRight = N;
unicode = 330;
},
{
color = 4;
glyphname = O;
kernLeft = O;
kernRight = O;
lastChange = "2025-02-11 14:17:34 +0000";
layers = (
{
anchors = (
{
name = top;
pos = (234,690);
}
);
layerId = "F0CEC32E-C9EC-4613-8DDA-69A48990CD60";
shapes = (
{
closed = 1;
nodes = (
(372,-10,o),
(427,79,o),
(427,345,cs),
(427,611,o),
(372,700,o),
(238,700,cs),
(103,700,o),
(48,611,o),
(48,345,cs),
(48,79,o),
(103,-10,o),
(238,-10,cs)
);
},
{
closed = 1;
nodes = (
(149,45,o),
(112,101,o),
(112,239,cs),
(112,451,ls),
(112,589,o),
(149,645,o),
(238,645,cs),
(326,645,o),
(364,589,o),
(364,451,cs),
(364,239,ls),
(364,101,o),
(326,45,o),
(238,45,cs)
);
}
);
width = 475;
},
{
anchors = (
{
name = top;
pos = (241,690);
}
);
layerId = "FC0B0A46-298E-459F-AF16-26E3878B41A7";
shapes = (
{
closed = 1;
nodes = (
(384,-10,o),
(444,79,o),
(444,345,cs),
(444,611,o),
(384,700,o),
(238,700,cs),
(91,700,o),
(31,611,o),
(31,345,cs),
(31,79,o),
(91,-10,o),
(238,-10,cs)
);
},
{
closed = 1;
nodes = (
(184,96,o),
(160,126,o),
(160,194,cs),
(160,496,ls),
(160,564,o),
(184,594,o),
(238,594,cs),
(291,594,o),
(315,564,o),
(315,496,cs),
(315,194,ls),
(315,126,o),
(291,96,o),
(238,96,cs)
);
}
);
width = 475;
},
{
anchors = (
{
name = top;
pos = (414,690);
}
);
layerId = m005;
shapes = (
{
closed = 1;
nodes = (
(628,-10,o),
(760,126,o),
(760,345,cs),
(760,564,o),
(628,700,o),
(414,700,cs),
(200,700,o),
(68,564,o),
(68,345,cs),
(68,126,o),
(200,-10,o),
(414,-10,cs)
);
},
{
closed = 1;
nodes = (
(228,48,o),
(138,144,o),
(138,344,cs),
(138,346,ls),
(138,546,o),
(228,642,o),
(414,642,cs),
(600,642,o),
(690,546,o),
(690,346,cs),
(690,344,ls),
(690,144,o),
(600,48,o),
(414,48,cs)
);
}
);
width = 828;
},
{
anchors = (
{
name = top;
pos = (414,690);
}
);
layerId = "EBD6C0FC-C5AB-4FD7-AC9E-8019678F82E3";
shapes = (
{
closed = 1;
nodes = (
(643,-10,o),
(785,126,o),
(785,345,cs),
(785,564,o),
(643,700,o),
(414,700,cs),
(185,700,o),
(43,564,o),
(43,345,cs),
(43,126,o),
(185,-10,o),
(414,-10,cs)
);
},
{
closed = 1;
nodes = (
(276,110,o),
(214,183,o),
(214,342,cs),
(214,348,ls),
(214,507,o),
(276,580,o),
(414,580,cs),
(552,580,o),
(614,507,o),
(614,348,cs),
(614,342,ls),
(614,183,o),
(552,110,o),
(414,110,cs)
);
}
);
width = 828;
},
{
anchors = (
{
name = top;
pos = (344,690);
}
);
layerId = "160EFA77-7C0F-4DC0-BCB1-F97DA92D519B";
shapes = (
{
closed = 1;
nodes = (
(529,-10,o),
(631,108,o),
(631,345,cs),
(631,582,o),
(529,700,o),
(346,700,cs),
(162,700,o),
(60,582,o),
(60,345,cs),
(60,108,o),
(162,-10,o),
(346,-10,cs)
);
},
{
closed = 1;
nodes = (
(197,47,o),
(128,127,o),
(128,303,cs),
(128,387,ls),
(128,563,o),
(197,643,o),
(346,643,cs),
(494,643,o),
(564,563,o),
(564,387,cs),
(564,303,ls),
(564,127,o),
(494,47,o),
(346,47,cs)
);
}
);
width = 691.06034;
},
{
anchors = (
{
name = top;
pos = (347,690);
}
);
layerId = "F0C7097F-19D1-44A8-AB3C-28AAB548B4C8";
shapes = (
{
closed = 1;
nodes = (
(543,-10,o),
(653,108,o),
(653,345,cs),
(653,582,o),
(543,700,o),
(346,700,cs),
(149,700,o),
(38,582,o),
(38,345,cs),
(38,108,o),
(149,-10,o),
(346,-10,cs)
);
},
{
closed = 1;
nodes = (
(240,105,o),
(193,161,o),
(193,285,cs),
(193,405,ls),
(193,529,o),
(240,585,o),
(346,585,cs),
(451,585,o),
(498,529,o),
(498,405,cs),
(498,285,ls),
(498,161,o),
(451,105,o),
(346,105,cs)
);
}
);
width = 691.06034;
}
);
unicode = 79;
userData = {
KernOnName = O;
};
},
{
color = 4;
glyphname = Oslash;
kernLeft = O;
kernRight = O;
lastChange = "2025-02-11 14:17:34 +0000";
layers = (
{
anchors = (
{
name = top;
pos = (240,690);
}
);
layerId = "F0CEC32E-C9EC-4613-8DDA-69A48990CD60";
shapes = (
{
closed = 1;
nodes = (
(374,-10,o),
(429,79,o),
(429,345,cs),
(429,611,o),
(374,700,o),
(240,700,cs),
(105,700,o),
(50,611,o),
(50,345,cs),
(50,79,o),
(105,-10,o),
(240,-10,cs)
);
},
{
closed = 1;
nodes = (
(151,45,o),
(114,101,o),
(114,239,cs),
(114,451,ls),
(114,589,o),
(151,645,o),
(240,645,cs),
(328,645,o),
(366,589,o),
(366,451,cs),
(366,239,ls),
(366,101,o),
(328,45,o),
(240,45,cs)
);
},
{
closed = 1;
nodes = (
(96,-10,l),
(128,53,l),
(132,53,l),
(379,589,l),
(383,589,l),
(436,700,l),
(383,700,l),
(351,637,l),
(347,637,l),
(100,101,l),
(96,101,l),
(44,-10,l)
);
}
);
userData = {
assembly = "NPUSHB[ ]	/* 118 values pushed */
2 3 0 11 10 13 12 18 15 26 5 28 17 3 25 13 31 18 31 26 21 28 85 2 84 4 90 8 89 13 89 17 91 19 80 23 85 28 121 42 20 11 9 3 24 6 27 31 10 31 11 17 24 22 27 38 9 39 47 117 3 127 9 127 10 127 11 127 12 121 18 112 24 112 25 112 26 112 27 19 6 2 42 47 30 46 4 50 33 52 12 9 24 27 4 6 21 2 50 52 6 10 42 47 30 46 4 39 43 21 0 12 9 24 27 4 15 0
PUSHW[ ]	/* 1 value pushed */
-4
PUSHB[ ]	/* 5 values pushed */
11 11 2 85 0
PUSHW[ ]	/* 1 value pushed */
-26
PUSHB[ ]	/* 5 values pushed */
9 9 2 85 0
PUSHW[ ]	/* 1 value pushed */
-30
PUSHB[ ]	/* 5 values pushed */
12 12 2 85 0
PUSHW[ ]	/* 1 value pushed */
-16
NPUSHB[ ]	/* 40 values pushed */
13 13 2 85 0 115 57 15 57 1 15 57 31 57 63 57 3 39 21 15 18 11 11 2 85 15 22 9 9 2 85 15 6 12 12 2 85 15 104 56
SRP0[ ]	/* SetRefPoint0 */
MIRP[10110]	/* MoveIndirectRelPt */
CALL[ ]	/* CallFunction */
CALL[ ]	/* CallFunction */
CALL[ ]	/* CallFunction */
MIRP[01101]	/* MoveIndirectRelPt */
DELTAP1[ ]	/* DeltaExceptionP1 */
DELTAP1[ ]	/* DeltaExceptionP1 */
SRP0[ ]	/* SetRefPoint0 */
MIRP[00100]	/* MoveIndirectRelPt */
CALL[ ]	/* CallFunction */
CALL[ ]	/* CallFunction */
CALL[ ]	/* CallFunction */
CALL[ ]	/* CallFunction */
SRP1[ ]	/* SetRefPoint1 */
SLOOP[ ]	/* SetLoopVariable */
IP[ ]	/* InterpolatePts */
SRP0[ ]	/* SetRefPoint0 */
MIRP[01101]	/* MoveIndirectRelPt */
SRP1[ ]	/* SetRefPoint1 */
SLOOP[ ]	/* SetLoopVariable */
IP[ ]	/* InterpolatePts */
SVTCA[0]	/* SetFreedomAndProjectionVectorToAxis */
MIAP[1]	/* MoveIndirectAbsPt */
MIRP[01101]	/* MoveIndirectRelPt */
MIAP[1]	/* MoveIndirectAbsPt */
SRP2[ ]	/* SetRefPoint2 */
SLOOP[ ]	/* SetLoopVariable */
IP[ ]	/* InterpolatePts */
MIRP[11101]	/* MoveIndirectRelPt */
SRP1[ ]	/* SetRefPoint1 */
SLOOP[ ]	/* SetLoopVariable */
IP[ ]	/* InterpolatePts */
RS[ ]	/* ReadStore */
EQ[ ]	/* Equal */
IF[ ]	/* If */
MPPEM[ ]	/* MeasurePixelPerEm */
PUSHB[ ]	/* 1 value pushed */
10
LTEQ[ ]	/* LessThenOrEqual */
IF[ ]	/* If */
NPUSHB[ ]	/* 9 values pushed */
6 10 15 26 22 26 3 26 10
MDAP[0]	/* MoveDirectAbsPt */
MDAP[0]	/* MoveDirectAbsPt */
DELTAP1[ ]	/* DeltaExceptionP1 */
EIF[ ]	/* EndIf */
EIF[ ]	/* EndIf */
IUP[1]	/* InterpolateUntPts */
IUP[0]	/* InterpolateUntPts */
DELTAP1[ ]	/* DeltaExceptionP1 */
SVTCA[1]	/* SetFreedomAndProjectionVectorToAxis */
DELTAP1[ ]	/* DeltaExceptionP1 */";
};
width = 479;
},
{
anchors = (
{
name = top;
pos = (240,690);
}
);
layerId = "FC0B0A46-298E-459F-AF16-26E3878B41A7";
shapes = (
{
closed = 1;
nodes = (
(386,-10,o),
(446,79,o),
(446,345,cs),
(446,611,o),
(386,700,o),
(240,700,cs),
(93.002,700,o),
(33,611,o),
(33,345,cs),
(33,79,o),
(93.002,-10,o),
(240,-10,cs)
);
},
{
closed = 1;
nodes = (
(183,93,o),
(159,123,o),
(159,194,cs),
(159,496,ls),
(159,567,o),
(183,597,o),
(240,597,cs),
(296,597,o),
(320,567,o),
(320,496,cs),
(320,194,ls),
(320,123,o),
(296,93,o),
(240,93,cs)
);
},
{
closed = 1;
nodes = (
(102,-10,l),
(138,61,l),
(148,61,l),
(376,577,l),
(388,577,l),
(449,700,l),
(377,700,l),
(343,633,l),
(333,633,l),
(104,116,l),
(93,116,l),
(31,-10,l)
);
}
);
userData = {
assembly = "NPUSHB[ ]	/* 118 values pushed */
2 3 0 11 10 13 12 18 15 26 5 28 17 3 25 13 31 18 31 26 21 28 85 2 84 4 90 8 89 13 89 17 91 19 80 23 85 28 121 42 20 11 9 3 24 6 27 31 10 31 11 17 24 22 27 38 9 39 47 117 3 127 9 127 10 127 11 127 12 121 18 112 24 112 25 112 26 112 27 19 6 2 42 47 30 46 4 50 33 52 12 9 24 27 4 6 21 2 50 52 6 10 42 47 30 46 4 39 43 21 0 12 9 24 27 4 15 0
PUSHW[ ]	/* 1 value pushed */
-4
PUSHB[ ]	/* 5 values pushed */
11 11 2 85 0
PUSHW[ ]	/* 1 value pushed */
-26
PUSHB[ ]	/* 5 values pushed */
9 9 2 85 0
PUSHW[ ]	/* 1 value pushed */
-30
PUSHB[ ]	/* 5 values pushed */
12 12 2 85 0
PUSHW[ ]	/* 1 value pushed */
-16
NPUSHB[ ]	/* 40 values pushed */
13 13 2 85 0 115 57 15 57 1 15 57 31 57 63 57 3 39 21 15 18 11 11 2 85 15 22 9 9 2 85 15 6 12 12 2 85 15 104 56
SRP0[ ]	/* SetRefPoint0 */
MIRP[10110]	/* MoveIndirectRelPt */
CALL[ ]	/* CallFunction */
CALL[ ]	/* CallFunction */
CALL[ ]	/* CallFunction */
MIRP[01101]	/* MoveIndirectRelPt */
DELTAP1[ ]	/* DeltaExceptionP1 */
DELTAP1[ ]	/* DeltaExceptionP1 */
SRP0[ ]	/* SetRefPoint0 */
MIRP[00100]	/* MoveIndirectRelPt */
CALL[ ]	/* CallFunction */
CALL[ ]	/* CallFunction */
CALL[ ]	/* CallFunction */
CALL[ ]	/* CallFunction */
SRP1[ ]	/* SetRefPoint1 */
SLOOP[ ]	/* SetLoopVariable */
IP[ ]	/* InterpolatePts */
SRP0[ ]	/* SetRefPoint0 */
MIRP[01101]	/* MoveIndirectRelPt */
SRP1[ ]	/* SetRefPoint1 */
SLOOP[ ]	/* SetLoopVariable */
IP[ ]	/* InterpolatePts */
SVTCA[0]	/* SetFreedomAndProjectionVectorToAxis */
MIAP[1]	/* MoveIndirectAbsPt */
MIRP[01101]	/* MoveIndirectRelPt */
MIAP[1]	/* MoveIndirectAbsPt */
SRP2[ ]	/* SetRefPoint2 */
SLOOP[ ]	/* SetLoopVariable */
IP[ ]	/* InterpolatePts */
MIRP[11101]	/* MoveIndirectRelPt */
SRP1[ ]	/* SetRefPoint1 */
SLOOP[ ]	/* SetLoopVariable */
IP[ ]	/* InterpolatePts */
RS[ ]	/* ReadStore */
EQ[ ]	/* Equal */
IF[ ]	/* If */
MPPEM[ ]	/* MeasurePixelPerEm */
PUSHB[ ]	/* 1 value pushed */
10
LTEQ[ ]	/* LessThenOrEqual */
IF[ ]	/* If */
NPUSHB[ ]	/* 9 values pushed */
6 10 15 26 22 26 3 26 10
MDAP[0]	/* MoveDirectAbsPt */
MDAP[0]	/* MoveDirectAbsPt */
DELTAP1[ ]	/* DeltaExceptionP1 */
EIF[ ]	/* EndIf */
EIF[ ]	/* EndIf */
IUP[1]	/* InterpolateUntPts */
IUP[0]	/* InterpolateUntPts */
DELTAP1[ ]	/* DeltaExceptionP1 */
SVTCA[1]	/* SetFreedomAndProjectionVectorToAxis */
DELTAP1[ ]	/* DeltaExceptionP1 */";
};
width = 479;
},
{
anchors = (
{
name = top;
pos = (419,690);
}
);
layerId = m005;
shapes = (
{
closed = 1;
nodes = (
(633,-10,o),
(765,126,o),
(765,345,cs),
(765,564,o),
(633,700,o),
(419,700,cs),
(205,700,o),
(73,564,o),
(73,345,cs),
(73,126,o),
(205,-10,o),
(419,-10,cs)
);
},
{
closed = 1;
nodes = (
(233,48,o),
(143,144,o),
(143,344,cs),
(143,346,ls),
(143,546,o),
(233,642,o),
(419,642,cs),
(605,642,o),
(695,546,o),
(695,346,cs),
(695,344,ls),
(695,144,o),
(605,48,o),
(419,48,cs)
);
},
{
closed = 1;
nodes = (
(143,-10,l),
(214,71,l),
(216,71,l),
(671,595,l),
(673,595,l),
(765,700,l),
(695,700,l),
(624,619,l),
(622,619,l),
(167,95,l),
(165,95,l),
(73,-10,l)
);
}
);
width = 837;
},
{
anchors = (
{
name = top;
pos = (419,690);
}
);
layerId = "EBD6C0FC-C5AB-4FD7-AC9E-8019678F82E3";
shapes = (
{
closed = 1;
nodes = (
(648,-10,o),
(790,126,o),
(790,345,cs),
(790,564,o),
(648,700,o),
(419,700,cs),
(190,700,o),
(48,564,o),
(48,345,cs),
(48,126,o),
(190,-10,o),
(419,-10,cs)
);
},
{
closed = 1;
nodes = (
(281,110,o),
(219,183,o),
(219,342,cs),
(219,348,ls),
(219,507,o),
(281,580,o),
(419,580,cs),
(557,580,o),
(619,507,o),
(619,348,cs),
(619,342,ls),
(619,183,o),
(557,110,o),
(419,110,cs)
);
},
{
closed = 1;
nodes = (
(176,-10,l),
(248,75,l),
(254,75,l),
(666,568,l),
(672,568,l),
(786,700,l),
(662,700,l),
(590,615,l),
(584,615,l),
(172,122,l),
(166,122,l),
(52,-10,l)
);
}
);
width = 837;
},
{
anchors = (
{
name = top;
pos = (350,690);
}
);
layerId = "160EFA77-7C0F-4DC0-BCB1-F97DA92D519B";
shapes = (
{
closed = 1;
nodes = (
(533,-10,o),
(635,108,o),
(635,345,cs),
(635,582,o),
(533,700,o),
(350,700,cs),
(166,700,o),
(64,582,o),
(64,345,cs),
(64,108,o),
(166,-10,o),
(350,-10,cs)
);
},
{
closed = 1;
nodes = (
(201,47,o),
(132,127,o),
(132,303,cs),
(132,387,ls),
(132,563,o),
(201,643,o),
(350,643,cs),
(498,643,o),
(567,563,o),
(567,387,cs),
(567,303,ls),
(567,127,o),
(498,47,o),
(350,47,cs)
);
},
{
closed = 1;
nodes = (
(125,-10,l),
(181,64,l),
(183,64,l),
(558,593,l),
(561,593,l),
(637,700,l),
(574,700,l),
(518,626,l),
(515,626,l),
(141,97,l),
(138,97,l),
(62,-10,l)
);
}
);
userData = {
assembly = "NPUSHB[ ]	/* 118 values pushed */
2 3 0 11 10 13 12 18 15 26 5 28 17 3 25 13 31 18 31 26 21 28 85 2 84 4 90 8 89 13 89 17 91 19 80 23 85 28 121 42 20 11 9 3 24 6 27 31 10 31 11 17 24 22 27 38 9 39 47 117 3 127 9 127 10 127 11 127 12 121 18 112 24 112 25 112 26 112 27 19 6 2 42 47 30 46 4 50 33 52 12 9 24 27 4 6 21 2 50 52 6 10 42 47 30 46 4 39 43 21 0 12 9 24 27 4 15 0
PUSHW[ ]	/* 1 value pushed */
-4
PUSHB[ ]	/* 5 values pushed */
11 11 2 85 0
PUSHW[ ]	/* 1 value pushed */
-26
PUSHB[ ]	/* 5 values pushed */
9 9 2 85 0
PUSHW[ ]	/* 1 value pushed */
-30
PUSHB[ ]	/* 5 values pushed */
12 12 2 85 0
PUSHW[ ]	/* 1 value pushed */
-16
NPUSHB[ ]	/* 40 values pushed */
13 13 2 85 0 115 57 15 57 1 15 57 31 57 63 57 3 39 21 15 18 11 11 2 85 15 22 9 9 2 85 15 6 12 12 2 85 15 104 56
SRP0[ ]	/* SetRefPoint0 */
MIRP[10110]	/* MoveIndirectRelPt */
CALL[ ]	/* CallFunction */
CALL[ ]	/* CallFunction */
CALL[ ]	/* CallFunction */
MIRP[01101]	/* MoveIndirectRelPt */
DELTAP1[ ]	/* DeltaExceptionP1 */
DELTAP1[ ]	/* DeltaExceptionP1 */
SRP0[ ]	/* SetRefPoint0 */
MIRP[00100]	/* MoveIndirectRelPt */
CALL[ ]	/* CallFunction */
CALL[ ]	/* CallFunction */
CALL[ ]	/* CallFunction */
CALL[ ]	/* CallFunction */
SRP1[ ]	/* SetRefPoint1 */
SLOOP[ ]	/* SetLoopVariable */
IP[ ]	/* InterpolatePts */
SRP0[ ]	/* SetRefPoint0 */
MIRP[01101]	/* MoveIndirectRelPt */
SRP1[ ]	/* SetRefPoint1 */
SLOOP[ ]	/* SetLoopVariable */
IP[ ]	/* InterpolatePts */
SVTCA[0]	/* SetFreedomAndProjectionVectorToAxis */
MIAP[1]	/* MoveIndirectAbsPt */
MIRP[01101]	/* MoveIndirectRelPt */
MIAP[1]	/* MoveIndirectAbsPt */
SRP2[ ]	/* SetRefPoint2 */
SLOOP[ ]	/* SetLoopVariable */
IP[ ]	/* InterpolatePts */
MIRP[11101]	/* MoveIndirectRelPt */
SRP1[ ]	/* SetRefPoint1 */
SLOOP[ ]	/* SetLoopVariable */
IP[ ]	/* InterpolatePts */
RS[ ]	/* ReadStore */
EQ[ ]	/* Equal */
IF[ ]	/* If */
MPPEM[ ]	/* MeasurePixelPerEm */
PUSHB[ ]	/* 1 value pushed */
10
LTEQ[ ]	/* LessThenOrEqual */
IF[ ]	/* If */
NPUSHB[ ]	/* 9 values pushed */
6 10 15 26 22 26 3 26 10
MDAP[0]	/* MoveDirectAbsPt */
MDAP[0]	/* MoveDirectAbsPt */
DELTAP1[ ]	/* DeltaExceptionP1 */
EIF[ ]	/* EndIf */
EIF[ ]	/* EndIf */
IUP[1]	/* InterpolateUntPts */
IUP[0]	/* InterpolateUntPts */
DELTAP1[ ]	/* DeltaExceptionP1 */
SVTCA[1]	/* SetFreedomAndProjectionVectorToAxis */
DELTAP1[ ]	/* DeltaExceptionP1 */";
};
width = 698.12069;
},
{
anchors = (
{
name = top;
pos = (350,690);
}
);
layerId = "F0C7097F-19D1-44A8-AB3C-28AAB548B4C8";
shapes = (
{
closed = 1;
nodes = (
(546,-10,o),
(657,108,o),
(657,345,cs),
(657,582,o),
(546,700,o),
(350,700,cs),
(152,700,o),
(42,582,o),
(42,345,cs),
(42,108,o),
(152,-10,o),
(350,-10,cs)
);
},
{
closed = 1;
nodes = (
(243,103,o),
(196,160,o),
(196,285,cs),
(196,405,ls),
(196,530,o),
(243,587,o),
(350,587,cs),
(456,587,o),
(503,530,o),
(503,405,cs),
(503,285,ls),
(503,160,o),
(456,103,o),
(350,103,cs)
);
},
{
closed = 1;
nodes = (
(147,-10,l),
(205,70,l),
(213,70,l),
(554,571,l),
(562,571,l),
(655,700,l),
(551,700,l),
(494,622,l),
(487,622,l),
(146,120,l),
(138,120,l),
(44,-10,l)
);
}
);
userData = {
assembly = "NPUSHB[ ]	/* 118 values pushed */
2 3 0 11 10 13 12 18 15 26 5 28 17 3 25 13 31 18 31 26 21 28 85 2 84 4 90 8 89 13 89 17 91 19 80 23 85 28 121 42 20 11 9 3 24 6 27 31 10 31 11 17 24 22 27 38 9 39 47 117 3 127 9 127 10 127 11 127 12 121 18 112 24 112 25 112 26 112 27 19 6 2 42 47 30 46 4 50 33 52 12 9 24 27 4 6 21 2 50 52 6 10 42 47 30 46 4 39 43 21 0 12 9 24 27 4 15 0
PUSHW[ ]	/* 1 value pushed */
-4
PUSHB[ ]	/* 5 values pushed */
11 11 2 85 0
PUSHW[ ]	/* 1 value pushed */
-26
PUSHB[ ]	/* 5 values pushed */
9 9 2 85 0
PUSHW[ ]	/* 1 value pushed */
-30
PUSHB[ ]	/* 5 values pushed */
12 12 2 85 0
PUSHW[ ]	/* 1 value pushed */
-16
NPUSHB[ ]	/* 40 values pushed */
13 13 2 85 0 115 57 15 57 1 15 57 31 57 63 57 3 39 21 15 18 11 11 2 85 15 22 9 9 2 85 15 6 12 12 2 85 15 104 56
SRP0[ ]	/* SetRefPoint0 */
MIRP[10110]	/* MoveIndirectRelPt */
CALL[ ]	/* CallFunction */
CALL[ ]	/* CallFunction */
CALL[ ]	/* CallFunction */
MIRP[01101]	/* MoveIndirectRelPt */
DELTAP1[ ]	/* DeltaExceptionP1 */
DELTAP1[ ]	/* DeltaExceptionP1 */
SRP0[ ]	/* SetRefPoint0 */
MIRP[00100]	/* MoveIndirectRelPt */
CALL[ ]	/* CallFunction */
CALL[ ]	/* CallFunction */
CALL[ ]	/* CallFunction */
CALL[ ]	/* CallFunction */
SRP1[ ]	/* SetRefPoint1 */
SLOOP[ ]	/* SetLoopVariable */
IP[ ]	/* InterpolatePts */
SRP0[ ]	/* SetRefPoint0 */
MIRP[01101]	/* MoveIndirectRelPt */
SRP1[ ]	/* SetRefPoint1 */
SLOOP[ ]	/* SetLoopVariable */
IP[ ]	/* InterpolatePts */
SVTCA[0]	/* SetFreedomAndProjectionVectorToAxis */
MIAP[1]	/* MoveIndirectAbsPt */
MIRP[01101]	/* MoveIndirectRelPt */
MIAP[1]	/* MoveIndirectAbsPt */
SRP2[ ]	/* SetRefPoint2 */
SLOOP[ ]	/* SetLoopVariable */
IP[ ]	/* InterpolatePts */
MIRP[11101]	/* MoveIndirectRelPt */
SRP1[ ]	/* SetRefPoint1 */
SLOOP[ ]	/* SetLoopVariable */
IP[ ]	/* InterpolatePts */
RS[ ]	/* ReadStore */
EQ[ ]	/* Equal */
IF[ ]	/* If */
MPPEM[ ]	/* MeasurePixelPerEm */
PUSHB[ ]	/* 1 value pushed */
10
LTEQ[ ]	/* LessThenOrEqual */
IF[ ]	/* If */
NPUSHB[ ]	/* 9 values pushed */
6 10 15 26 22 26 3 26 10
MDAP[0]	/* MoveDirectAbsPt */
MDAP[0]	/* MoveDirectAbsPt */
DELTAP1[ ]	/* DeltaExceptionP1 */
EIF[ ]	/* EndIf */
EIF[ ]	/* EndIf */
IUP[1]	/* InterpolateUntPts */
IUP[0]	/* InterpolateUntPts */
DELTAP1[ ]	/* DeltaExceptionP1 */
SVTCA[1]	/* SetFreedomAndProjectionVectorToAxis */
DELTAP1[ ]	/* DeltaExceptionP1 */";
};
width = 698.12069;
}
);
note = Oslash;
unicode = 216;
},
{
color = 4;
glyphname = OE;
kernLeft = O;
kernRight = E.ss03;
lastChange = "2025-02-11 14:17:34 +0000";
layers = (
{
anchors = (
{
name = ogonek;
pos = (623,0);
},
{
name = top;
pos = (462,690);
}
);
layerId = "F0CEC32E-C9EC-4613-8DDA-69A48990CD60";
shapes = (
{
closed = 1;
nodes = (
(352,0,l),
(352,51,l),
(237,51,ls),
(149,51,o),
(112,98,o),
(112,236,cs),
(112,454,ls),
(112,592,o),
(149,639,o),
(237,639,cs),
(352,639,l),
(352,690,l),
(233,690,ls),
(97,690,o),
(48,614,o),
(48,345,cs),
(48,76,o),
(97,0,o),
(233,0,cs)
);
},
{
closed = 1;
nodes = (
(619,494,l),
(619,690,l),
(320,690,l),
(320,0,l),
(623,0,l),
(623,200,l),
(571,200,l),
(571,51,l),
(380,51,l),
(380,328,l),
(548,328,l),
(548,376,l),
(380,376,l),
(380,639,l),
(567,639,l),
(567,494,l)
);
}
);
userData = {
assembly = "NPUSHB[ ]	/* 26 values pushed */
0 28 0 34 48 28 48 34 64 28 64 34 114 4 114 10 114 28 116 29 114 35 11 20 53 17
PUSHW[ ]	/* 1 value pushed */
-64
NPUSHB[ ]	/* 35 values pushed */
15 15 2 85 17 17 1 24 52 16 53 13 3 23 52 21 53 1 8 17 20 4 12 12 2 85 20 20 23 4 16 16 2 85 23
PUSHW[ ]	/* 1 value pushed */
-18
PUSHB[ ]	/* 5 values pushed */
15 15 2 85 23
PUSHW[ ]	/* 1 value pushed */
-10
NPUSHB[ ]	/* 11 values pushed */
13 13 2 85 23 18 12 12 2 85 23
PUSHW[ ]	/* 1 value pushed */
-6
PUSHB[ ]	/* 5 values pushed */
11 11 2 85 23
PUSHW[ ]	/* 1 value pushed */
-10
PUSHB[ ]	/* 5 values pushed */
15 15 6 85 23
PUSHW[ ]	/* 1 value pushed */
-17
NPUSHB[ ]	/* 11 values pushed */
13 13 6 85 23 17 12 12 6 85 23
PUSHW[ ]	/* 1 value pushed */
-5
NPUSHB[ ]	/* 36 values pushed */
9 9 6 85 23 23 14 18 3 7 0 115 39 31 21 7 18 11 11 2 85 7 22 9 9 2 85 7 6 12 12 2 85 7 104 38
SRP0[ ]	/* SetRefPoint0 */
MIRP[10110]	/* MoveIndirectRelPt */
CALL[ ]	/* CallFunction */
CALL[ ]	/* CallFunction */
CALL[ ]	/* CallFunction */
MIRP[01101]	/* MoveIndirectRelPt */
SRP0[ ]	/* SetRefPoint0 */
MIRP[00110]	/* MoveIndirectRelPt */
SRP1[ ]	/* SetRefPoint1 */
SLOOP[ ]	/* SetLoopVariable */
IP[ ]	/* InterpolatePts */
MDAP[1]	/* MoveDirectAbsPt */
CALL[ ]	/* CallFunction */
CALL[ ]	/* CallFunction */
CALL[ ]	/* CallFunction */
CALL[ ]	/* CallFunction */
CALL[ ]	/* CallFunction */
CALL[ ]	/* CallFunction */
CALL[ ]	/* CallFunction */
CALL[ ]	/* CallFunction */
CALL[ ]	/* CallFunction */
MIRP[11101]	/* MoveIndirectRelPt */
CALL[ ]	/* CallFunction */
SHP[0]	/* ShiftPointByLastPoint */
SVTCA[0]	/* SetFreedomAndProjectionVectorToAxis */
MIAP[1]	/* MoveIndirectAbsPt */
MIRP[01101]	/* MoveIndirectRelPt */
MIRP[01101]	/* MoveIndirectRelPt */
MIAP[1]	/* MoveIndirectAbsPt */
MIRP[01101]	/* MoveIndirectRelPt */
MIRP[01101]	/* MoveIndirectRelPt */
SRP2[ ]	/* SetRefPoint2 */
IP[ ]	/* InterpolatePts */
MDAP[1]	/* MoveDirectAbsPt */
CALL[ ]	/* CallFunction */
MIRP[01101]	/* MoveIndirectRelPt */
IUP[1]	/* InterpolateUntPts */
IUP[0]	/* InterpolateUntPts */
SVTCA[1]	/* SetFreedomAndProjectionVectorToAxis */
DELTAP1[ ]	/* DeltaExceptionP1 */";
};
width = 671;
},
{
anchors = (
{
name = ogonek;
pos = (641,0);
},
{
name = top;
pos = (460,690);
}
);
layerId = "FC0B0A46-298E-459F-AF16-26E3878B41A7";
shapes = (
{
closed = 1;
nodes = (
(356,0,l),
(356,98,l),
(237,98,ls),
(184,98,o),
(161,127,o),
(161,195,cs),
(161,495,ls),
(161,563,o),
(184,592,o),
(237,592,cs),
(356,592,l),
(356,690,l),
(229,690,ls),
(83,690,o),
(32,614,o),
(32,345,cs),
(32,78,o),
(83,0,o),
(229,0,cs)
);
},
{
closed = 1;
nodes = (
(637,483,l),
(637,690,l),
(298,690,l),
(298,0,l),
(641,0,l),
(641,211,l),
(538,211,l),
(538,98,l),
(419,98,l),
(419,307,l),
(558,307,l),
(558,397,l),
(419,397,l),
(419,592,l),
(534,592,l),
(534,483,l)
);
}
);
userData = {
assembly = "NPUSHB[ ]	/* 26 values pushed */
0 28 0 34 48 28 48 34 64 28 64 34 114 4 114 10 114 28 116 29 114 35 11 20 53 17
PUSHW[ ]	/* 1 value pushed */
-64
NPUSHB[ ]	/* 35 values pushed */
15 15 2 85 17 17 1 24 52 16 53 13 3 23 52 21 53 1 8 17 20 4 12 12 2 85 20 20 23 4 16 16 2 85 23
PUSHW[ ]	/* 1 value pushed */
-18
PUSHB[ ]	/* 5 values pushed */
15 15 2 85 23
PUSHW[ ]	/* 1 value pushed */
-10
NPUSHB[ ]	/* 11 values pushed */
13 13 2 85 23 18 12 12 2 85 23
PUSHW[ ]	/* 1 value pushed */
-6
PUSHB[ ]	/* 5 values pushed */
11 11 2 85 23
PUSHW[ ]	/* 1 value pushed */
-10
PUSHB[ ]	/* 5 values pushed */
15 15 6 85 23
PUSHW[ ]	/* 1 value pushed */
-17
NPUSHB[ ]	/* 11 values pushed */
13 13 6 85 23 17 12 12 6 85 23
PUSHW[ ]	/* 1 value pushed */
-5
NPUSHB[ ]	/* 36 values pushed */
9 9 6 85 23 23 14 18 3 7 0 115 39 31 21 7 18 11 11 2 85 7 22 9 9 2 85 7 6 12 12 2 85 7 104 38
SRP0[ ]	/* SetRefPoint0 */
MIRP[10110]	/* MoveIndirectRelPt */
CALL[ ]	/* CallFunction */
CALL[ ]	/* CallFunction */
CALL[ ]	/* CallFunction */
MIRP[01101]	/* MoveIndirectRelPt */
SRP0[ ]	/* SetRefPoint0 */
MIRP[00110]	/* MoveIndirectRelPt */
SRP1[ ]	/* SetRefPoint1 */
SLOOP[ ]	/* SetLoopVariable */
IP[ ]	/* InterpolatePts */
MDAP[1]	/* MoveDirectAbsPt */
CALL[ ]	/* CallFunction */
CALL[ ]	/* CallFunction */
CALL[ ]	/* CallFunction */
CALL[ ]	/* CallFunction */
CALL[ ]	/* CallFunction */
CALL[ ]	/* CallFunction */
CALL[ ]	/* CallFunction */
CALL[ ]	/* CallFunction */
CALL[ ]	/* CallFunction */
MIRP[11101]	/* MoveIndirectRelPt */
CALL[ ]	/* CallFunction */
SHP[0]	/* ShiftPointByLastPoint */
SVTCA[0]	/* SetFreedomAndProjectionVectorToAxis */
MIAP[1]	/* MoveIndirectAbsPt */
MIRP[01101]	/* MoveIndirectRelPt */
MIRP[01101]	/* MoveIndirectRelPt */
MIAP[1]	/* MoveIndirectAbsPt */
MIRP[01101]	/* MoveIndirectRelPt */
MIRP[01101]	/* MoveIndirectRelPt */
SRP2[ ]	/* SetRefPoint2 */
IP[ ]	/* InterpolatePts */
MDAP[1]	/* MoveDirectAbsPt */
CALL[ ]	/* CallFunction */
MIRP[01101]	/* MoveIndirectRelPt */
IUP[1]	/* InterpolateUntPts */
IUP[0]	/* InterpolateUntPts */
SVTCA[1]	/* SetFreedomAndProjectionVectorToAxis */
DELTAP1[ ]	/* DeltaExceptionP1 */";
};
width = 671;
},
{
anchors = (
{
name = ogonek;
pos = (1119,0);
},
{
name = top;
pos = (859,690);
}
);
layerId = m005;
shapes = (
{
closed = 1;
nodes = (
(636,0,l),
(636,54,l),
(411,54,ls),
(228,54,o),
(139,144,o),
(139,344,cs),
(139,346,ls),
(139,546,o),
(228,636,o),
(411,636,cs),
(636,636,l),
(636,690,l),
(405,690,ls),
(188,690,o),
(69,568,o),
(69,345,cs),
(69,122,o),
(188,0,o),
(405,0,cs)
);
},
{
closed = 1;
nodes = (
(1115,494,l),
(1115,690,l),
(601,690,l),
(601,0,l),
(1119,0,l),
(1119,200,l),
(1061,200,l),
(1061,54,l),
(667,54,l),
(667,326,l),
(1003,326,l),
(1003,378,l),
(667,378,l),
(667,636,l),
(1057,636,l),
(1057,494,l)
);
}
);
width = 1191;
},
{
anchors = (
{
name = ogonek;
pos = (1137,0);
},
{
name = top;
pos = (849,690);
}
);
layerId = "EBD6C0FC-C5AB-4FD7-AC9E-8019678F82E3";
shapes = (
{
closed = 1;
nodes = (
(662,0,l),
(662,112,l),
(412,112,ls),
(277,112,o),
(216,184,o),
(216,342,cs),
(216,348,ls),
(216,506,o),
(277,578,o),
(412,578,cs),
(662,578,l),
(662,690,l),
(401,690,ls),
(171,690,o),
(45,568,o),
(45,345,cs),
(45,122,o),
(171,0,o),
(401,0,cs)
);
},
{
closed = 1;
nodes = (
(1133,483,l),
(1133,690,l),
(563,690,l),
(563,0,l),
(1137,0,l),
(1137,211,l),
(1004,211,l),
(1004,112,l),
(726,112,l),
(726,300,l),
(1014,300,l),
(1014,404,l),
(726,404,l),
(726,578,l),
(1000,578,l),
(1000,483,l)
);
}
);
width = 1191;
},
{
anchors = (
{
name = ogonek;
pos = (927,0);
},
{
name = top;
pos = (705,690);
}
);
layerId = "160EFA77-7C0F-4DC0-BCB1-F97DA92D519B";
shapes = (
{
closed = 1;
nodes = (
(526,0,l),
(526,53,l),
(344,53,ls),
(197,53,o),
(129,126,o),
(129,302,cs),
(129,388,ls),
(129,564,o),
(197,637,o),
(344,637,cs),
(526,637,l),
(526,690,l),
(338,690,ls),
(153,690,o),
(61,586,o),
(61,345,cs),
(61,104,o),
(153,0,o),
(338,0,cs)
);
},
{
closed = 1;
nodes = (
(923,494,l),
(923,690,l),
(491.991,690,l),
(491.991,0,l),
(927,0,l),
(927,200,l),
(871,200,l),
(871,53,l),
(556,53,l),
(556,327,l),
(826,327,l),
(826,377,l),
(556,377,l),
(556,637,l),
(867,637,l),
(867,494,l)
);
}
);
userData = {
assembly = "NPUSHB[ ]	/* 26 values pushed */
0 28 0 34 48 28 48 34 64 28 64 34 114 4 114 10 114 28 116 29 114 35 11 20 53 17
PUSHW[ ]	/* 1 value pushed */
-64
NPUSHB[ ]	/* 35 values pushed */
15 15 2 85 17 17 1 24 52 16 53 13 3 23 52 21 53 1 8 17 20 4 12 12 2 85 20 20 23 4 16 16 2 85 23
PUSHW[ ]	/* 1 value pushed */
-18
PUSHB[ ]	/* 5 values pushed */
15 15 2 85 23
PUSHW[ ]	/* 1 value pushed */
-10
NPUSHB[ ]	/* 11 values pushed */
13 13 2 85 23 18 12 12 2 85 23
PUSHW[ ]	/* 1 value pushed */
-6
PUSHB[ ]	/* 5 values pushed */
11 11 2 85 23
PUSHW[ ]	/* 1 value pushed */
-10
PUSHB[ ]	/* 5 values pushed */
15 15 6 85 23
PUSHW[ ]	/* 1 value pushed */
-17
NPUSHB[ ]	/* 11 values pushed */
13 13 6 85 23 17 12 12 6 85 23
PUSHW[ ]	/* 1 value pushed */
-5
NPUSHB[ ]	/* 36 values pushed */
9 9 6 85 23 23 14 18 3 7 0 115 39 31 21 7 18 11 11 2 85 7 22 9 9 2 85 7 6 12 12 2 85 7 104 38
SRP0[ ]	/* SetRefPoint0 */
MIRP[10110]	/* MoveIndirectRelPt */
CALL[ ]	/* CallFunction */
CALL[ ]	/* CallFunction */
CALL[ ]	/* CallFunction */
MIRP[01101]	/* MoveIndirectRelPt */
SRP0[ ]	/* SetRefPoint0 */
MIRP[00110]	/* MoveIndirectRelPt */
SRP1[ ]	/* SetRefPoint1 */
SLOOP[ ]	/* SetLoopVariable */
IP[ ]	/* InterpolatePts */
MDAP[1]	/* MoveDirectAbsPt */
CALL[ ]	/* CallFunction */
CALL[ ]	/* CallFunction */
CALL[ ]	/* CallFunction */
CALL[ ]	/* CallFunction */
CALL[ ]	/* CallFunction */
CALL[ ]	/* CallFunction */
CALL[ ]	/* CallFunction */
CALL[ ]	/* CallFunction */
CALL[ ]	/* CallFunction */
MIRP[11101]	/* MoveIndirectRelPt */
CALL[ ]	/* CallFunction */
SHP[0]	/* ShiftPointByLastPoint */
SVTCA[0]	/* SetFreedomAndProjectionVectorToAxis */
MIAP[1]	/* MoveIndirectAbsPt */
MIRP[01101]	/* MoveIndirectRelPt */
MIRP[01101]	/* MoveIndirectRelPt */
MIAP[1]	/* MoveIndirectAbsPt */
MIRP[01101]	/* MoveIndirectRelPt */
MIRP[01101]	/* MoveIndirectRelPt */
SRP2[ ]	/* SetRefPoint2 */
IP[ ]	/* InterpolatePts */
MDAP[1]	/* MoveDirectAbsPt */
CALL[ ]	/* CallFunction */
MIRP[01101]	/* MoveIndirectRelPt */
IUP[1]	/* InterpolateUntPts */
IUP[0]	/* InterpolateUntPts */
SVTCA[1]	/* SetFreedomAndProjectionVectorToAxis */
DELTAP1[ ]	/* DeltaExceptionP1 */";
};
width = 989.27586;
},
{
anchors = (
{
name = ogonek;
pos = (945,0);
},
{
name = top;
pos = (698,690);
}
);
layerId = "F0C7097F-19D1-44A8-AB3C-28AAB548B4C8";
shapes = (
{
closed = 1;
nodes = (
(543,0,l),
(543,107,l),
(344,107,ls),
(241,107,o),
(195,162,o),
(195,285,cs),
(195,405,ls),
(195,528,o),
(241,583,o),
(344,583,cs),
(543,583,l),
(543,690,l),
(334,690,ls),
(137,690,o),
(40,586,o),
(40,345,cs),
(40,105,o),
(137,0,o),
(334,0,cs)
);
},
{
closed = 1;
nodes = (
(941,483,l),
(941,690,l),
(460,690,l),
(460,0,l),
(945,0,l),
(945,211,l),
(823,211,l),
(823,107,l),
(607,107,l),
(607,303,l),
(837,303,l),
(837,401,l),
(607,401,l),
(607,583,l),
(819,583,l),
(819,483,l)
);
}
);
userData = {
assembly = "NPUSHB[ ]	/* 26 values pushed */
0 28 0 34 48 28 48 34 64 28 64 34 114 4 114 10 114 28 116 29 114 35 11 20 53 17
PUSHW[ ]	/* 1 value pushed */
-64
NPUSHB[ ]	/* 35 values pushed */
15 15 2 85 17 17 1 24 52 16 53 13 3 23 52 21 53 1 8 17 20 4 12 12 2 85 20 20 23 4 16 16 2 85 23
PUSHW[ ]	/* 1 value pushed */
-18
PUSHB[ ]	/* 5 values pushed */
15 15 2 85 23
PUSHW[ ]	/* 1 value pushed */
-10
NPUSHB[ ]	/* 11 values pushed */
13 13 2 85 23 18 12 12 2 85 23
PUSHW[ ]	/* 1 value pushed */
-6
PUSHB[ ]	/* 5 values pushed */
11 11 2 85 23
PUSHW[ ]	/* 1 value pushed */
-10
PUSHB[ ]	/* 5 values pushed */
15 15 6 85 23
PUSHW[ ]	/* 1 value pushed */
-17
NPUSHB[ ]	/* 11 values pushed */
13 13 6 85 23 17 12 12 6 85 23
PUSHW[ ]	/* 1 value pushed */
-5
NPUSHB[ ]	/* 36 values pushed */
9 9 6 85 23 23 14 18 3 7 0 115 39 31 21 7 18 11 11 2 85 7 22 9 9 2 85 7 6 12 12 2 85 7 104 38
SRP0[ ]	/* SetRefPoint0 */
MIRP[10110]	/* MoveIndirectRelPt */
CALL[ ]	/* CallFunction */
CALL[ ]	/* CallFunction */
CALL[ ]	/* CallFunction */
MIRP[01101]	/* MoveIndirectRelPt */
SRP0[ ]	/* SetRefPoint0 */
MIRP[00110]	/* MoveIndirectRelPt */
SRP1[ ]	/* SetRefPoint1 */
SLOOP[ ]	/* SetLoopVariable */
IP[ ]	/* InterpolatePts */
MDAP[1]	/* MoveDirectAbsPt */
CALL[ ]	/* CallFunction */
CALL[ ]	/* CallFunction */
CALL[ ]	/* CallFunction */
CALL[ ]	/* CallFunction */
CALL[ ]	/* CallFunction */
CALL[ ]	/* CallFunction */
CALL[ ]	/* CallFunction */
CALL[ ]	/* CallFunction */
CALL[ ]	/* CallFunction */
MIRP[11101]	/* MoveIndirectRelPt */
CALL[ ]	/* CallFunction */
SHP[0]	/* ShiftPointByLastPoint */
SVTCA[0]	/* SetFreedomAndProjectionVectorToAxis */
MIAP[1]	/* MoveIndirectAbsPt */
MIRP[01101]	/* MoveIndirectRelPt */
MIRP[01101]	/* MoveIndirectRelPt */
MIAP[1]	/* MoveIndirectAbsPt */
MIRP[01101]	/* MoveIndirectRelPt */
MIRP[01101]	/* MoveIndirectRelPt */
SRP2[ ]	/* SetRefPoint2 */
IP[ ]	/* InterpolatePts */
MDAP[1]	/* MoveDirectAbsPt */
CALL[ ]	/* CallFunction */
MIRP[01101]	/* MoveIndirectRelPt */
IUP[1]	/* InterpolateUntPts */
IUP[0]	/* InterpolateUntPts */
SVTCA[1]	/* SetFreedomAndProjectionVectorToAxis */
DELTAP1[ ]	/* DeltaExceptionP1 */";
};
width = 989.27586;
}
);
note = OE;
unicode = 338;
},
{
color = 4;
glyphname = P;
kernLeft = H.ss03;
kernRight = P.ss03;
lastChange = "2025-02-11 14:17:34 +0000";
layers = (
{
layerId = "F0CEC32E-C9EC-4613-8DDA-69A48990CD60";
shapes = (
{
closed = 1;
nodes = (
(137,0,l),
(137,305,l),
(259,305,ls),
(359,305,o),
(408,365,o),
(408,497,cs),
(408,629,o),
(359,690,o),
(258,690,cs),
(18,690,l),
(18,639,l),
(78,639,l),
(78,0,l)
);
},
{
closed = 1;
nodes = (
(137,639,l),
(253,639,ls),
(316,639,o),
(347,605,o),
(347,533,cs),
(347,460,ls),
(347,389,o),
(316,354,o),
(253,354,cs),
(137,354,l)
);
}
);
width = 442;
},
{
layerId = "FC0B0A46-298E-459F-AF16-26E3878B41A7";
shapes = (
{
closed = 1;
nodes = (
(175,0,l),
(175,284,l),
(259,284,ls),
(373,284,o),
(426,346,o),
(426,484,cs),
(426,627,o),
(372,690,o),
(255,690,cs),
(13,690,l),
(13,592,l),
(53,592,l),
(53,0,l)
);
},
{
closed = 1;
nodes = (
(175,592,l),
(247,592,ls),
(284,592,o),
(301,572,o),
(301,531,cs),
(301,436,ls),
(301,395,o),
(284,375,o),
(247,375,cs),
(175,375,l)
);
}
);
width = 442;
},
{
layerId = m005;
shapes = (
{
closed = 1;
nodes = (
(197,0,l),
(197,296,l),
(462,296,ls),
(589,296,o),
(669,372,o),
(669,492,cs),
(669,614,o),
(589,690,o),
(462,690,cs),
(19,690,l),
(19,636,l),
(131,636,l),
(131,0,l)
);
},
{
closed = 1;
nodes = (
(197,636,l),
(456,636,ls),
(550,636,o),
(601,586,o),
(601,493,cs),
(601,491,ls),
(601,398,o),
(550,348,o),
(456,348,cs),
(197,348,l)
);
}
);
width = 722;
},
{
layerId = "EBD6C0FC-C5AB-4FD7-AC9E-8019678F82E3";
shapes = (
{
closed = 1;
nodes = (
(253,0,l),
(253,270,l),
(447,270,ls),
(609,270,o),
(697,343,o),
(697,476,cs),
(697,615,o),
(608,690,o),
(445,690,cs),
(14,690,l),
(14,578,l),
(91,578,l),
(91,0,l)
);
},
{
closed = 1;
nodes = (
(253,578,l),
(434,578,ls),
(500,578,o),
(531,546,o),
(531,479,cs),
(531,473,ls),
(531,406,o),
(500,374,o),
(434,374,cs),
(253,374,l)
);
}
);
width = 722;
},
{
layerId = "160EFA77-7C0F-4DC0-BCB1-F97DA92D519B";
shapes = (
{
closed = 1;
nodes = (
(174,0,l),
(174,299,l),
(383,299,ls),
(500,299,o),
(568,369,o),
(568,494,cs),
(568,620,o),
(500,690,o),
(383,690,cs),
(19,690,l),
(19,637,l),
(110,637,l),
(110,0,l)
);
},
{
closed = 1;
nodes = (
(174,637,l),
(377,637,ls),
(459,637,o),
(502,593,o),
(502,509,cs),
(502,479,ls),
(502,395,o),
(459,350,o),
(377,350,cs),
(174,350,l)
);
}
);
width = 613.37931;
},
{
layerId = "F0C7097F-19D1-44A8-AB3C-28AAB548B4C8";
shapes = (
{
closed = 1;
nodes = (
(223,0,l),
(223,275,l),
(374,275,ls),
(517,275,o),
(592,344,o),
(592,479,cs),
(592,620,o),
(516,690,o),
(371,690,cs),
(14,690,l),
(14,583,l),
(76,583,l),
(76,0,l)
);
},
{
closed = 1;
nodes = (
(223,583,l),
(361,583,ls),
(416,583,o),
(442,556,o),
(442,499,cs),
(442,459,ls),
(442,402,o),
(416,374,o),
(361,374,cs),
(223,374,l)
);
}
);
width = 613.37931;
}
);
unicode = 80;
userData = {
KernOnName = P;
};
},
{
color = 4;
glyphname = Thorn;
kernLeft = H.ss03;
lastChange = "2025-02-11 14:17:34 +0000";
layers = (
{
layerId = "F0CEC32E-C9EC-4613-8DDA-69A48990CD60";
shapes = (
{
closed = 1;
nodes = (
(267,161,ls),
(367,161,o),
(416,220,o),
(416,352,cs),
(416,484,o),
(367,543,o),
(266,543,cs),
(116,543,l),
(116,494,l),
(261,494,ls),
(324,494,o),
(354,460,o),
(354,389,cs),
(354,315,ls),
(354,244,o),
(324,210,o),
(261,210,cs),
(116,210,l),
(116,161,l)
);
},
{
closed = 1;
nodes = (
(145,0,l),
(145,690,l),
(26,690,l),
(26,639,l),
(85,639,l),
(85,0,l)
);
}
);
userData = {
assembly = "NPUSHB[ ]	/* 38 values pushed */
57 31 73 31 85 17 128 16 128 17 5 27 52 0 7 1 7 26 52 32 12 1 12 12 7 9 10 3 9 8 15 35 31 35 2 19 21 0
PUSHW[ ]	/* 1 value pushed */
-18
PUSHB[ ]	/* 5 values pushed */
11 11 2 85 0
PUSHW[ ]	/* 1 value pushed */
-8
NPUSHB[ ]	/* 11 values pushed */
9 9 2 85 0 12 12 12 2 85 0
PUSHW[ ]	/* 1 value pushed */
-16
NPUSHB[ ]	/* 33 values pushed */
13 13 2 85 32 0 48 0 64 0 112 0 4 0 111 35 15 35 63 35 2 12 27 7 20 0 9 14 16 16 2 85 9
PUSHW[ ]	/* 1 value pushed */
-4
PUSHB[ ]	/* 5 values pushed */
11 11 2 85 9
PUSHW[ ]	/* 1 value pushed */
-38
NPUSHB[ ]	/* 11 values pushed */
15 15 2 85 9 8 9 9 2 85 9
PUSHW[ ]	/* 1 value pushed */
-18
PUSHB[ ]	/* 5 values pushed */
12 12 2 85 9
PUSHW[ ]	/* 1 value pushed */
-22
PUSHB[ ]	/* 5 values pushed */
13 13 2 85 9
PUSHW[ ]	/* 1 value pushed */
-30
PUSHB[ ]	/* 5 values pushed */
15 15 6 85 9
PUSHW[ ]	/* 1 value pushed */
-24
PUSHB[ ]	/* 5 values pushed */
13 13 6 85 9
PUSHW[ ]	/* 1 value pushed */
-28
PUSHB[ ]	/* 5 values pushed */
12 12 6 85 9
PUSHW[ ]	/* 1 value pushed */
-14
PUSHB[ ]	/* 7 values pushed */
9 9 6 85 9 108 34
SRP0[ ]	/* SetRefPoint0 */
MIRP[10110]	/* MoveIndirectRelPt */
CALL[ ]	/* CallFunction */
CALL[ ]	/* CallFunction */
CALL[ ]	/* CallFunction */
CALL[ ]	/* CallFunction */
CALL[ ]	/* CallFunction */
CALL[ ]	/* CallFunction */
CALL[ ]	/* CallFunction */
CALL[ ]	/* CallFunction */
CALL[ ]	/* CallFunction */
CALL[ ]	/* CallFunction */
SHP[0]	/* ShiftPointByLastPoint */
MIRP[11101]	/* MoveIndirectRelPt */
SHP[0]	/* ShiftPointByLastPoint */
SHP[0]	/* ShiftPointByLastPoint */
DELTAP1[ ]	/* DeltaExceptionP1 */
SRP0[ ]	/* SetRefPoint0 */
MIRP[10110]	/* MoveIndirectRelPt */
DELTAP1[ ]	/* DeltaExceptionP1 */
CALL[ ]	/* CallFunction */
CALL[ ]	/* CallFunction */
CALL[ ]	/* CallFunction */
CALL[ ]	/* CallFunction */
MIRP[01101]	/* MoveIndirectRelPt */
DELTAP1[ ]	/* DeltaExceptionP1 */
SVTCA[0]	/* SetFreedomAndProjectionVectorToAxis */
MIAP[1]	/* MoveIndirectAbsPt */
MIAP[1]	/* MoveIndirectAbsPt */
SRP2[ ]	/* SetRefPoint2 */
IP[ ]	/* InterpolatePts */
IP[ ]	/* InterpolatePts */
MDAP[1]	/* MoveDirectAbsPt */
DELTAP1[ ]	/* DeltaExceptionP1 */
MIRP[01101]	/* MoveIndirectRelPt */
MDAP[1]	/* MoveDirectAbsPt */
DELTAP1[ ]	/* DeltaExceptionP1 */
MIRP[01101]	/* MoveIndirectRelPt */
IUP[1]	/* InterpolateUntPts */
IUP[0]	/* InterpolateUntPts */
SVTCA[1]	/* SetFreedomAndProjectionVectorToAxis */
DELTAP1[ ]	/* DeltaExceptionP1 */";
};
width = 458;
},
{
layerId = "FC0B0A46-298E-459F-AF16-26E3878B41A7";
shapes = (
{
closed = 1;
nodes = (
(269,153,ls),
(383,153,o),
(435,214,o),
(435,352,cs),
(435,494,o),
(382,551,o),
(266,551,cs),
(133,551,l),
(133,460,l),
(257,460,ls),
(294,460,o),
(310,441,o),
(310,399,cs),
(310,305,ls),
(310,263,o),
(294,244,o),
(257,244,cs),
(133,244,l),
(133,153,l)
);
},
{
closed = 1;
nodes = (
(185,0,l),
(185,690,l),
(23,690,l),
(23,592,l),
(63,592,l),
(63,0,l)
);
}
);
userData = {
assembly = "NPUSHB[ ]	/* 38 values pushed */
57 31 73 31 85 17 128 16 128 17 5 27 52 0 7 1 7 26 52 32 12 1 12 12 7 9 10 3 9 8 15 35 31 35 2 19 21 0
PUSHW[ ]	/* 1 value pushed */
-18
PUSHB[ ]	/* 5 values pushed */
11 11 2 85 0
PUSHW[ ]	/* 1 value pushed */
-8
NPUSHB[ ]	/* 11 values pushed */
9 9 2 85 0 12 12 12 2 85 0
PUSHW[ ]	/* 1 value pushed */
-16
NPUSHB[ ]	/* 33 values pushed */
13 13 2 85 32 0 48 0 64 0 112 0 4 0 111 35 15 35 63 35 2 12 27 7 20 0 9 14 16 16 2 85 9
PUSHW[ ]	/* 1 value pushed */
-4
PUSHB[ ]	/* 5 values pushed */
11 11 2 85 9
PUSHW[ ]	/* 1 value pushed */
-38
NPUSHB[ ]	/* 11 values pushed */
15 15 2 85 9 8 9 9 2 85 9
PUSHW[ ]	/* 1 value pushed */
-18
PUSHB[ ]	/* 5 values pushed */
12 12 2 85 9
PUSHW[ ]	/* 1 value pushed */
-22
PUSHB[ ]	/* 5 values pushed */
13 13 2 85 9
PUSHW[ ]	/* 1 value pushed */
-30
PUSHB[ ]	/* 5 values pushed */
15 15 6 85 9
PUSHW[ ]	/* 1 value pushed */
-24
PUSHB[ ]	/* 5 values pushed */
13 13 6 85 9
PUSHW[ ]	/* 1 value pushed */
-28
PUSHB[ ]	/* 5 values pushed */
12 12 6 85 9
PUSHW[ ]	/* 1 value pushed */
-14
PUSHB[ ]	/* 7 values pushed */
9 9 6 85 9 108 34
SRP0[ ]	/* SetRefPoint0 */
MIRP[10110]	/* MoveIndirectRelPt */
CALL[ ]	/* CallFunction */
CALL[ ]	/* CallFunction */
CALL[ ]	/* CallFunction */
CALL[ ]	/* CallFunction */
CALL[ ]	/* CallFunction */
CALL[ ]	/* CallFunction */
CALL[ ]	/* CallFunction */
CALL[ ]	/* CallFunction */
CALL[ ]	/* CallFunction */
CALL[ ]	/* CallFunction */
SHP[0]	/* ShiftPointByLastPoint */
MIRP[11101]	/* MoveIndirectRelPt */
SHP[0]	/* ShiftPointByLastPoint */
SHP[0]	/* ShiftPointByLastPoint */
DELTAP1[ ]	/* DeltaExceptionP1 */
SRP0[ ]	/* SetRefPoint0 */
MIRP[10110]	/* MoveIndirectRelPt */
DELTAP1[ ]	/* DeltaExceptionP1 */
CALL[ ]	/* CallFunction */
CALL[ ]	/* CallFunction */
CALL[ ]	/* CallFunction */
CALL[ ]	/* CallFunction */
MIRP[01101]	/* MoveIndirectRelPt */
DELTAP1[ ]	/* DeltaExceptionP1 */
SVTCA[0]	/* SetFreedomAndProjectionVectorToAxis */
MIAP[1]	/* MoveIndirectAbsPt */
MIAP[1]	/* MoveIndirectAbsPt */
SRP2[ ]	/* SetRefPoint2 */
IP[ ]	/* InterpolatePts */
IP[ ]	/* InterpolatePts */
MDAP[1]	/* MoveDirectAbsPt */
DELTAP1[ ]	/* DeltaExceptionP1 */
MIRP[01101]	/* MoveIndirectRelPt */
MDAP[1]	/* MoveDirectAbsPt */
DELTAP1[ ]	/* DeltaExceptionP1 */
MIRP[01101]	/* MoveIndirectRelPt */
IUP[1]	/* InterpolateUntPts */
IUP[0]	/* InterpolateUntPts */
SVTCA[1]	/* SetFreedomAndProjectionVectorToAxis */
DELTAP1[ ]	/* DeltaExceptionP1 */";
};
width = 458;
},
{
layerId = m005;
shapes = (
{
closed = 1;
nodes = (
(483,156,ls),
(610,156,o),
(690,232,o),
(690,352,cs),
(690,472,o),
(610,548,o),
(483,548,cs),
(185,548,l),
(185,496,l),
(477,496,ls),
(571,496,o),
(622,446,o),
(622,353,cs),
(622,351,ls),
(622,258,o),
(571,208,o),
(477,208,cs),
(185,208,l),
(185,156,l)
);
},
{
closed = 1;
nodes = (
(218,0,l),
(218,690,l),
(40,690,l),
(40,636,l),
(152,636,l),
(152,0,l)
);
}
);
width = 756;
},
{
layerId = "EBD6C0FC-C5AB-4FD7-AC9E-8019678F82E3";
shapes = (
{
closed = 1;
nodes = (
(471,145,ls),
(633,145,o),
(721,219,o),
(721,352,cs),
(721,485,o),
(633,559,o),
(471,559,cs),
(208,559,l),
(208,454,l),
(458,454,ls),
(523,454,o),
(554,422,o),
(554,355,cs),
(554,349,ls),
(554,282,o),
(523,250,o),
(458,250,cs),
(208,250,l),
(208,145,l)
);
},
{
closed = 1;
nodes = (
(277,0,l),
(277,690,l),
(37,690,l),
(37,578,l),
(114,578,l),
(114,0,l)
);
}
);
width = 756;
},
{
layerId = "160EFA77-7C0F-4DC0-BCB1-F97DA92D519B";
shapes = (
{
closed = 1;
nodes = (
(399,158,ls),
(516,158,o),
(584,227,o),
(584,352,cs),
(584,477,o),
(516,546,o),
(399,546,cs),
(158,546,l),
(158,495,l),
(393,495,ls),
(475,495,o),
(518,451,o),
(518,367,cs),
(518,337,ls),
(518,253,o),
(475,209,o),
(393,209,cs),
(158,209,l),
(158,158,l)
);
},
{
closed = 1;
nodes = (
(190,0,l),
(190,690,l),
(35,690,l),
(35,637,l),
(126,637,l),
(126.009,0,l)
);
}
);
userData = {
assembly = "NPUSHB[ ]	/* 38 values pushed */
57 31 73 31 85 17 128 16 128 17 5 27 52 0 7 1 7 26 52 32 12 1 12 12 7 9 10 3 9 8 15 35 31 35 2 19 21 0
PUSHW[ ]	/* 1 value pushed */
-18
PUSHB[ ]	/* 5 values pushed */
11 11 2 85 0
PUSHW[ ]	/* 1 value pushed */
-8
NPUSHB[ ]	/* 11 values pushed */
9 9 2 85 0 12 12 12 2 85 0
PUSHW[ ]	/* 1 value pushed */
-16
NPUSHB[ ]	/* 33 values pushed */
13 13 2 85 32 0 48 0 64 0 112 0 4 0 111 35 15 35 63 35 2 12 27 7 20 0 9 14 16 16 2 85 9
PUSHW[ ]	/* 1 value pushed */
-4
PUSHB[ ]	/* 5 values pushed */
11 11 2 85 9
PUSHW[ ]	/* 1 value pushed */
-38
NPUSHB[ ]	/* 11 values pushed */
15 15 2 85 9 8 9 9 2 85 9
PUSHW[ ]	/* 1 value pushed */
-18
PUSHB[ ]	/* 5 values pushed */
12 12 2 85 9
PUSHW[ ]	/* 1 value pushed */
-22
PUSHB[ ]	/* 5 values pushed */
13 13 2 85 9
PUSHW[ ]	/* 1 value pushed */
-30
PUSHB[ ]	/* 5 values pushed */
15 15 6 85 9
PUSHW[ ]	/* 1 value pushed */
-24
PUSHB[ ]	/* 5 values pushed */
13 13 6 85 9
PUSHW[ ]	/* 1 value pushed */
-28
PUSHB[ ]	/* 5 values pushed */
12 12 6 85 9
PUSHW[ ]	/* 1 value pushed */
-14
PUSHB[ ]	/* 7 values pushed */
9 9 6 85 9 108 34
SRP0[ ]	/* SetRefPoint0 */
MIRP[10110]	/* MoveIndirectRelPt */
CALL[ ]	/* CallFunction */
CALL[ ]	/* CallFunction */
CALL[ ]	/* CallFunction */
CALL[ ]	/* CallFunction */
CALL[ ]	/* CallFunction */
CALL[ ]	/* CallFunction */
CALL[ ]	/* CallFunction */
CALL[ ]	/* CallFunction */
CALL[ ]	/* CallFunction */
CALL[ ]	/* CallFunction */
SHP[0]	/* ShiftPointByLastPoint */
MIRP[11101]	/* MoveIndirectRelPt */
SHP[0]	/* ShiftPointByLastPoint */
SHP[0]	/* ShiftPointByLastPoint */
DELTAP1[ ]	/* DeltaExceptionP1 */
SRP0[ ]	/* SetRefPoint0 */
MIRP[10110]	/* MoveIndirectRelPt */
DELTAP1[ ]	/* DeltaExceptionP1 */
CALL[ ]	/* CallFunction */
CALL[ ]	/* CallFunction */
CALL[ ]	/* CallFunction */
CALL[ ]	/* CallFunction */
MIRP[01101]	/* MoveIndirectRelPt */
DELTAP1[ ]	/* DeltaExceptionP1 */
SVTCA[0]	/* SetFreedomAndProjectionVectorToAxis */
MIAP[1]	/* MoveIndirectAbsPt */
MIAP[1]	/* MoveIndirectAbsPt */
SRP2[ ]	/* SetRefPoint2 */
IP[ ]	/* InterpolatePts */
IP[ ]	/* InterpolatePts */
MDAP[1]	/* MoveDirectAbsPt */
DELTAP1[ ]	/* DeltaExceptionP1 */
MIRP[01101]	/* MoveIndirectRelPt */
MDAP[1]	/* MoveDirectAbsPt */
DELTAP1[ ]	/* DeltaExceptionP1 */
MIRP[01101]	/* MoveIndirectRelPt */
IUP[1]	/* InterpolateUntPts */
IUP[0]	/* InterpolateUntPts */
SVTCA[1]	/* SetFreedomAndProjectionVectorToAxis */
DELTAP1[ ]	/* DeltaExceptionP1 */";
};
width = 640.39655;
},
{
layerId = "F0C7097F-19D1-44A8-AB3C-28AAB548B4C8";
shapes = (
{
closed = 1;
nodes = (
(393,148,ls),
(536,148,o),
(610,217,o),
(610,352,cs),
(610,488,o),
(536,556,o),
(391,556,cs),
(179,556,l),
(179,456,l),
(380,456,ls),
(434,456,o),
(459,429,o),
(459,372,cs),
(459,332,ls),
(459,275,o),
(434,248,o),
(380,248,cs),
(179,248,l),
(179,148,l)
);
},
{
closed = 1;
nodes = (
(241,0,l),
(241,690,l),
(32,690,l),
(32,583,l),
(94,583,l),
(94,0,l)
);
}
);
userData = {
assembly = "NPUSHB[ ]	/* 38 values pushed */
57 31 73 31 85 17 128 16 128 17 5 27 52 0 7 1 7 26 52 32 12 1 12 12 7 9 10 3 9 8 15 35 31 35 2 19 21 0
PUSHW[ ]	/* 1 value pushed */
-18
PUSHB[ ]	/* 5 values pushed */
11 11 2 85 0
PUSHW[ ]	/* 1 value pushed */
-8
NPUSHB[ ]	/* 11 values pushed */
9 9 2 85 0 12 12 12 2 85 0
PUSHW[ ]	/* 1 value pushed */
-16
NPUSHB[ ]	/* 33 values pushed */
13 13 2 85 32 0 48 0 64 0 112 0 4 0 111 35 15 35 63 35 2 12 27 7 20 0 9 14 16 16 2 85 9
PUSHW[ ]	/* 1 value pushed */
-4
PUSHB[ ]	/* 5 values pushed */
11 11 2 85 9
PUSHW[ ]	/* 1 value pushed */
-38
NPUSHB[ ]	/* 11 values pushed */
15 15 2 85 9 8 9 9 2 85 9
PUSHW[ ]	/* 1 value pushed */
-18
PUSHB[ ]	/* 5 values pushed */
12 12 2 85 9
PUSHW[ ]	/* 1 value pushed */
-22
PUSHB[ ]	/* 5 values pushed */
13 13 2 85 9
PUSHW[ ]	/* 1 value pushed */
-30
PUSHB[ ]	/* 5 values pushed */
15 15 6 85 9
PUSHW[ ]	/* 1 value pushed */
-24
PUSHB[ ]	/* 5 values pushed */
13 13 6 85 9
PUSHW[ ]	/* 1 value pushed */
-28
PUSHB[ ]	/* 5 values pushed */
12 12 6 85 9
PUSHW[ ]	/* 1 value pushed */
-14
PUSHB[ ]	/* 7 values pushed */
9 9 6 85 9 108 34
SRP0[ ]	/* SetRefPoint0 */
MIRP[10110]	/* MoveIndirectRelPt */
CALL[ ]	/* CallFunction */
CALL[ ]	/* CallFunction */
CALL[ ]	/* CallFunction */
CALL[ ]	/* CallFunction */
CALL[ ]	/* CallFunction */
CALL[ ]	/* CallFunction */
CALL[ ]	/* CallFunction */
CALL[ ]	/* CallFunction */
CALL[ ]	/* CallFunction */
CALL[ ]	/* CallFunction */
SHP[0]	/* ShiftPointByLastPoint */
MIRP[11101]	/* MoveIndirectRelPt */
SHP[0]	/* ShiftPointByLastPoint */
SHP[0]	/* ShiftPointByLastPoint */
DELTAP1[ ]	/* DeltaExceptionP1 */
SRP0[ ]	/* SetRefPoint0 */
MIRP[10110]	/* MoveIndirectRelPt */
DELTAP1[ ]	/* DeltaExceptionP1 */
CALL[ ]	/* CallFunction */
CALL[ ]	/* CallFunction */
CALL[ ]	/* CallFunction */
CALL[ ]	/* CallFunction */
MIRP[01101]	/* MoveIndirectRelPt */
DELTAP1[ ]	/* DeltaExceptionP1 */
SVTCA[0]	/* SetFreedomAndProjectionVectorToAxis */
MIAP[1]	/* MoveIndirectAbsPt */
MIAP[1]	/* MoveIndirectAbsPt */
SRP2[ ]	/* SetRefPoint2 */
IP[ ]	/* InterpolatePts */
IP[ ]	/* InterpolatePts */
MDAP[1]	/* MoveDirectAbsPt */
DELTAP1[ ]	/* DeltaExceptionP1 */
MIRP[01101]	/* MoveIndirectRelPt */
MDAP[1]	/* MoveDirectAbsPt */
DELTAP1[ ]	/* DeltaExceptionP1 */
MIRP[01101]	/* MoveIndirectRelPt */
IUP[1]	/* InterpolateUntPts */
IUP[0]	/* InterpolateUntPts */
SVTCA[1]	/* SetFreedomAndProjectionVectorToAxis */
DELTAP1[ ]	/* DeltaExceptionP1 */";
};
width = 640.39655;
}
);
note = Thorn;
unicode = 222;
},
{
color = 4;
glyphname = Q;
kernLeft = O;
kernRight = O;
lastChange = "2025-02-11 14:17:34 +0000";
layers = (
{
anchors = (
{
name = top;
pos = (238,690);
}
);
layerId = "F0CEC32E-C9EC-4613-8DDA-69A48990CD60";
shapes = (
{
closed = 1;
nodes = (
(384,-132,l),
(384,-83,l),
(267,-83,l),
(267,-8,l),
(379,5,o),
(427,100,o),
(427,345,cs),
(427,611,o),
(372,700,o),
(238,700,cs),
(103,700,o),
(48,611,o),
(48,345,cs),
(48,79,o),
(103,-10,o),
(238,-10,c),
(209,23,l),
(209,-87,ls),
(209,-117,o),
(224,-132,o),
(254,-132,cs)
);
},
{
closed = 1;
nodes = (
(149,45,o),
(112,101,o),
(112,239,cs),
(112,451,ls),
(112,589,o),
(149,645,o),
(238,645,cs),
(326,645,o),
(364,589,o),
(364,451,cs),
(364,239,ls),
(364,101,o),
(326,45,o),
(238,45,cs)
);
}
);
width = 475;
},
{
anchors = (
{
name = top;
pos = (238,690);
}
);
layerId = "FC0B0A46-298E-459F-AF16-26E3878B41A7";
shapes = (
{
closed = 1;
nodes = (
(387,-132,l),
(387,-38,l),
(296,-38,l),
(296,2,l),
(399,21,o),
(444,119,o),
(444,347,cs),
(444,611,o),
(384,700,o),
(238,700,cs),
(91,700,o),
(31,611,o),
(31,347,cs),
(31,80,o),
(91,-8,o),
(238,-8,c),
(179,54,l),
(179,-52,ls),
(179,-104,o),
(207,-132,o),
(259,-132,cs)
);
},
{
closed = 1;
nodes = (
(184,98,o),
(160,128,o),
(160,195,cs),
(160,497,ls),
(160,564,o),
(184,594,o),
(238,594,cs),
(291,594,o),
(315,564,o),
(315,497,cs),
(315,195,ls),
(315,128,o),
(291,98,o),
(238,98,cs)
);
}
);
width = 475;
},
{
anchors = (
{
name = top;
pos = (414,690);
}
);
layerId = m005;
shapes = (
{
closed = 1;
nodes = (
(668,-132,l),
(668,-80,l),
(446,-80,l),
(446,-9,l),
(641,4,o),
(760,137,o),
(760,345,cs),
(760,564,o),
(628,700,o),
(414,700,cs),
(200,700,o),
(68,564,o),
(68,345,cs),
(68,126,o),
(200,-10,o),
(414,-10,c),
(382,25,l),
(382,-84,ls),
(382,-115,o),
(399,-132,o),
(430,-132,cs)
);
},
{
closed = 1;
nodes = (
(228,48,o),
(138,144,o),
(138,344,cs),
(138,346,ls),
(138,546,o),
(228,642,o),
(414,642,cs),
(600,642,o),
(690,546,o),
(690,346,cs),
(690,344,ls),
(690,144,o),
(600,48,o),
(414,48,cs)
);
}
);
width = 828;
},
{
anchors = (
{
name = top;
pos = (414,690);
}
);
layerId = "EBD6C0FC-C5AB-4FD7-AC9E-8019678F82E3";
shapes = (
{
closed = 1;
nodes = (
(670,-132,l),
(670,-24,l),
(494,-24,l),
(494,17,l),
(674,30,o),
(785,155,o),
(785,352,cs),
(785,564,o),
(643,700,o),
(414,700,cs),
(185,700,o),
(43,564,o),
(43,352,cs),
(43,133,o),
(185,1,o),
(414,1,c),
(334,60,l),
(334,-38,ls),
(334,-99,o),
(367,-132,o),
(428,-132,cs)
);
},
{
closed = 1;
nodes = (
(276,120,o),
(214,193,o),
(214,349,cs),
(214,351,ls),
(214,507,o),
(276,580,o),
(414,580,cs),
(552,580,o),
(614,507,o),
(614,351,cs),
(614,349,ls),
(614,193,o),
(552,120,o),
(414,120,cs)
);
}
);
width = 828;
},
{
anchors = (
{
name = top;
pos = (346,690);
}
);
layerId = "160EFA77-7C0F-4DC0-BCB1-F97DA92D519B";
shapes = (
{
closed = 1;
nodes = (
(558,-132,l),
(558,-81,l),
(377,-81,l),
(377,-9,l),
(539,4,o),
(631,123,o),
(631,345,cs),
(631,582,o),
(529,700,o),
(346,700,cs),
(162,700,o),
(60,582,o),
(60,345,cs),
(60,108,o),
(162,-10,o),
(346,-10,c),
(315,24,l),
(315,-85,ls),
(315,-116,o),
(331,-132,o),
(362,-132,cs)
);
},
{
closed = 1;
nodes = (
(197,47,o),
(128,127,o),
(128,303,cs),
(128,387,ls),
(128,563,o),
(197,643,o),
(346,643,cs),
(494,643,o),
(564,563,o),
(564,387,cs),
(564,303,ls),
(564,127,o),
(494,47,o),
(346,47,cs)
);
}
);
width = 691.06034;
},
{
anchors = (
{
name = top;
pos = (346,690);
}
);
layerId = "F0C7097F-19D1-44A8-AB3C-28AAB548B4C8";
shapes = (
{
closed = 1;
nodes = (
(560,-132,l),
(560,-29,l),
(417,-29,l),
(417,11,l),
(567,27,o),
(653,141,o),
(653,350,cs),
(653,582,o),
(543,700,o),
(346,700,cs),
(149,700,o),
(38,582,o),
(38,350,cs),
(38,112,o),
(149,-2,o),
(346,-2,c),
(274,58,l),
(274,-43,ls),
(274,-101,o),
(305,-132,o),
(362,-132,cs)
);
},
{
closed = 1;
nodes = (
(240,111,o),
(193,168,o),
(193,289,cs),
(193,408,ls),
(193,529,o),
(240,585,o),
(346,585,cs),
(451,585,o),
(498,529,o),
(498,408,cs),
(498,289,ls),
(498,168,o),
(451,111,o),
(346,111,cs)
);
}
);
width = 691.06034;
}
);
unicode = 81;
},
{
color = 4;
glyphname = R;
kernLeft = H.ss03;
kernRight = R.ss03;
lastChange = "2025-05-21 20:28:28 +0000";
layers = (
{
anchors = (
{
name = bottom;
pos = (241,0);
},
{
name = top;
pos = (224,690);
}
);
layerId = "F0CEC32E-C9EC-4613-8DDA-69A48990CD60";
shapes = (
{
closed = 1;
nodes = (
(136,0,l),
(136,325,l),
(240,325,ls),
(302,325,o),
(331,292,o),
(331,222,cs),
(331,0,l),
(449,0,l),
(449,51,l),
(391,51,l),
(391,211,ls),
(391,294,o),
(366,333,o),
(313,340,c),
(313,358,l),
(379,366,o),
(407,407,o),
(407,507,cs),
(407,632,o),
(359,690,o),
(259,690,cs),
(17,690,l),
(17,639,l),
(77,639,l),
(77,0,l)
);
},
{
closed = 1;
nodes = (
(136,374,l),
(136,639,l),
(255,639,ls),
(316,639,o),
(346,605,o),
(346,535,cs),
(346,478,ls),
(346,408,o),
(316,374,o),
(255,374,cs)
);
}
);
width = 466;
},
{
anchors = (
{
name = bottom;
pos = (242,0);
},
{
name = top;
pos = (224,690);
}
);
layerId = "FC0B0A46-298E-459F-AF16-26E3878B41A7";
shapes = (
{
closed = 1;
nodes = (
(175,0,l),
(175,304,l),
(242,304,ls),
(278,304,o),
(294,286,o),
(294,245,cs),
(294,0,l),
(452,0,l),
(452,98,l),
(411,98,l),
(411,213,ls),
(411,303,o),
(382,335,o),
(307,337,c),
(307,361,l),
(390,363,o),
(428,405,o),
(428,503,cs),
(428,632,o),
(372,690,o),
(258,690,cs),
(14,690,l),
(14,592,l),
(54,592,l),
(54,0,l)
);
},
{
closed = 1;
nodes = (
(175,395,l),
(175,592,l),
(250,592,ls),
(285,592,o),
(301,573,o),
(301,533,cs),
(301,454,ls),
(301,414,o),
(285,395,o),
(250,395,cs)
);
}
);
width = 466;
},
{
anchors = (
{
name = bottom;
pos = (402,0);
},
{
name = top;
pos = (365,690);
}
);
layerId = m005;
shapes = (
{
closed = 1;
nodes = (
(196,0,l),
(196,316,l),
(441,316,ls),
(529,316,o),
(576,270,o),
(576,183,cs),
(576,0,l),
(750,0,l),
(750,54,l),
(642,54,l),
(642,183,ls),
(642,267,o),
(605,318,o),
(536,328,c),
(536,352,l),
(623,364,o),
(668,416,o),
(668,502,cs),
(668,617,o),
(592,690,o),
(471,690,cs),
(18,690,l),
(18,636,l),
(130,636,l),
(130,0,l)
);
},
{
closed = 1;
nodes = (
(196,368,l),
(196,636,l),
(465,636,ls),
(553,636,o),
(600,590,o),
(600,503,cs),
(600,501,ls),
(600,414,o),
(553,368,o),
(465,368,cs)
);
}
);
width = 774;
},
{
anchors = (
{
name = bottom;
pos = (400,0);
},
{
name = top;
pos = (369,690);
}
);
layerId = "EBD6C0FC-C5AB-4FD7-AC9E-8019678F82E3";
shapes = (
{
closed = 1;
nodes = (
(254,0,l),
(254,290,l),
(428,290,ls),
(487,290,o),
(514,261,o),
(514,201,cs),
(514,0,l),
(750,0,l),
(750,112,l),
(674,112,l),
(674,194,ls),
(674,275,o),
(635,315,o),
(552,321,c),
(552,359,l),
(647,366,o),
(698,416,o),
(698,502,cs),
(698,617,o),
(604,690,o),
(456,690,cs),
(14,690,l),
(14,578,l),
(91,578,l),
(91,0,l)
);
},
{
closed = 1;
nodes = (
(254,394,l),
(254,578,l),
(445,578,ls),
(504,578,o),
(531,550,o),
(531,489,cs),
(531,483,ls),
(531,423,o),
(504,394,o),
(445,394,cs)
);
}
);
width = 774;
},
{
anchors = (
{
name = bottom;
pos = (339,0);
},
{
name = top;
pos = (324,690);
}
);
layerId = "160EFA77-7C0F-4DC0-BCB1-F97DA92D519B";
shapes = (
{
closed = 1;
nodes = (
(173,0,l),
(173,319,l),
(363,319,ls),
(441,319,o),
(481,279,o),
(481,198,cs),
(481,0,l),
(633,0,l),
(633,53,l),
(545,53,l),
(545,194,ls),
(545,277,o),
(512,324,o),
(449,333,c),
(449,354,l),
(528,365,o),
(567,413,o),
(567,504,cs),
(567,623,o),
(502,690,o),
(389,690,cs),
(18,690,l),
(18,637,l),
(109,637,l),
(109,0,l)
);
},
{
closed = 1;
nodes = (
(173,370,l),
(173,637,l),
(384,637,ls),
(461,637,o),
(501,596,o),
(501,515,cs),
(501,492,ls),
(501,412,o),
(461,370,o),
(384,370,cs)
);
}
);
width = 654.51724;
},
{
anchors = (
{
name = bottom;
pos = (338,0);
},
{
name = top;
pos = (314,690);
}
);
layerId = "F0C7097F-19D1-44A8-AB3C-28AAB548B4C8";
shapes = (
{
closed = 1;
nodes = (
(223,0,l),
(223,295,l),
(356,295,ls),
(406,295,o),
(429,271,o),
(429,218,cs),
(429,0,l),
(634,0,l),
(634,107,l),
(572,107,l),
(572,201,ls),
(572,286,o),
(537,323,o),
(457,327,c),
(457,360,l),
(547,365,o),
(593,412,o),
(593,502,cs),
(593,623,o),
(514,690,o),
(379,690,cs),
(14,690,l),
(14,583,l),
(77,583,l),
(77,0,l)
);
},
{
closed = 1;
nodes = (
(223,394,l),
(223,583,l),
(369,583,ls),
(419,583,o),
(442,559,o),
(442,506,cs),
(442,472,ls),
(442,420,o),
(419,394,o),
(369,394,cs)
);
}
);
width = 654.51724;
}
);
unicode = 82;
},
{
color = 4;
glyphname = S;
kernLeft = S;
kernRight = S;
lastChange = "2025-05-21 20:29:48 +0000";
layers = (
{
anchors = (
{
name = bottom;
pos = (218,0);
},
{
name = top;
pos = (214,690);
}
);
layerId = "F0CEC32E-C9EC-4613-8DDA-69A48990CD60";
shapes = (
{
closed = 1;
nodes = (
(331,-10,o),
(391,55,o),
(391,175,cs),
(391,269,o),
(358,313,o),
(274,354,cs),
(190,390,ls),
(129,418,o),
(106,450,o),
(106,505,cs),
(106,527,ls),
(106,605,o),
(145,645,o),
(218,645,cs),
(299,645,o),
(333,594,o),
(333,479,cs),
(333,459,l),
(413,459,l),
(394,380,l),
(394,618,o),
(347,700,o),
(218,700,cs),
(106,700,o),
(47,635,o),
(47,515,cs),
(47,420,o),
(79,376,o),
(161,336,cs),
(245,300,ls),
(307,271,o),
(331,239,o),
(331,185,cs),
(331,163,ls),
(331,85,o),
(292,45,o),
(218,45,cs),
(138,45,o),
(104,95,o),
(104,209,cs),
(104,231,l),
(22,231,l),
(42,310,l),
(42,72,o),
(88,-10,o),
(218,-10,cs)
);
}
);
width = 436;
},
{
anchors = (
{
name = bottom;
pos = (219,0);
},
{
name = top;
pos = (214,690);
}
);
layerId = "FC0B0A46-298E-459F-AF16-26E3878B41A7";
shapes = (
{
closed = 1;
nodes = (
(345,-10,o),
(406,50,o),
(406,178,cs),
(406,284,o),
(372,335,o),
(288,378,cs),
(204,418,ls),
(166,436,o),
(151,458,o),
(151,492,cs),
(151,534,ls),
(151,574,o),
(174,594,o),
(218,594,cs),
(267,594,o),
(288,570,o),
(288,520,cs),
(288,448,l),
(429,448,l),
(408,420,l),
(408,625,o),
(358,700,o),
(218,700,cs),
(92,700,o),
(31,640,o),
(31,512,cs),
(31,406,o),
(64,354,o),
(148,312,cs),
(232,272,ls),
(270,253,o),
(286,231,o),
(286,198,cs),
(286,156,ls),
(286,116,o),
(263,96,o),
(218,96,cs),
(169,96,o),
(148,120,o),
(148,170,cs),
(148,242,l),
(7,242,l),
(27,270,l),
(27,65,o),
(78,-10,o),
(218,-10,cs)
);
}
);
width = 436;
},
{
anchors = (
{
name = bottom;
pos = (372,0);
},
{
name = top;
pos = (361,690);
}
);
layerId = m005;
shapes = (
{
closed = 1;
nodes = (
(560,-10,o),
(669,67,o),
(669,193,cs),
(669,290,o),
(604,345,o),
(468,364,cs),
(296,388,ls),
(185,403,o),
(140,438,o),
(140,503,cs),
(140,503,ls),
(140,591,o),
(225,642,o),
(365,642,cs),
(524,642,o),
(600,568,o),
(600,459,cs),
(600,459,l),
(690,459,l),
(673,365,l),
(673,596,o),
(577,700,o),
(365,700,cs),
(181,700,o),
(73,623,o),
(73,496,cs),
(73,400,o),
(137,345,o),
(272,326,cs),
(444,302,ls),
(557,286,o),
(602,253,o),
(602,187,cs),
(602,187,ls),
(602,99,o),
(516,48,o),
(373,48,cs),
(214,48,o),
(135,119,o),
(135,231,cs),
(135,231,l),
(44,231,l),
(61,325,l),
(61,94,o),
(158,-10,o),
(373,-10,cs)
);
}
);
width = 738;
},
{
anchors = (
{
name = bottom;
pos = (371,0);
},
{
name = top;
pos = (363,690);
}
);
layerId = "EBD6C0FC-C5AB-4FD7-AC9E-8019678F82E3";
shapes = (
{
closed = 1;
nodes = (
(578,-10,o),
(695,71,o),
(695,212,cs),
(695,318,o),
(628,377,o),
(480,399,cs),
(308,425,ls),
(238,436,o),
(211,455,o),
(211,493,cs),
(211,493,ls),
(211,550,o),
(266,580,o),
(367,580,cs),
(481,580,o),
(532,532,o),
(532,448,cs),
(532,448,l),
(716,448,l),
(698,365,l),
(698,596,o),
(595,700,o),
(367,700,cs),
(163,700,o),
(47,619,o),
(47,478,cs),
(47,373,o),
(112,313,o),
(260,291,cs),
(432,265,ls),
(503,254,o),
(531,235,o),
(531,197,cs),
(531,197,ls),
(531,142,o),
(473,110,o),
(371,110,cs),
(254,110,o),
(203,157,o),
(203,242,cs),
(203,242,l),
(18,242,l),
(35,325,l),
(35,94,o),
(140,-10,o),
(371,-10,cs)
);
}
);
width = 738;
},
{
anchors = (
{
name = bottom;
pos = (313,0);
},
{
name = top;
pos = (304,690);
}
);
layerId = "160EFA77-7C0F-4DC0-BCB1-F97DA92D519B";
shapes = (
{
closed = 1;
nodes = (
(471,-10,o),
(561,62,o),
(561,186,cs),
(561,282,o),
(509,333,o),
(393,360,cs),
(255,389,ls),
(163,409,o),
(127,443,o),
(127,504,cs),
(127,512,ls),
(127,596,o),
(194,643,o),
(308,643,cs),
(437,643,o),
(496,578,o),
(496,467,cs),
(496,459,l),
(583,459,l),
(565,371,l),
(565,605,o),
(488,700,o),
(308,700,cs),
(152,700,o),
(63,628,o),
(63,503,cs),
(63,408,o),
(115,357,o),
(229,330,cs),
(367,301,ls),
(460,280,o),
(497,248,o),
(497,186,cs),
(497,178,ls),
(497,94,o),
(429,47,o),
(313,47,cs),
(185,47,o),
(123,110,o),
(123,222,cs),
(123,231,l),
(35,231,l),
(54,319,l),
(54,85,o),
(131,-10,o),
(313,-10,cs)
);
}
);
width = 620.84483;
},
{
anchors = (
{
name = bottom;
pos = (312,0);
},
{
name = top;
pos = (305,690);
}
);
layerId = "F0C7097F-19D1-44A8-AB3C-28AAB548B4C8";
shapes = (
{
closed = 1;
nodes = (
(488,-10,o),
(583,63,o),
(583,199,cs),
(583,305,o),
(529,361,o),
(406,391,cs),
(268,422,ls),
(210,436,o),
(188,456,o),
(188,493,cs),
(188,509,ls),
(188,559,o),
(230,585,o),
(309,585,cs),
(398,585,o),
(437,547,o),
(437,476,cs),
(437,448,l),
(605,448,l),
(586,386,l),
(586,607,o),
(503,700,o),
(309,700,cs),
(135,700,o),
(41,627,o),
(41,491,cs),
(41,386,o),
(93,329,o),
(217,299,cs),
(354,268,ls),
(413,254,o),
(436,233,o),
(436,197,cs),
(436,181,ls),
(436,132,o),
(392,105,o),
(312,105,cs),
(221,105,o),
(182,143,o),
(182,214,cs),
(182,242,l),
(14,242,l),
(32,304,l),
(32,83,o),
(116,-10,o),
(312,-10,cs)
);
}
);
width = 620.84483;
}
);
unicode = 83;
},
{
color = 4;
glyphname = Germandbls;
kernLeft = H.ss03;
lastChange = "2025-02-11 14:17:34 +0000";
layers = (
{
layerId = "F0CEC32E-C9EC-4613-8DDA-69A48990CD60";
shapes = (
{
closed = 1;
nodes = (
(147,0,l),
(147,639,l),
(348,639,l),
(223,386,l),
(223,337,l),
(267,337,ls),
(332,337,o),
(364,303,o),
(364,231,cs),
(364,157,ls),
(364,85,o),
(332,51,o),
(267,51,cs),
(202,51,l),
(202,0,l),
(271,0,ls),
(375,0,o),
(425,64,o),
(425,191,cs),
(425,321,o),
(377,385,o),
(282,385,c),
(254,385,l),
(279,367,l),
(414,639,l),
(414,690,l),
(28,690,l),
(28,639,l),
(87,639,l),
(87,0,l)
);
}
);
width = 470;
},
{
layerId = "FC0B0A46-298E-459F-AF16-26E3878B41A7";
shapes = (
{
closed = 1;
nodes = (
(184,0,l),
(184,592,l),
(309,592,l),
(237,406,l),
(237,315,l),
(259,315,ls),
(299,315,o),
(317,296,o),
(317,254,cs),
(317,159,ls),
(317,117,o),
(299,98,o),
(259,98,cs),
(220,98,l),
(220,0,l),
(268,0,ls),
(387,0,o),
(442,61,o),
(442,201,cs),
(442,333,o),
(393,403,o),
(300,403,c),
(273,403,l),
(335,355,l),
(430,592,l),
(430,690,l),
(22,690,l),
(22,592,l),
(63,592,l),
(63,0,l)
);
}
);
width = 470;
},
{
layerId = m005;
shapes = (
{
closed = 1;
nodes = (
(220,0,l),
(220,636,l),
(614,636,l),
(390,394,l),
(390,342,l),
(495,342,ls),
(600,342,o),
(656,292,o),
(656,199,cs),
(656,197,ls),
(656,104,o),
(600,54,o),
(495,54,cs),
(326,54,l),
(326,0,l),
(501,0,ls),
(638,0,o),
(724,76,o),
(724,198,cs),
(724,318,o),
(638,394,o),
(501,394,cs),
(427,394,l),
(453,369,l),
(700,636,l),
(700,690,l),
(42,690,l),
(42,636,l),
(154,636,l),
(154,0,l)
);
}
);
width = 794;
},
{
layerId = "EBD6C0FC-C5AB-4FD7-AC9E-8019678F82E3";
shapes = (
{
closed = 1;
nodes = (
(276,0,l),
(276,578,l),
(543,578,l),
(406,413,l),
(406,309,l),
(471,309,ls),
(549,309,o),
(586,278,o),
(586,211,cs),
(586,209,ls),
(586,143,o),
(549,112,o),
(471,112,cs),
(345,112,l),
(345,0,l),
(483,0,ls),
(657,0,o),
(752,74,o),
(752,210,cs),
(752,344,o),
(659,413,o),
(483,413,cs),
(453,413,l),
(531,338,l),
(728,578,l),
(728,690,l),
(37,690,l),
(37,578,l),
(114,578,l),
(114,0,l)
);
}
);
width = 794;
},
{
layerId = "160EFA77-7C0F-4DC0-BCB1-F97DA92D519B";
shapes = (
{
closed = 1;
nodes = (
(192,0,l),
(192,637,l),
(511,637,l),
(325,391,l),
(325,340,l),
(407,340,ls),
(496,340,o),
(543,296,o),
(543,211,cs),
(543,181,ls),
(543,97,o),
(496,53,o),
(407,53,cs),
(278,53,l),
(278,0,l),
(412,0,ls),
(536,0,o),
(608,71,o),
(608,195,cs),
(608,319,o),
(537,391,o),
(416,391,c),
(360,391,l),
(386,368,l),
(589,637,l),
(589,690,l),
(37,690,l),
(37,637,l),
(128,637,l),
(128.009,0,l)
);
}
);
width = 668.31034;
},
{
layerId = "F0C7097F-19D1-44A8-AB3C-28AAB548B4C8";
shapes = (
{
closed = 1;
nodes = (
(240,0,l),
(240,583,l),
(452,583,l),
(340,410,l),
(340,311,l),
(389,311,ls),
(452,311,o),
(482,285,o),
(482,228,cs),
(482,190,ls),
(482,133,o),
(452,107,o),
(389,107,cs),
(297,107,l),
(297,0,l),
(400,0,ls),
(552,0,o),
(632,69,o),
(632,207,cs),
(632,340,o),
(556,409,o),
(412,409,c),
(383,409,l),
(455,345,l),
(612,583,l),
(612,690,l),
(31,690,l),
(31,583,l),
(94,583,l),
(94,0,l)
);
}
);
width = 668.31034;
}
);
unicode = 7838;
},
{
color = 4;
glyphname = T;
kernLeft = T;
kernRight = T;
lastChange = "2025-05-27 20:30:48 +0000";
layers = (
{
anchors = (
{
name = bottom;
pos = (217,0);
},
{
name = top;
pos = (218,690);
}
);
layerId = "F0CEC32E-C9EC-4613-8DDA-69A48990CD60";
shapes = (
{
closed = 1;
nodes = (
(247,0,l),
(247,639,l),
(348,639,l),
(348,494,l),
(400,494,l),
(400,690,l),
(35,690,l),
(35,494,l),
(87,494,l),
(87,639,l),
(187,639,l),
(187,0,l)
);
}
);
width = 434;
},
{
anchors = (
{
name = bottom;
pos = (217,0);
},
{
name = top;
pos = (218,690);
}
);
layerId = "FC0B0A46-298E-459F-AF16-26E3878B41A7";
shapes = (
{
closed = 1;
nodes = (
(276,0,l),
(276,592,l),
(321,592,l),
(321,483,l),
(421,483,l),
(421,690,l),
(14,690,l),
(14,483,l),
(114,483,l),
(114,592,l),
(158,592,l),
(158,0,l)
);
}
);
width = 434;
},
{
anchors = (
{
name = bottom;
pos = (351,0);
},
{
name = top;
pos = (351,690);
}
);
layerId = m005;
shapes = (
{
closed = 1;
nodes = (
(384,0,l),
(384,636,l),
(593,636,l),
(593,494,l),
(651,494,l),
(651,690,l),
(51,690,l),
(51,494,l),
(109,494,l),
(109,636,l),
(318,636,l),
(318,0,l)
);
}
);
width = 702;
},
{
anchors = (
{
name = bottom;
pos = (351,0);
},
{
name = top;
pos = (351,690);
}
);
layerId = "EBD6C0FC-C5AB-4FD7-AC9E-8019678F82E3";
shapes = (
{
closed = 1;
nodes = (
(432,0,l),
(432,578,l),
(538,578,l),
(538,483,l),
(672,483,l),
(672,690,l),
(30,690,l),
(30,483,l),
(164,483,l),
(164,578,l),
(270,578,l),
(270,0,l)
);
}
);
width = 702;
},
{
anchors = (
{
name = bottom;
pos = (299,0);
},
{
name = top;
pos = (300,690);
}
);
layerId = "160EFA77-7C0F-4DC0-BCB1-F97DA92D519B";
shapes = (
{
closed = 1;
nodes = (
(331,0,l),
(331,637,l),
(498,637,l),
(498,494,l),
(554,494,l),
(554,690,l),
(45,690,l),
(45,494,l),
(100,494,l),
(100,637,l),
(267,637,l),
(267,0,l)
);
}
);
width = 598.03448;
},
{
anchors = (
{
name = bottom;
pos = (299,0);
},
{
name = top;
pos = (300,690);
}
);
layerId = "F0C7097F-19D1-44A8-AB3C-28AAB548B4C8";
shapes = (
{
closed = 1;
nodes = (
(371,0,l),
(371,583,l),
(454,583,l),
(454,483,l),
(575,483,l),
(575,690,l),
(24,690,l),
(24,483,l),
(145,483,l),
(145,583,l),
(227,583,l),
(227,0,l)
);
}
);
width = 598.03448;
}
);
unicode = 84;
userData = {
KernOnName = T;
};
},
{
color = 4;
glyphname = U;
kernLeft = U.ss03;
kernRight = H.ss03;
lastChange = "2025-05-21 20:31:33 +0000";
layers = (
{
anchors = (
{
name = ogonek;
pos = (466,0);
},
{
name = top;
pos = (240,690);
}
);
layerId = "F0CEC32E-C9EC-4613-8DDA-69A48990CD60";
shapes = (
{
closed = 1;
nodes = (
(280,-10,o),
(320,17,o),
(341,78,c),
(359,78,l),
(359,45,ls),
(359,15,o),
(375,0,o),
(404,0,cs),
(466,0,l),
(466,51,l),
(407,51,l),
(407,690,l),
(347,690,l),
(347,195,ls),
(347,88,o),
(315,45,o),
(240,45,cs),
(165,45,o),
(133,88,o),
(133,195,cs),
(133,690,l),
(14,690,l),
(14,639,l),
(73,639,l),
(73,180,ls),
(73,52,o),
(121,-10,o),
(216,-10,cs)
);
}
);
width = 484;
},
{
anchors = (
{
name = ogonek;
pos = (470,0);
},
{
name = top;
pos = (240,690);
}
);
layerId = "FC0B0A46-298E-459F-AF16-26E3878B41A7";
shapes = (
{
closed = 1;
nodes = (
(255,-10,o),
(296,29,o),
(304,105,c),
(327,105,l),
(327,80,ls),
(327,28,o),
(355,0,o),
(407,0,cs),
(470,0,l),
(470,98,l),
(430,98,l),
(430,690,l),
(308,690,l),
(308,180,ls),
(308,122,o),
(287,96,o),
(240,96,cs),
(194,96,o),
(172,122,o),
(172,180,cs),
(172,690,l),
(11,690,l),
(11,592,l),
(51,592,l),
(51,157,ls),
(51,48,o),
(97,-10,o),
(183,-10,cs)
);
}
);
width = 484;
},
{
anchors = (
{
name = ogonek;
pos = (805,0);
},
{
name = top;
pos = (407,690);
}
);
layerId = m005;
shapes = (
{
closed = 1;
nodes = (
(496,-10,o),
(569,26,o),
(615,104,c),
(639,104,l),
(639,48,ls),
(639,17,o),
(656,0,o),
(687,0,cs),
(805,0,l),
(805,54,l),
(693,54,l),
(693,690,l),
(627,690,l),
(627,276,ls),
(627,119,o),
(558,48,o),
(407,48,cs),
(256,48,o),
(187,119,o),
(187,276,cs),
(187,690,l),
(9,690,l),
(9,636,l),
(121,636,l),
(121,260,ls),
(121,84,o),
(211,-10,o),
(380,-10,cs)
);
}
);
width = 824;
},
{
anchors = (
{
name = ogonek;
pos = (810,0);
},
{
name = top;
pos = (409,690);
}
);
layerId = "EBD6C0FC-C5AB-4FD7-AC9E-8019678F82E3";
shapes = (
{
closed = 1;
nodes = (
(454,-10,o),
(521,36,o),
(552,136,c),
(590,136,l),
(590,94,ls),
(590,33,o),
(623,0,o),
(683,0,cs),
(810,0,l),
(810,112,l),
(733,112,l),
(733,690,l),
(571,690,l),
(571,300,ls),
(571,169,o),
(520,110,o),
(409,110,cs),
(297,110,o),
(247,169,o),
(247,300,cs),
(247,690,l),
(7,690,l),
(7,578,l),
(84,578,l),
(84,266,ls),
(84,87,o),
(171,-10,o),
(333,-10,cs)
);
}
);
width = 824;
},
{
anchors = (
{
name = ogonek;
pos = (673,0);
},
{
name = top;
pos = (342,690);
}
);
layerId = "160EFA77-7C0F-4DC0-BCB1-F97DA92D519B";
shapes = (
{
closed = 1;
nodes = (
(412,-10,o),
(472,23,o),
(509,94,c),
(530,94,l),
(530,47,ls),
(530,16,o),
(546.991,0,o),
(577,0,cs),
(673,0,l),
(673,53,l),
(582,53,l),
(582,690,l),
(518,690,l),
(518,245,ls),
(518,107,o),
(464,47,o),
(342,47,cs),
(221,47,o),
(166,107,o),
(166,245,cs),
(166,690,l),
(11,690,l),
(11,637,l),
(102,637,l),
(102,229,ls),
(102,72,o),
(176,-10,o),
(316,-10,cs)
);
}
);
width = 692.10345;
},
{
anchors = (
{
name = ogonek;
pos = (678,0);
},
{
name = top;
pos = (343,690);
}
);
layerId = "F0C7097F-19D1-44A8-AB3C-28AAB548B4C8";
shapes = (
{
closed = 1;
nodes = (
(377,-10,o),
(434,33,o),
(456,124,c),
(488,124,l),
(488,89,ls),
(488,31,o),
(519,0,o),
(576,0,cs),
(678,0,l),
(678,107,l),
(615,107,l),
(615,690,l),
(469,690,l),
(469,253,ls),
(469,151,o),
(430,105,o),
(343,105,cs),
(257,105,o),
(218,151,o),
(218,253,cs),
(218,690,l),
(9,690,l),
(9,583,l),
(71,583,l),
(71,224,ls),
(71,72,o),
(142,-10,o),
(275,-10,cs)
);
}
);
width = 692.10345;
}
);
unicode = 85;
},
{
color = 4;
glyphname = V;
lastChange = "2025-02-11 14:17:34 +0000";
layers = (
{
layerId = "F0CEC32E-C9EC-4613-8DDA-69A48990CD60";
shapes = (
{
closed = 1;
nodes = (
(273,0,l),
(406,690,l),
(346,690,l),
(227,55,l),
(209,55,l),
(89,690,l),
(27,690,l),
(160,0,l)
);
}
);
width = 434;
},
{
layerId = "FC0B0A46-298E-459F-AF16-26E3878B41A7";
shapes = (
{
closed = 1;
nodes = (
(326,0,l),
(419,690,l),
(300,690,l),
(231,113,l),
(207,113,l),
(138,690,l),
(15,690,l),
(108,0,l)
);
}
);
width = 434;
},
{
layerId = m005;
shapes = (
{
closed = 1;
nodes = (
(431,0,l),
(711,690,l),
(641,690,l),
(386,58,l),
(362,58,l),
(107,690,l),
(35,690,l),
(315,0,l)
);
}
);
width = 746;
},
{
layerId = "EBD6C0FC-C5AB-4FD7-AC9E-8019678F82E3";
shapes = (
{
closed = 1;
nodes = (
(520,0,l),
(734,690,l),
(571,690,l),
(396,127,l),
(358,127,l),
(182,690,l),
(12,690,l),
(226,0,l)
);
}
);
width = 746;
},
{
layerId = "160EFA77-7C0F-4DC0-BCB1-F97DA92D519B";
shapes = (
{
closed = 1;
nodes = (
(370,0,l),
(593,690,l),
(527,690,l),
(324,57,l),
(303,57,l),
(100,690,l),
(32,690,l),
(255,0,l)
);
}
);
width = 624.96552;
},
{
layerId = "F0C7097F-19D1-44A8-AB3C-28AAB548B4C8";
shapes = (
{
closed = 1;
nodes = (
(445,0,l),
(612,690,l),
(466,690,l),
(332,122,l),
(299,122,l),
(165,690,l),
(13,690,l),
(180,0,l)
);
}
);
width = 624.96552;
}
);
unicode = 86;
userData = {
KernOnName = V;
};
},
{
color = 4;
glyphname = W;
kernLeft = W;
kernRight = W;
lastChange = "2025-05-21 20:33:02 +0000";
layers = (
{
anchors = (
{
name = top;
pos = (333,690);
}
);
layerId = "F0CEC32E-C9EC-4613-8DDA-69A48990CD60";
shapes = (
{
closed = 1;
nodes = (
(244,0,l),
(324,492,l),
(342,492,l),
(422,0,l),
(530,0,l),
(643,690,l),
(583,690,l),
(483,55,l),
(465,55,l),
(362,690,l),
(306,690,l),
(203,55,l),
(185,55,l),
(85,690,l),
(23,690,l),
(136,0,l)
);
}
);
width = 666;
},
{
anchors = (
{
name = top;
pos = (333,690);
}
);
layerId = "FC0B0A46-298E-459F-AF16-26E3878B41A7";
shapes = (
{
closed = 1;
nodes = (
(279,0,l),
(322,437,l),
(346,437,l),
(388,0,l),
(577,0,l),
(655,690,l),
(540,690,l),
(485,112,l),
(461,112,l),
(400,690,l),
(271,690,l),
(211,112,l),
(187,112,l),
(132,690,l),
(11,690,l),
(89,0,l)
);
}
);
width = 666;
},
{
anchors = (
{
name = top;
pos = (565,690);
}
);
layerId = m005;
shapes = (
{
closed = 1;
nodes = (
(374,0,l),
(553,572,l),
(577,572,l),
(756,0,l),
(867,0,l),
(1089,690,l),
(1021,690,l),
(822,58,l),
(798,58,l),
(597,690,l),
(535,690,l),
(334,58,l),
(310,58,l),
(111,690,l),
(41,690,l),
(263,0,l)
);
}
);
width = 1131;
},
{
anchors = (
{
name = top;
pos = (565,690);
}
);
layerId = "EBD6C0FC-C5AB-4FD7-AC9E-8019678F82E3";
shapes = (
{
closed = 1;
nodes = (
(451,0,l),
(546,447,l),
(584,447,l),
(679,0,l),
(947,0,l),
(1112,690,l),
(951,690,l),
(823,123,l),
(785,123,l),
(656,690,l),
(481,690,l),
(352,123,l),
(314,123,l),
(186,690,l),
(18,690,l),
(183,0,l)
);
}
);
width = 1131;
},
{
anchors = (
{
name = top;
pos = (475,690);
}
);
layerId = "160EFA77-7C0F-4DC0-BCB1-F97DA92D519B";
shapes = (
{
closed = 1;
nodes = (
(324,0,l),
(464,541,l),
(486,541,l),
(626,0,l),
(736,0,l),
(916,690,l),
(851,690,l),
(690,57,l),
(669,57,l),
(506,690,l),
(446,690,l),
(283,57,l),
(262,57,l),
(101,690,l),
(34,690,l),
(214,0,l)
);
}
);
width = 950.61207;
},
{
anchors = (
{
name = top;
pos = (475,690);
}
);
layerId = "F0C7097F-19D1-44A8-AB3C-28AAB548B4C8";
shapes = (
{
closed = 1;
nodes = (
(384,0,l),
(459,443,l),
(492,443,l),
(566,0,l),
(803,0,l),
(935,690,l),
(792,690,l),
(692,119,l),
(659,119,l),
(557,690,l),
(400,690,l),
(297,119,l),
(265,119,l),
(165,690,l),
(15,690,l),
(147,0,l)
);
}
);
width = 950.61207;
}
);
unicode = 87;
},
{
color = 4;
glyphname = X;
lastChange = "2025-02-11 14:17:34 +0000";
layers = (
{
layerId = "F0CEC32E-C9EC-4613-8DDA-69A48990CD60";
shapes = (
{
closed = 1;
nodes = (
(131,0,l),
(224,327,l),
(242,327,l),
(336,0,l),
(443,0,l),
(443,51,l),
(384,51,l),
(289,375,l),
(290,342,l),
(379,639,l),
(438,639,l),
(438,690,l),
(334,690,l),
(244,381,l),
(226,381,l),
(137,690,l),
(30,690,l),
(30,639,l),
(89,639,l),
(179,342,l),
(180,375,l),
(84,51,l),
(25,51,l),
(25,0,l)
);
}
);
width = 468;
},
{
layerId = "FC0B0A46-298E-459F-AF16-26E3878B41A7";
shapes = (
{
closed = 1;
nodes = (
(160,0,l),
(220,290,l),
(244,290,l),
(303,0,l),
(447,0,l),
(447,98,l),
(406,98,l),
(336,410,l),
(335,329,l),
(401,592,l),
(442,592,l),
(442,690,l),
(303,690,l),
(248,418,l),
(225,418,l),
(170,690,l),
(26,690,l),
(26,592,l),
(67,592,l),
(133,329,l),
(132,410,l),
(62,98,l),
(22,98,l),
(22,0,l)
);
}
);
width = 468;
},
{
layerId = m005;
shapes = (
{
closed = 1;
nodes = (
(194,0,l),
(382,325,l),
(406,325,l),
(594,0,l),
(751,0,l),
(751,54,l),
(639,54,l),
(452,376,l),
(453,337,l),
(631,636,l),
(743,636,l),
(743,690,l),
(588,690,l),
(408,383,l),
(384,383,l),
(204,690,l),
(47,690,l),
(47,636,l),
(159,636,l),
(337,337,l),
(338,376,l),
(151,54,l),
(39,54,l),
(39,0,l)
);
}
);
width = 790;
},
{
layerId = "EBD6C0FC-C5AB-4FD7-AC9E-8019678F82E3";
shapes = (
{
closed = 1;
nodes = (
(232,0,l),
(372,287,l),
(410,287,l),
(551,0,l),
(755,0,l),
(755,110,l),
(678,110,l),
(525,411,l),
(524,327,l),
(670,580,l),
(747,580,l),
(747,690,l),
(550,690,l),
(418,421,l),
(380,421,l),
(247,690,l),
(43,690,l),
(43,580,l),
(120,580,l),
(266,327,l),
(265,411,l),
(112,110,l),
(35,110,l),
(35,0,l)
);
}
);
width = 790;
},
{
layerId = "160EFA77-7C0F-4DC0-BCB1-F97DA92D519B";
shapes = (
{
closed = 1;
nodes = (
(170,0,l),
(321,326,l),
(342,326,l),
(494,0,l),
(632,0,l),
(632,53,l),
(540,53,l),
(389,376,l),
(390,339,l),
(533,637,l),
(625,637,l),
(625,690,l),
(489,690,l),
(344,382,l),
(323,382,l),
(178.009,690,l),
(40,690,l),
(40,637,l),
(132,637,l),
(276,339,l),
(277,376,l),
(125,53,l),
(34,53,l),
(34,0,l)
);
}
);
width = 665.08621;
},
{
layerId = "F0C7097F-19D1-44A8-AB3C-28AAB548B4C8";
shapes = (
{
closed = 1;
nodes = (
(204,0,l),
(313,288,l),
(346,288,l),
(455,0,l),
(636,0,l),
(636,105,l),
(572,105,l),
(452,411,l),
(451,328,l),
(566,585,l),
(629,585,l),
(629,690,l),
(454,690,l),
(352,420,l),
(320,420,l),
(217,690,l),
(36,690,l),
(36,585,l),
(99,585,l),
(214,328,l),
(213,411,l),
(93,105,l),
(30,105,l),
(30,0,l)
);
}
);
width = 665.08621;
}
);
unicode = 88;
},
{
color = 4;
glyphname = Y;
kernLeft = Y;
kernRight = Y;
lastChange = "2025-02-11 14:17:34 +0000";
layers = (
{
anchors = (
{
name = top;
pos = (211,690);
}
);
layerId = "F0CEC32E-C9EC-4613-8DDA-69A48990CD60";
shapes = (
{
closed = 1;
nodes = (
(308,0,l),
(308,51,l),
(240,51,l),
(240,283,l),
(401,690,l),
(340,690,l),
(220,379,l),
(202,379,l),
(81,690,l),
(18,690,l),
(180,283,l),
(180,51,l),
(111,51,l),
(111,0,l)
);
}
);
width = 419;
},
{
anchors = (
{
name = top;
pos = (212,690);
}
);
layerId = "FC0B0A46-298E-459F-AF16-26E3878B41A7";
shapes = (
{
closed = 1;
nodes = (
(312,0,l),
(312,98,l),
(270,98,l),
(270,259,l),
(414,690,l),
(294,690,l),
(224,440,l),
(200,440,l),
(130,690,l),
(6,690,l),
(149,259,l),
(149,98,l),
(107,98,l),
(107,0,l)
);
}
);
width = 419;
},
{
anchors = (
{
name = top;
pos = (370,690);
}
);
layerId = m005;
shapes = (
{
closed = 1;
nodes = (
(525,0,l),
(525,54,l),
(402,54,l),
(402,294,l),
(709,690,l),
(635,690,l),
(382,362,l),
(358,362,l),
(105,690,l),
(29,690,l),
(336,294,l),
(336,54,l),
(213,54,l),
(213,0,l)
);
}
);
width = 738;
},
{
anchors = (
{
name = top;
pos = (373,690);
}
);
layerId = "EBD6C0FC-C5AB-4FD7-AC9E-8019678F82E3";
shapes = (
{
closed = 1;
nodes = (
(529,0,l),
(529,112,l),
(450,112,l),
(450,261,l),
(732,690,l),
(565,690,l),
(392,415,l),
(354,415,l),
(180,690,l),
(6,690,l),
(288,261,l),
(288,112,l),
(209,112,l),
(209,0,l)
);
}
);
width = 738;
},
{
anchors = (
{
name = top;
pos = (308,690);
}
);
layerId = "160EFA77-7C0F-4DC0-BCB1-F97DA92D519B";
shapes = (
{
closed = 1;
nodes = (
(441,0,l),
(441,53,l),
(339,53,l),
(339,290,l),
(590,690,l),
(521,690,l),
(319,369,l),
(297,369,l),
(96,690,l),
(25,690,l),
(275,290,l),
(275,53,l),
(173,53,l),
(173,0,l)
);
}
);
width = 614.25;
},
{
anchors = (
{
name = top;
pos = (311,690);
}
);
layerId = "F0C7097F-19D1-44A8-AB3C-28AAB548B4C8";
shapes = (
{
closed = 1;
nodes = (
(445,0,l),
(445,107,l),
(380,107,l),
(380,260,l),
(609,690,l),
(460,690,l),
(327,425,l),
(294,425,l),
(161,690,l),
(6,690,l),
(234,260,l),
(234,107,l),
(169,107,l),
(169,0,l)
);
}
);
width = 614.25;
}
);
unicode = 89;
userData = {
KernOnName = Y;
};
},
{
color = 4;
glyphname = Z;
kernLeft = Z;
kernRight = Z;
lastChange = "2025-02-11 14:17:34 +0000";
layers = (
{
anchors = (
{
name = top;
pos = (196,690);
}
);
layerId = "F0CEC32E-C9EC-4613-8DDA-69A48990CD60";
shapes = (
{
closed = 1;
nodes = (
(357,0,l),
(357,51,l),
(101,51,l),
(356,639,l),
(356,690,l),
(36,690,l),
(36,639,l),
(291,639,l),
(35,51,l),
(35,0,l)
);
}
);
width = 393;
},
{
anchors = (
{
name = top;
pos = (196,690);
}
);
layerId = "FC0B0A46-298E-459F-AF16-26E3878B41A7";
shapes = (
{
closed = 1;
nodes = (
(372,0,l),
(372,98,l),
(151,98,l),
(371,592,l),
(371,690,l),
(21,690,l),
(21,592,l),
(241,592,l),
(21,98,l),
(21,0,l)
);
}
);
width = 393;
},
{
anchors = (
{
name = top;
pos = (341,690);
}
);
layerId = m005;
shapes = (
{
closed = 1;
nodes = (
(628,0,l),
(628,54,l),
(139,54,l),
(624,636,l),
(624,690,l),
(58,690,l),
(58,636,l),
(539,636,l),
(54,54,l),
(54,0,l)
);
}
);
width = 681;
},
{
anchors = (
{
name = top;
pos = (341,690);
}
);
layerId = "EBD6C0FC-C5AB-4FD7-AC9E-8019678F82E3";
shapes = (
{
closed = 1;
nodes = (
(646,0,l),
(646,112,l),
(238,112,l),
(642,578,l),
(642,690,l),
(40,690,l),
(40,578,l),
(440,578,l),
(36,112,l),
(36,0,l)
);
}
);
width = 681;
},
{
anchors = (
{
name = top;
pos = (285,690);
}
);
layerId = "160EFA77-7C0F-4DC0-BCB1-F97DA92D519B";
shapes = (
{
closed = 1;
nodes = (
(523,0,l),
(523,53,l),
(124,53,l),
(520,637,l),
(520,690,l),
(49,690,l),
(49,637,l),
(443,637,l),
(47,53,l),
(47,0,l)
);
}
);
width = 569.27586;
},
{
anchors = (
{
name = top;
pos = (285,690);
}
);
layerId = "F0C7097F-19D1-44A8-AB3C-28AAB548B4C8";
shapes = (
{
closed = 1;
nodes = (
(540,0,l),
(540,107,l),
(204,107,l),
(537,583,l),
(537,690,l),
(33,690,l),
(33,583,l),
(363,583,l),
(30,107,l),
(30,0,l)
);
}
);
width = 569.27586;
}
);
unicode = 90;
userData = {
KernOnName = Z;
};
},
{
color = 4;
glyphname = A.ss03;
kernLeft = A.ss03;
kernRight = A.ss03;
lastChange = "2025-05-21 19:39:33 +0000";
layers = (
{
anchors = (
{
name = ogonek;
pos = (406,0);
},
{
name = top;
pos = (216,690);
}
);
layerId = "F0CEC32E-C9EC-4613-8DDA-69A48990CD60";
shapes = (
{
closed = 1;
nodes = (
(87,0,l),
(207,635,l),
(225,635,l),
(344,0,l),
(406,0,l),
(273,690,l),
(160,690,l),
(27,0,l)
);
},
{
closed = 1;
nodes = (
(341,189,l),
(336,237,l),
(95,237,l),
(91,189,l)
);
}
);
width = 434;
},
{
anchors = (
{
name = ogonek;
pos = (419,0);
},
{
name = top;
pos = (215,690);
}
);
layerId = "FC0B0A46-298E-459F-AF16-26E3878B41A7";
shapes = (
{
closed = 1;
nodes = (
(134,0,l),
(203,577,l),
(226,577,l),
(295,0,l),
(419,0,l),
(326,690,l),
(108,690,l),
(15,0,l)
);
},
{
closed = 1;
nodes = (
(341,158,l),
(341,250,l),
(87,250,l),
(86,158,l)
);
}
);
width = 434;
},
{
anchors = (
{
name = ogonek;
pos = (711,0);
},
{
name = top;
pos = (372,690);
}
);
layerId = m005;
shapes = (
{
closed = 1;
nodes = (
(105,0,l),
(360,632,l),
(384,632,l),
(639,0,l),
(711,0,l),
(431,690,l),
(315,690,l),
(35,0,l)
);
},
{
closed = 1;
nodes = (
(599,187,l),
(579,239,l),
(168,239,l),
(148,187,l)
);
}
);
width = 746;
},
{
anchors = (
{
name = ogonek;
pos = (734,0);
},
{
name = top;
pos = (369,690);
}
);
layerId = "EBD6C0FC-C5AB-4FD7-AC9E-8019678F82E3";
shapes = (
{
closed = 1;
nodes = (
(175,0,l),
(350,563,l),
(388,563,l),
(564,0,l),
(734,0,l),
(520,690,l),
(226,690,l),
(12,0,l)
);
},
{
closed = 1;
nodes = (
(563,150,l),
(561,258,l),
(169,258,l),
(166,150,l)
);
}
);
width = 746;
},
{
anchors = (
{
name = ogonek;
pos = (593,0);
},
{
name = top;
pos = (311,690);
}
);
layerId = "160EFA77-7C0F-4DC0-BCB1-F97DA92D519B";
shapes = (
{
closed = 1;
nodes = (
(98,0,l),
(301,633,l),
(322,633,l),
(525,0,l),
(593,0,l),
(370,690,l),
(255,690,l),
(32,0,l)
);
},
{
closed = 1;
nodes = (
(499,188,l),
(485,238,l),
(140,238,l),
(126,188,l)
);
}
);
width = 624.96552;
},
{
anchors = (
{
name = ogonek;
pos = (612,0);
},
{
name = top;
pos = (309,690);
}
);
layerId = "F0C7097F-19D1-44A8-AB3C-28AAB548B4C8";
shapes = (
{
closed = 1;
nodes = (
(159,0,l),
(293,568,l),
(325,568,l),
(460,0,l),
(612,0,l),
(445,690,l),
(180,690,l),
(13,0,l)
);
},
{
closed = 1;
nodes = (
(477,153,l),
(476,255,l),
(137,255,l),
(135,153,l)
);
}
);
width = 624.96552;
}
);
},
{
color = 4;
glyphname = Aogonek.ss03;
kernLeft = A.ss03;
kernRight = A.ss03;
lastChange = "2025-02-11 14:17:34 +0000";
layers = (
{
anchors = (
{
name = ogonek;
pos = (406,0);
},
{
name = top;
pos = (216,690);
}
);
layerId = "F0CEC32E-C9EC-4613-8DDA-69A48990CD60";
shapes = (
{
closed = 1;
nodes = (
(87,0,l),
(207,635,l),
(225,635,l),
(344,0,l),
(406,0,l),
(273,690,l),
(160,690,l),
(27,0,l)
);
},
{
closed = 1;
nodes = (
(341,189,l),
(336,237,l),
(95,237,l),
(91,189,l)
);
},
{
closed = 1;
nodes = (
(411,-136,l),
(411,-95,l),
(367,-95,ls),
(346,-95,o),
(334,-85,o),
(334,-68,cs),
(334,-48,o),
(350,-28,o),
(406,0,c),
(351,17,l),
(351,-13,l),
(308,-28,o),
(289,-48,o),
(289,-80,cs),
(289,-116,o),
(314,-136,o),
(361,-136,cs)
);
}
);
width = 434;
},
{
anchors = (
{
name = ogonek;
pos = (419,0);
},
{
name = top;
pos = (215,690);
}
);
layerId = "FC0B0A46-298E-459F-AF16-26E3878B41A7";
shapes = (
{
closed = 1;
nodes = (
(134,0,l),
(203,577,l),
(226,577,l),
(295,0,l),
(419,0,l),
(326,690,l),
(108,690,l),
(15,0,l)
);
},
{
closed = 1;
nodes = (
(341,158,l),
(341,250,l),
(87,250,l),
(86,158,l)
);
},
{
closed = 1;
nodes = (
(424,-136,l),
(424,-65,l),
(388,-65,ls),
(371,-65,o),
(362,-58,o),
(362,-45,cs),
(362,-29,o),
(379,-15,o),
(419,0,c),
(349,20,l),
(349,-17,l),
(300,-24,o),
(276,-44,o),
(276,-77,cs),
(276,-115,o),
(304,-136,o),
(357,-136,cs)
);
}
);
width = 434;
},
{
anchors = (
{
name = ogonek;
pos = (711,0);
},
{
name = top;
pos = (372,690);
}
);
layerId = m005;
shapes = (
{
closed = 1;
nodes = (
(105,0,l),
(360,632,l),
(384,632,l),
(639,0,l),
(711,0,l),
(431,690,l),
(315,690,l),
(35,0,l)
);
},
{
closed = 1;
nodes = (
(599,187,l),
(579,239,l),
(168,239,l),
(148,187,l)
);
},
{
closed = 1;
nodes = (
(719,-148,l),
(719,-104,l),
(613,-104,ls),
(593,-104,o),
(583,-96,o),
(583,-80,cs),
(583,-56,o),
(613,-37,o),
(711,0,c),
(639,9,l),
(639,-10,l),
(560,-30,o),
(535,-49,o),
(535,-92,cs),
(535,-128,o),
(560,-148,o),
(606,-148,cs)
);
}
);
width = 746;
},
{
anchors = (
{
name = ogonek;
pos = (734,0);
},
{
name = top;
pos = (369,690);
}
);
layerId = "EBD6C0FC-C5AB-4FD7-AC9E-8019678F82E3";
shapes = (
{
closed = 1;
nodes = (
(175,0,l),
(350,563,l),
(388,563,l),
(564,0,l),
(734,0,l),
(520,690,l),
(226,690,l),
(12,0,l)
);
},
{
closed = 1;
nodes = (
(563,150,l),
(561,258,l),
(169,258,l),
(166,150,l)
);
},
{
closed = 1;
nodes = (
(742,-148,l),
(742,-64,l),
(652,-64,ls),
(634,-64,o),
(627,-57,o),
(627,-45,cs),
(627,-26,o),
(653,-15,o),
(734,0,c),
(607,16,l),
(607,-22,l),
(543,-30,o),
(516,-50,o),
(516,-88,cs),
(516,-127,o),
(544,-148,o),
(597,-148,cs)
);
}
);
width = 746;
},
{
anchors = (
{
name = ogonek;
pos = (593,0);
},
{
name = top;
pos = (311,690);
}
);
layerId = "160EFA77-7C0F-4DC0-BCB1-F97DA92D519B";
shapes = (
{
closed = 1;
nodes = (
(98,0,l),
(301,633,l),
(322,633,l),
(525,0,l),
(593,0,l),
(370,690,l),
(255,690,l),
(32,0,l)
);
},
{
closed = 1;
nodes = (
(499,188,l),
(485,238,l),
(140,238,l),
(126,188,l)
);
},
{
closed = 1;
nodes = (
(600,-143,l),
(600,-101,l),
(518,-101,ls),
(497,-101,o),
(486,-92,o),
(486,-75,cs),
(486,-53,o),
(511,-34,o),
(593,0,c),
(527,12,l),
(527,-11,l),
(462,-29,o),
(440,-49,o),
(440,-87,cs),
(440,-123,o),
(465,-143,o),
(511,-143,cs)
);
}
);
width = 624.96552;
},
{
anchors = (
{
name = ogonek;
pos = (612,0);
},
{
name = top;
pos = (309,690);
}
);
layerId = "F0C7097F-19D1-44A8-AB3C-28AAB548B4C8";
shapes = (
{
closed = 1;
nodes = (
(159,0,l),
(293,568,l),
(325,568,l),
(460,0,l),
(612,0,l),
(445,690,l),
(180,690,l),
(13,0,l)
);
},
{
closed = 1;
nodes = (
(477,153,l),
(476,255,l),
(137,255,l),
(135,153,l)
);
},
{
closed = 1;
nodes = (
(619,-143,l),
(619,-64,l),
(550,-64,ls),
(532,-64,o),
(524,-57,o),
(524,-45,cs),
(524,-27,o),
(547,-15,o),
(612,0,c),
(507,18,l),
(507,-20,l),
(449,-28,o),
(423,-48,o),
(423,-84,cs),
(423,-122,o),
(451,-143,o),
(504,-143,cs)
);
}
);
width = 624.96552;
}
);
},
{
color = 4;
glyphname = AE.ss03;
kernLeft = AE.ss03;
kernRight = E.ss03;
lastChange = "2025-02-11 14:17:34 +0000";
layers = (
{
anchors = (
{
name = ogonek;
pos = (577,0);
},
{
name = top;
pos = (416,690);
}
);
layerId = "F0CEC32E-C9EC-4613-8DDA-69A48990CD60";
shapes = (
{
closed = 1;
nodes = (
(73,0,l),
(257,635,l),
(274,635,l),
(323,690,l),
(214,690,l),
(11,0,l)
);
},
{
closed = 1;
nodes = (
(312,189,l),
(312,237,l),
(98,237,l),
(94,189,l)
);
},
{
closed = 1;
nodes = (
(573,494,l),
(573,690,l),
(274,690,l),
(274,0,l),
(577,0,l),
(577,200,l),
(526,200,l),
(526,51,l),
(334,51,l),
(334,328,l),
(502,328,l),
(502,376,l),
(334,376,l),
(334,639,l),
(522,639,l),
(522,494,l)
);
}
);
userData = {
assembly = "NPUSHB[ ]	/* 47 values pushed */
4 3 11 6 27 4 27 5 42 4 43 5 59 6 74 4 74 5 77 6 77 18 11 18 19 3 4 20 5 5 6 117 5 124 6 2 10 16 14 6 12 12 2 85 14 20 1
PUSHW[ ]	/* 1 value pushed */
-10
PUSHB[ ]	/* 5 values pushed */
11 11 2 85 1
PUSHW[ ]	/* 1 value pushed */
-12
PUSHB[ ]	/* 5 values pushed */
15 15 6 85 1
PUSHW[ ]	/* 1 value pushed */
-22
NPUSHB[ ]	/* 11 values pushed */
13 13 6 85 1 10 12 12 6 85 1
PUSHW[ ]	/* 1 value pushed */
-20
NPUSHB[ ]	/* 13 values pushed */
9 9 6 85 1 21 115 6 1 8 11 4 0
PUSHW[ ]	/* 1 value pushed */
-28
NPUSHB[ ]	/* 11 values pushed */
9 9 2 85 0 20 12 12 2 85 0
PUSHW[ ]	/* 1 value pushed */
-42
PUSHB[ ]	/* 5 values pushed */
13 13 2 85 0
PUSHW[ ]	/* 1 value pushed */
-25
NPUSHB[ ]	/* 27 values pushed */
15 15 2 85 0 28 16 16 2 85 64 0 1 0 0 15 5 1 5 100 20 3 52 19 13 53 10
PUSHW[ ]	/* 1 value pushed */
-64
NPUSHB[ ]	/* 19 values pushed */
15 15 2 85 10 10 19 5 8 53 18 52 6 3 14 53 1 5 8
SVTCA[0]	/* SetFreedomAndProjectionVectorToAxis */
MIAP[1]	/* MoveIndirectAbsPt */
ALIGNRP[ ]	/* AlignRelativePt */
MIRP[01101]	/* MoveIndirectRelPt */
MIAP[1]	/* MoveIndirectAbsPt */
MIRP[01101]	/* MoveIndirectRelPt */
MIRP[01101]	/* MoveIndirectRelPt */
SRP2[ ]	/* SetRefPoint2 */
IP[ ]	/* InterpolatePts */
IP[ ]	/* InterpolatePts */
MDAP[1]	/* MoveDirectAbsPt */
CALL[ ]	/* CallFunction */
MIRP[01101]	/* MoveIndirectRelPt */
MDAP[1]	/* MoveDirectAbsPt */
MIRP[01101]	/* MoveIndirectRelPt */
IUP[0]	/* InterpolateUntPts */
SVTCA[1]	/* SetFreedomAndProjectionVectorToAxis */
SRP0[ ]	/* SetRefPoint0 */
MIRP[10110]	/* MoveIndirectRelPt */
DELTAP1[ ]	/* DeltaExceptionP1 */
SHP[0]	/* ShiftPointByLastPoint */
MDAP[1]	/* MoveDirectAbsPt */
DELTAP1[ ]	/* DeltaExceptionP1 */
CALL[ ]	/* CallFunction */
CALL[ ]	/* CallFunction */
CALL[ ]	/* CallFunction */
CALL[ ]	/* CallFunction */
CALL[ ]	/* CallFunction */
SLOOP[ ]	/* SetLoopVariable */
IP[ ]	/* InterpolatePts */
MIRP[00110]	/* MoveIndirectRelPt */
MDAP[1]	/* MoveDirectAbsPt */
CALL[ ]	/* CallFunction */
CALL[ ]	/* CallFunction */
CALL[ ]	/* CallFunction */
CALL[ ]	/* CallFunction */
CALL[ ]	/* CallFunction */
MIRP[01101]	/* MoveIndirectRelPt */
CALL[ ]	/* CallFunction */
IP[ ]	/* InterpolatePts */
IP[ ]	/* InterpolatePts */
IUP[1]	/* InterpolateUntPts */
IUP[0]	/* InterpolateUntPts */
DELTAP1[ ]	/* DeltaExceptionP1 */
SDPVTL[1]	/* SetDualPVectorToLine */
SRP0[ ]	/* SetRefPoint0 */
MIRP[11101]	/* MoveIndirectRelPt */
MDRP[00000]	/* MoveDirectRelPt */
MDRP[00000]	/* MoveDirectRelPt */
MDRP[00000]	/* MoveDirectRelPt */
SVTCA[1]	/* SetFreedomAndProjectionVectorToAxis */
DELTAP1[ ]	/* DeltaExceptionP1 */";
};
width = 627;
},
{
anchors = (
{
name = ogonek;
pos = (599,0);
},
{
name = top;
pos = (418,690);
}
);
layerId = "FC0B0A46-298E-459F-AF16-26E3878B41A7";
shapes = (
{
closed = 1;
nodes = (
(123,0,l),
(232,577,l),
(256,577,l),
(355,690,l),
(142,690,l),
(2,0,l)
);
},
{
closed = 1;
nodes = (
(333,158,l),
(333,250,l),
(81,250,l),
(80,158,l)
);
},
{
closed = 1;
nodes = (
(595,483,l),
(595,690,l),
(256,690,l),
(256,0,l),
(599,0,l),
(599,211,l),
(496,211,l),
(496,98,l),
(377,98,l),
(377,307,l),
(516,307,l),
(516,397,l),
(377,397,l),
(377,592,l),
(492,592,l),
(492,483,l)
);
}
);
userData = {
assembly = "NPUSHB[ ]	/* 47 values pushed */
4 3 11 6 27 4 27 5 42 4 43 5 59 6 74 4 74 5 77 6 77 18 11 18 19 3 4 20 5 5 6 117 5 124 6 2 10 16 14 6 12 12 2 85 14 20 1
PUSHW[ ]	/* 1 value pushed */
-10
PUSHB[ ]	/* 5 values pushed */
11 11 2 85 1
PUSHW[ ]	/* 1 value pushed */
-12
PUSHB[ ]	/* 5 values pushed */
15 15 6 85 1
PUSHW[ ]	/* 1 value pushed */
-22
NPUSHB[ ]	/* 11 values pushed */
13 13 6 85 1 10 12 12 6 85 1
PUSHW[ ]	/* 1 value pushed */
-20
NPUSHB[ ]	/* 13 values pushed */
9 9 6 85 1 21 115 6 1 8 11 4 0
PUSHW[ ]	/* 1 value pushed */
-28
NPUSHB[ ]	/* 11 values pushed */
9 9 2 85 0 20 12 12 2 85 0
PUSHW[ ]	/* 1 value pushed */
-42
PUSHB[ ]	/* 5 values pushed */
13 13 2 85 0
PUSHW[ ]	/* 1 value pushed */
-25
NPUSHB[ ]	/* 27 values pushed */
15 15 2 85 0 28 16 16 2 85 64 0 1 0 0 15 5 1 5 100 20 3 52 19 13 53 10
PUSHW[ ]	/* 1 value pushed */
-64
NPUSHB[ ]	/* 19 values pushed */
15 15 2 85 10 10 19 5 8 53 18 52 6 3 14 53 1 5 8
SVTCA[0]	/* SetFreedomAndProjectionVectorToAxis */
MIAP[1]	/* MoveIndirectAbsPt */
ALIGNRP[ ]	/* AlignRelativePt */
MIRP[01101]	/* MoveIndirectRelPt */
MIAP[1]	/* MoveIndirectAbsPt */
MIRP[01101]	/* MoveIndirectRelPt */
MIRP[01101]	/* MoveIndirectRelPt */
SRP2[ ]	/* SetRefPoint2 */
IP[ ]	/* InterpolatePts */
IP[ ]	/* InterpolatePts */
MDAP[1]	/* MoveDirectAbsPt */
CALL[ ]	/* CallFunction */
MIRP[01101]	/* MoveIndirectRelPt */
MDAP[1]	/* MoveDirectAbsPt */
MIRP[01101]	/* MoveIndirectRelPt */
IUP[0]	/* InterpolateUntPts */
SVTCA[1]	/* SetFreedomAndProjectionVectorToAxis */
SRP0[ ]	/* SetRefPoint0 */
MIRP[10110]	/* MoveIndirectRelPt */
DELTAP1[ ]	/* DeltaExceptionP1 */
SHP[0]	/* ShiftPointByLastPoint */
MDAP[1]	/* MoveDirectAbsPt */
DELTAP1[ ]	/* DeltaExceptionP1 */
CALL[ ]	/* CallFunction */
CALL[ ]	/* CallFunction */
CALL[ ]	/* CallFunction */
CALL[ ]	/* CallFunction */
CALL[ ]	/* CallFunction */
SLOOP[ ]	/* SetLoopVariable */
IP[ ]	/* InterpolatePts */
MIRP[00110]	/* MoveIndirectRelPt */
MDAP[1]	/* MoveDirectAbsPt */
CALL[ ]	/* CallFunction */
CALL[ ]	/* CallFunction */
CALL[ ]	/* CallFunction */
CALL[ ]	/* CallFunction */
CALL[ ]	/* CallFunction */
MIRP[01101]	/* MoveIndirectRelPt */
CALL[ ]	/* CallFunction */
IP[ ]	/* InterpolatePts */
IP[ ]	/* InterpolatePts */
IUP[1]	/* InterpolateUntPts */
IUP[0]	/* InterpolateUntPts */
DELTAP1[ ]	/* DeltaExceptionP1 */
SDPVTL[1]	/* SetDualPVectorToLine */
SRP0[ ]	/* SetRefPoint0 */
MIRP[11101]	/* MoveIndirectRelPt */
MDRP[00000]	/* MoveDirectRelPt */
MDRP[00000]	/* MoveDirectRelPt */
MDRP[00000]	/* MoveDirectRelPt */
SVTCA[1]	/* SetFreedomAndProjectionVectorToAxis */
DELTAP1[ ]	/* DeltaExceptionP1 */";
};
width = 627;
},
{
anchors = (
{
name = ogonek;
pos = (1026,0);
},
{
name = top;
pos = (766,690);
}
);
layerId = m005;
shapes = (
{
closed = 1;
nodes = (
(85,0,l),
(484,632,l),
(508,632,l),
(555,690,l),
(446,690,l),
(8,0,l)
);
},
{
closed = 1;
nodes = (
(547,187,l),
(547,239,l),
(192,239,l),
(172,187,l)
);
},
{
closed = 1;
nodes = (
(1022,494,l),
(1022,690,l),
(508,690,l),
(508,0,l),
(1026,0,l),
(1026,200,l),
(968,200,l),
(968,54,l),
(574,54,l),
(574,326,l),
(910,326,l),
(910,378,l),
(574,378,l),
(574,636,l),
(964,636,l),
(964,494,l)
);
}
);
width = 1100;
},
{
anchors = (
{
name = ogonek;
pos = (1048,0);
},
{
name = top;
pos = (760,690);
}
);
layerId = "EBD6C0FC-C5AB-4FD7-AC9E-8019678F82E3";
shapes = (
{
closed = 1;
nodes = (
(162,0,l),
(436,563,l),
(474,563,l),
(605,690,l),
(325,690,l),
(-10,0,l)
);
},
{
closed = 1;
nodes = (
(560,150,l),
(560,258,l),
(172,258,l),
(169,150,l)
);
},
{
closed = 1;
nodes = (
(1044,483,l),
(1044,690,l),
(474,690,l),
(474,0,l),
(1048,0,l),
(1048,211,l),
(914,211,l),
(914,112,l),
(636,112,l),
(636,300,l),
(925,300,l),
(925,404,l),
(636,404,l),
(636,578,l),
(910,578,l),
(910,483,l)
);
}
);
width = 1100;
},
{
anchors = (
{
name = ogonek;
pos = (852,0);
},
{
name = top;
pos = (630,690);
}
);
layerId = "160EFA77-7C0F-4DC0-BCB1-F97DA92D519B";
shapes = (
{
closed = 1;
nodes = (
(80,0,l),
(396,633,l),
(417,633,l),
(465,690,l),
(356,690,l),
(9,0,l)
);
},
{
closed = 1;
nodes = (
(456,188,l),
(456,238,l),
(156,238,l),
(142,188,l)
);
},
{
closed = 1;
nodes = (
(848,494,l),
(848,690,l),
(417,690,l),
(417,0,l),
(852,0,l),
(852,200,l),
(797,200,l),
(797,53,l),
(481,53,l),
(481,327,l),
(752,327,l),
(752,377,l),
(481,377,l),
(481,637,l),
(793,637,l),
(793,494,l)
);
}
);
userData = {
assembly = "NPUSHB[ ]	/* 47 values pushed */
4 3 11 6 27 4 27 5 42 4 43 5 59 6 74 4 74 5 77 6 77 18 11 18 19 3 4 20 5 5 6 117 5 124 6 2 10 16 14 6 12 12 2 85 14 20 1
PUSHW[ ]	/* 1 value pushed */
-10
PUSHB[ ]	/* 5 values pushed */
11 11 2 85 1
PUSHW[ ]	/* 1 value pushed */
-12
PUSHB[ ]	/* 5 values pushed */
15 15 6 85 1
PUSHW[ ]	/* 1 value pushed */
-22
NPUSHB[ ]	/* 11 values pushed */
13 13 6 85 1 10 12 12 6 85 1
PUSHW[ ]	/* 1 value pushed */
-20
NPUSHB[ ]	/* 13 values pushed */
9 9 6 85 1 21 115 6 1 8 11 4 0
PUSHW[ ]	/* 1 value pushed */
-28
NPUSHB[ ]	/* 11 values pushed */
9 9 2 85 0 20 12 12 2 85 0
PUSHW[ ]	/* 1 value pushed */
-42
PUSHB[ ]	/* 5 values pushed */
13 13 2 85 0
PUSHW[ ]	/* 1 value pushed */
-25
NPUSHB[ ]	/* 27 values pushed */
15 15 2 85 0 28 16 16 2 85 64 0 1 0 0 15 5 1 5 100 20 3 52 19 13 53 10
PUSHW[ ]	/* 1 value pushed */
-64
NPUSHB[ ]	/* 19 values pushed */
15 15 2 85 10 10 19 5 8 53 18 52 6 3 14 53 1 5 8
SVTCA[0]	/* SetFreedomAndProjectionVectorToAxis */
MIAP[1]	/* MoveIndirectAbsPt */
ALIGNRP[ ]	/* AlignRelativePt */
MIRP[01101]	/* MoveIndirectRelPt */
MIAP[1]	/* MoveIndirectAbsPt */
MIRP[01101]	/* MoveIndirectRelPt */
MIRP[01101]	/* MoveIndirectRelPt */
SRP2[ ]	/* SetRefPoint2 */
IP[ ]	/* InterpolatePts */
IP[ ]	/* InterpolatePts */
MDAP[1]	/* MoveDirectAbsPt */
CALL[ ]	/* CallFunction */
MIRP[01101]	/* MoveIndirectRelPt */
MDAP[1]	/* MoveDirectAbsPt */
MIRP[01101]	/* MoveIndirectRelPt */
IUP[0]	/* InterpolateUntPts */
SVTCA[1]	/* SetFreedomAndProjectionVectorToAxis */
SRP0[ ]	/* SetRefPoint0 */
MIRP[10110]	/* MoveIndirectRelPt */
DELTAP1[ ]	/* DeltaExceptionP1 */
SHP[0]	/* ShiftPointByLastPoint */
MDAP[1]	/* MoveDirectAbsPt */
DELTAP1[ ]	/* DeltaExceptionP1 */
CALL[ ]	/* CallFunction */
CALL[ ]	/* CallFunction */
CALL[ ]	/* CallFunction */
CALL[ ]	/* CallFunction */
CALL[ ]	/* CallFunction */
SLOOP[ ]	/* SetLoopVariable */
IP[ ]	/* InterpolatePts */
MIRP[00110]	/* MoveIndirectRelPt */
MDAP[1]	/* MoveDirectAbsPt */
CALL[ ]	/* CallFunction */
CALL[ ]	/* CallFunction */
CALL[ ]	/* CallFunction */
CALL[ ]	/* CallFunction */
CALL[ ]	/* CallFunction */
MIRP[01101]	/* MoveIndirectRelPt */
CALL[ ]	/* CallFunction */
IP[ ]	/* InterpolatePts */
IP[ ]	/* InterpolatePts */
IUP[1]	/* InterpolateUntPts */
IUP[0]	/* InterpolateUntPts */
DELTAP1[ ]	/* DeltaExceptionP1 */
SDPVTL[1]	/* SetDualPVectorToLine */
SRP0[ ]	/* SetRefPoint0 */
MIRP[11101]	/* MoveIndirectRelPt */
MDRP[00000]	/* MoveDirectRelPt */
MDRP[00000]	/* MoveDirectRelPt */
MDRP[00000]	/* MoveDirectRelPt */
SVTCA[1]	/* SetFreedomAndProjectionVectorToAxis */
DELTAP1[ ]	/* DeltaExceptionP1 */";
};
width = 916.50862;
},
{
anchors = (
{
name = ogonek;
pos = (874,0);
},
{
name = top;
pos = (627,690);
}
);
layerId = "F0C7097F-19D1-44A8-AB3C-28AAB548B4C8";
shapes = (
{
closed = 1;
nodes = (
(147,0,l),
(357,568,l),
(389,568,l),
(508,690,l),
(254.009,690,l),
(-5,0,l)
);
},
{
closed = 1;
nodes = (
(472,153,l),
(472,255,l),
(137,255,l),
(134,153,l)
);
},
{
closed = 1;
nodes = (
(870,483,l),
(870,690,l),
(389,690,l),
(389,0,l),
(874,0,l),
(874,211,l),
(752,211,l),
(752,107,l),
(536,107,l),
(536,303,l),
(766,303,l),
(766,401,l),
(536,401,l),
(536,583,l),
(748,583,l),
(748,483,l)
);
}
);
userData = {
assembly = "NPUSHB[ ]	/* 47 values pushed */
4 3 11 6 27 4 27 5 42 4 43 5 59 6 74 4 74 5 77 6 77 18 11 18 19 3 4 20 5 5 6 117 5 124 6 2 10 16 14 6 12 12 2 85 14 20 1
PUSHW[ ]	/* 1 value pushed */
-10
PUSHB[ ]	/* 5 values pushed */
11 11 2 85 1
PUSHW[ ]	/* 1 value pushed */
-12
PUSHB[ ]	/* 5 values pushed */
15 15 6 85 1
PUSHW[ ]	/* 1 value pushed */
-22
NPUSHB[ ]	/* 11 values pushed */
13 13 6 85 1 10 12 12 6 85 1
PUSHW[ ]	/* 1 value pushed */
-20
NPUSHB[ ]	/* 13 values pushed */
9 9 6 85 1 21 115 6 1 8 11 4 0
PUSHW[ ]	/* 1 value pushed */
-28
NPUSHB[ ]	/* 11 values pushed */
9 9 2 85 0 20 12 12 2 85 0
PUSHW[ ]	/* 1 value pushed */
-42
PUSHB[ ]	/* 5 values pushed */
13 13 2 85 0
PUSHW[ ]	/* 1 value pushed */
-25
NPUSHB[ ]	/* 27 values pushed */
15 15 2 85 0 28 16 16 2 85 64 0 1 0 0 15 5 1 5 100 20 3 52 19 13 53 10
PUSHW[ ]	/* 1 value pushed */
-64
NPUSHB[ ]	/* 19 values pushed */
15 15 2 85 10 10 19 5 8 53 18 52 6 3 14 53 1 5 8
SVTCA[0]	/* SetFreedomAndProjectionVectorToAxis */
MIAP[1]	/* MoveIndirectAbsPt */
ALIGNRP[ ]	/* AlignRelativePt */
MIRP[01101]	/* MoveIndirectRelPt */
MIAP[1]	/* MoveIndirectAbsPt */
MIRP[01101]	/* MoveIndirectRelPt */
MIRP[01101]	/* MoveIndirectRelPt */
SRP2[ ]	/* SetRefPoint2 */
IP[ ]	/* InterpolatePts */
IP[ ]	/* InterpolatePts */
MDAP[1]	/* MoveDirectAbsPt */
CALL[ ]	/* CallFunction */
MIRP[01101]	/* MoveIndirectRelPt */
MDAP[1]	/* MoveDirectAbsPt */
MIRP[01101]	/* MoveIndirectRelPt */
IUP[0]	/* InterpolateUntPts */
SVTCA[1]	/* SetFreedomAndProjectionVectorToAxis */
SRP0[ ]	/* SetRefPoint0 */
MIRP[10110]	/* MoveIndirectRelPt */
DELTAP1[ ]	/* DeltaExceptionP1 */
SHP[0]	/* ShiftPointByLastPoint */
MDAP[1]	/* MoveDirectAbsPt */
DELTAP1[ ]	/* DeltaExceptionP1 */
CALL[ ]	/* CallFunction */
CALL[ ]	/* CallFunction */
CALL[ ]	/* CallFunction */
CALL[ ]	/* CallFunction */
CALL[ ]	/* CallFunction */
SLOOP[ ]	/* SetLoopVariable */
IP[ ]	/* InterpolatePts */
MIRP[00110]	/* MoveIndirectRelPt */
MDAP[1]	/* MoveDirectAbsPt */
CALL[ ]	/* CallFunction */
CALL[ ]	/* CallFunction */
CALL[ ]	/* CallFunction */
CALL[ ]	/* CallFunction */
CALL[ ]	/* CallFunction */
MIRP[01101]	/* MoveIndirectRelPt */
CALL[ ]	/* CallFunction */
IP[ ]	/* InterpolatePts */
IP[ ]	/* InterpolatePts */
IUP[1]	/* InterpolateUntPts */
IUP[0]	/* InterpolateUntPts */
DELTAP1[ ]	/* DeltaExceptionP1 */
SDPVTL[1]	/* SetDualPVectorToLine */
SRP0[ ]	/* SetRefPoint0 */
MIRP[11101]	/* MoveIndirectRelPt */
MDRP[00000]	/* MoveDirectRelPt */
MDRP[00000]	/* MoveDirectRelPt */
MDRP[00000]	/* MoveDirectRelPt */
SVTCA[1]	/* SetFreedomAndProjectionVectorToAxis */
DELTAP1[ ]	/* DeltaExceptionP1 */";
};
width = 916.50862;
}
);
note = AE;
},
{
color = 4;
glyphname = B.ss03;
kernLeft = H.ss03;
kernRight = B.ss03;
lastChange = "2025-02-11 14:17:34 +0000";
layers = (
{
layerId = "F0CEC32E-C9EC-4613-8DDA-69A48990CD60";
shapes = (
{
closed = 1;
nodes = (
(254,0,ls),
(355,0,o),
(403,63,o),
(403,189,cs),
(403,289,o),
(375,335,o),
(310,343,c),
(310,361,l),
(372,369,o),
(398,410,o),
(398,508,cs),
(398,633,o),
(351,690,o),
(251,690,c),
(72,690,l),
(72,0,l)
);
},
{
closed = 1;
nodes = (
(131,328,l),
(250,328,ls),
(312,328,o),
(341,294,o),
(341,223,cs),
(341,155,ls),
(341,85,o),
(312,51,o),
(250,51,cs),
(131,51,l)
);
},
{
closed = 1;
nodes = (
(131,639,l),
(246,639,ls),
(307,639,o),
(336,606,o),
(336,537,cs),
(336,479,ls),
(336,410,o),
(307,376,o),
(246,376,cs),
(131,376,l)
);
}
);
width = 450;
},
{
layerId = "FC0B0A46-298E-459F-AF16-26E3878B41A7";
shapes = (
{
closed = 1;
nodes = (
(252,0,ls),
(366,0,o),
(421,61,o),
(421,193,cs),
(421,294,o),
(382,338,o),
(306,340,c),
(306,364,l),
(376,366,o),
(415,407,o),
(415,504,cs),
(415,632,o),
(361,690,o),
(249,690,c),
(48,690,l),
(48,0,l)
);
},
{
closed = 1;
nodes = (
(169,307,l),
(244,307,ls),
(280,307,o),
(296,288,o),
(296,247,cs),
(296,158,ls),
(296,117,o),
(280,98,o),
(244,98,cs),
(169,98,l)
);
},
{
closed = 1;
nodes = (
(169,592,l),
(241,592,ls),
(276,592,o),
(291,573,o),
(291,534,cs),
(291,456,ls),
(291,416,o),
(276,397,o),
(241,397,cs),
(169,397,l)
);
}
);
width = 450;
},
{
layerId = m005;
shapes = (
{
closed = 1;
nodes = (
(464,0,ls),
(586,0,o),
(663,73,o),
(663,190,cs),
(663,277,o),
(619,329,o),
(537,340,c),
(537,364,l),
(614,375,o),
(655,425,o),
(655,507,cs),
(655,619,o),
(581,690,o),
(462,690,c),
(121,690,l),
(121,0,l)
);
},
{
closed = 1;
nodes = (
(187,326,l),
(458,326,ls),
(547,326,o),
(595,279,o),
(595,191,cs),
(595,189,ls),
(595,101,o),
(547,54,o),
(458,54,cs),
(187,54,l)
);
},
{
closed = 1;
nodes = (
(187,636,l),
(456,636,ls),
(541,636,o),
(587,591,o),
(587,508,cs),
(587,506,ls),
(587,423,o),
(541,378,o),
(456,378,cs),
(187,378,l)
);
}
);
width = 738;
},
{
layerId = "EBD6C0FC-C5AB-4FD7-AC9E-8019678F82E3";
shapes = (
{
closed = 1;
nodes = (
(446,0,ls),
(597,0,o),
(692,73,o),
(692,190,cs),
(692,276,o),
(644,325,o),
(552,333,c),
(552,371,l),
(638,379,o),
(684,426,o),
(684,507,cs),
(684,619,o),
(592,690,o),
(444,690,c),
(81,690,l),
(81,0,l)
);
},
{
closed = 1;
nodes = (
(244,300,l),
(435,300,ls),
(497,300,o),
(525,270,o),
(525,207,cs),
(525,205,ls),
(525,141,o),
(497,112,o),
(435,112,cs),
(244,112,l)
);
},
{
closed = 1;
nodes = (
(244,578,l),
(433,578,ls),
(491,578,o),
(517,551,o),
(517,492,cs),
(517,490,ls),
(517,432,o),
(491,404,o),
(433,404,cs),
(244,404,l)
);
}
);
width = 738;
},
{
layerId = "160EFA77-7C0F-4DC0-BCB1-F97DA92D519B";
shapes = (
{
closed = 1;
nodes = (
(383,0,ls),
(496,0,o),
(562,69,o),
(562,190,cs),
(562,282,o),
(524,331,o),
(449,341,c),
(449,363,l),
(520,373,o),
(555,419,o),
(555,507,cs),
(555,624,o),
(492,690,o),
(380,690,c),
(101.991,690,l),
(101.991,0,l)
);
},
{
closed = 1;
nodes = (
(165,327,l),
(377,327,ls),
(456,327,o),
(496,285,o),
(496,203,cs),
(496,176,ls),
(496,95,o),
(456,53,o),
(377,53,cs),
(165,53,l)
);
},
{
closed = 1;
nodes = (
(165,637,l),
(375,637,ls),
(450,637,o),
(490,597,o),
(490,519,cs),
(490,496,ls),
(490,418,o),
(450,377,o),
(375,377,cs),
(165,377,l)
);
}
);
width = 626.27586;
},
{
layerId = "F0C7097F-19D1-44A8-AB3C-28AAB548B4C8";
shapes = (
{
closed = 1;
nodes = (
(371,0,ls),
(507,0,o),
(587,68,o),
(587,191,cs),
(587,283,o),
(542,330,o),
(457,336,c),
(457,368,l),
(536,374,o),
(580,419,o),
(580,506,cs),
(580,624,o),
(502,690,o),
(368,690,c),
(68,690,l),
(68,0,l)
);
},
{
closed = 1;
nodes = (
(215,303,l),
(361,303,ls),
(413,303,o),
(436,277,o),
(436,223,cs),
(436,187,ls),
(436,132,o),
(413,107,o),
(361,107,cs),
(215,107,l)
);
},
{
closed = 1;
nodes = (
(215,583,l),
(359,583,ls),
(408,583,o),
(429,560,o),
(429,508,cs),
(429,477,ls),
(429,426,o),
(408,401,o),
(359,401,cs),
(215,401,l)
);
}
);
width = 626.27586;
}
);
},
